<?xml version="1.0" encoding="UTF-8"?>
<svg width="57px" height="57px" viewBox="0 0 57 57" version="1.1" xmlns="http://www.w3.org/2000/svg" xmlns:xlink="http://www.w3.org/1999/xlink">
    <!-- Generator: Sketch 46.2 (44496) - http://www.bohemiancoding.com/sketch -->
    <title>Next button Copy</title>
    <desc>Created with Sketch.</desc>
    <defs>
        <circle id="path-1" cx="24.5" cy="24.5" r="24.5"></circle>
        <filter x="-14.3%" y="-10.2%" width="128.6%" height="128.6%" filterUnits="objectBoundingBox" id="filter-2">
            <feOffset dx="0" dy="2" in="SourceAlpha" result="shadowOffsetOuter1"></feOffset>
            <feGaussianBlur stdDeviation="2" in="shadowOffsetOuter1" result="shadowBlurOuter1"></feGaussianBlur>
            <feColorMatrix values="0 0 0 0 0   0 0 0 0 0   0 0 0 0 0  0 0 0 0.156504755 0" type="matrix" in="shadowBlurOuter1"></feColorMatrix>
        </filter>
    </defs>
    <g id="Styled-Pages" stroke="none" stroke-width="1" fill="none" fill-rule="evenodd" opacity="0.782835145">
        <g id="Pricing-(Mobile1)" transform="translate(-13.000000, -364.000000)">
            <g id="Next-button" transform="translate(41.500000, 394.500000) rotate(-180.000000) translate(-41.500000, -394.500000) translate(17.000000, 370.000000)">
                <g>
                    <g id="Oval-5">
                        <use fill="black" fill-opacity="1" filter="url(#filter-2)" xlink:href="#path-1"></use>
                        <use fill="#FFFFFF" fill-rule="evenodd" xlink:href="#path-1"></use>
                    </g>
                    <path d="M23.0324414,25.0042276 L30.6738446,17.5219512 C30.8842514,17.3164228 31,17.041626 31,16.7486179 C31,16.4554472 30.8842514,16.180813 30.6738446,15.9749593 L30.0042628,15.3196748 C29.7941881,15.1134959 29.5133689,15 29.2141164,15 C28.9148638,15 28.6343767,15.1134959 28.424136,15.3196748 L19.3258277,24.2279675 C19.1147567,24.4344715 18.9991741,24.7104065 19.0000044,25.0037398 C18.9991741,25.298374 19.1145906,25.5739837 19.3258277,25.7806504 L28.4156666,34.6803252 C28.6259073,34.8865041 28.9063944,35 29.205813,35 C29.5050656,35 29.7855526,34.8865041 29.9959594,34.6803252 L30.6653752,34.0250407 C31.1009687,33.5985366 31.1009687,32.9042276 30.6653752,32.4778862 L23.0324414,25.0042276 Z" id="Shape" fill="#199AB1" fill-rule="nonzero" transform="translate(25.000000, 25.000000) scale(-1, 1) translate(-25.000000, -25.000000) "></path>
                </g>
            </g>
        </g>
    </g>
</svg>