<?xml version="1.0" encoding="UTF-8"?>
<svg width="359px" height="205px" viewBox="0 0 359 205" version="1.1" xmlns="http://www.w3.org/2000/svg" xmlns:xlink="http://www.w3.org/1999/xlink">
    <!-- Generator: Sketch 46.2 (44496) - http://www.bohemiancoding.com/sketch -->
    <title>Workflow with confeti</title>
    <desc>Created with Sketch.</desc>
    <defs>
        <polygon id="path-1" points="0 141.44 254 141.44 254 0 0 0"></polygon>
    </defs>
    <g id="Styled-Pages" stroke="none" stroke-width="1" fill="none" fill-rule="evenodd">
        <g id="Home-(Mobile)" transform="translate(-9.000000, -765.000000)">
            <g id="Workflow-with-confeti" transform="translate(9.000000, 765.000000)">
                <g id="flow" transform="translate(52.000000, 63.000000)">
                    <g id="Page-1">
                        <path d="M64.2405696,30.08 L185.920639,30.08 C210.804035,30.08 230.967254,50.2863448 230.967254,75.2066207 C230.967254,100.126897 210.804035,120.32 185.920639,120.32 L64.2405696,120.32 C39.3571739,120.32 19.1939547,100.126897 19.1939547,75.2066207 C19.1939547,50.2863448 39.3571739,30.08 64.2405696,30.08 Z" id="Stroke-1" stroke="#333133" stroke-width="0.5" stroke-linecap="round" stroke-linejoin="round" stroke-dasharray="1.99,1.99"></path>
                        <path d="M7.03778338,134.785904 C7.03778338,136.693944 8.57743696,138.24 10.4746279,138.24 L37.5089394,138.24 C39.4074497,138.24 40.9471033,136.693944 40.9471033,134.785904 L40.9471033,77.0540964 C40.9471033,75.1460562 39.4074497,73.6 37.5089394,73.6 L10.4746279,73.6 C8.57743696,73.6 7.03778338,75.1460562 7.03778338,77.0540964 L7.03778338,134.785904 Z" id="Fill-3" fill="#FFFFFF"></path>
                        <path d="M7.03778338,134.785904 C7.03778338,136.693944 8.57743696,138.24 10.4746279,138.24 L37.5089394,138.24 C39.4074497,138.24 40.9471033,136.693944 40.9471033,134.785904 L40.9471033,77.0540964 C40.9471033,75.1460562 39.4074497,73.6 37.5089394,73.6 L10.4746279,73.6 C8.57743696,73.6 7.03778338,75.1460562 7.03778338,77.0540964 L7.03778338,134.785904 Z" id="Stroke-5" stroke="#333133" stroke-width="0.5"></path>
                        <mask id="mask-2" fill="white">
                            <use xlink:href="#path-1"></use>
                        </mask>
                        <g id="Clip-8"></g>
                        <polygon id="Fill-7" fill="#FFFFFF" mask="url(#mask-2)" points="10.2367758 106.88 37.1083123 106.88 37.1083123 77.44 10.2367758 77.44"></polygon>
                        <polygon id="Stroke-9" stroke="#262526" stroke-width="0.5" mask="url(#mask-2)" points="10.2367758 106.88 37.1083123 106.88 37.1083123 77.44 10.2367758 77.44"></polygon>
                        <path d="M10.2367758,112.64 C10.2367758,113.700797 11.0502073,114.56 12.0544924,114.56 L16.0953249,114.56 C17.09961,114.56 17.9143577,113.700797 17.9143577,112.64 C17.9143577,111.579203 17.09961,110.72 16.0953249,110.72 L12.0544924,110.72 C11.0502073,110.72 10.2367758,111.579203 10.2367758,112.64 C10.2367758,112.64 10.2367758,111.579203 10.2367758,112.64 Z" id="Stroke-10" stroke="#000000" stroke-width="0.5" mask="url(#mask-2)"></path>
                        <path d="M10.2367758,119.04 C10.2367758,120.100797 11.0502073,120.96 12.0544924,120.96 L16.0953249,120.96 C17.09961,120.96 17.9143577,120.100797 17.9143577,119.04 C17.9143577,117.979203 17.09961,117.12 16.0953249,117.12 L12.0544924,117.12 C11.0502073,117.12 10.2367758,117.979203 10.2367758,119.04 C10.2367758,119.04 10.2367758,117.979203 10.2367758,119.04 Z" id="Stroke-11" stroke="#000000" stroke-width="0.5" mask="url(#mask-2)"></path>
                        <path d="M10.2367758,125.44 C10.2367758,126.500797 11.0502073,127.36 12.0544924,127.36 L16.0953249,127.36 C17.09961,127.36 17.9143577,126.500797 17.9143577,125.44 C17.9143577,124.379203 17.09961,123.52 16.0953249,123.52 L12.0544924,123.52 C11.0502073,123.52 10.2367758,124.379203 10.2367758,125.44 C10.2367758,125.44 10.2367758,124.379203 10.2367758,125.44 Z" id="Stroke-12" stroke="#000000" stroke-width="0.5" mask="url(#mask-2)"></path>
                        <path d="M10.2367758,131.84 C10.2367758,132.900797 11.0502073,133.76 12.0544924,133.76 L16.0953249,133.76 C17.09961,133.76 17.9143577,132.900797 17.9143577,131.84 C17.9143577,130.779203 17.09961,129.92 16.0953249,129.92 L12.0544924,129.92 C11.0502073,129.92 10.2367758,130.779203 10.2367758,131.84 C10.2367758,131.84 10.2367758,130.779203 10.2367758,131.84 Z" id="Stroke-13" stroke="#000000" stroke-width="0.5" mask="url(#mask-2)"></path>
                        <path d="M20.4735516,112.64 C20.4735516,113.700797 21.2869831,114.56 22.2912682,114.56 L26.3321007,114.56 C27.3363858,114.56 28.1511335,113.700797 28.1511335,112.64 C28.1511335,111.579203 27.3363858,110.72 26.3321007,110.72 L22.2912682,110.72 C21.2869831,110.72 20.4735516,111.579203 20.4735516,112.64 C20.4735516,112.64 20.4735516,111.579203 20.4735516,112.64 Z" id="Stroke-14" stroke="#000000" stroke-width="0.5" mask="url(#mask-2)"></path>
                        <path d="M20.4735516,119.04 C20.4735516,120.100797 21.2869831,120.96 22.2912682,120.96 L26.3321007,120.96 C27.3363858,120.96 28.1511335,120.100797 28.1511335,119.04 C28.1511335,117.979203 27.3363858,117.12 26.3321007,117.12 L22.2912682,117.12 C21.2869831,117.12 20.4735516,117.979203 20.4735516,119.04 C20.4735516,119.04 20.4735516,117.979203 20.4735516,119.04 Z" id="Stroke-15" stroke="#000000" stroke-width="0.5" mask="url(#mask-2)"></path>
                        <path d="M20.4735516,125.44 C20.4735516,126.500797 21.2869831,127.36 22.2912682,127.36 L26.3321007,127.36 C27.3363858,127.36 28.1511335,126.500797 28.1511335,125.44 C28.1511335,124.379203 27.3363858,123.52 26.3321007,123.52 L22.2912682,123.52 C21.2869831,123.52 20.4735516,124.379203 20.4735516,125.44 C20.4735516,125.44 20.4735516,124.379203 20.4735516,125.44 Z" id="Stroke-16" stroke="#000000" stroke-width="0.5" mask="url(#mask-2)"></path>
                        <path d="M20.4735516,131.84 C20.4735516,132.900797 21.2869831,133.76 22.2912682,133.76 L26.3321007,133.76 C27.3363858,133.76 28.1511335,132.900797 28.1511335,131.84 C28.1511335,130.779203 27.3363858,129.92 26.3321007,129.92 L22.2912682,129.92 C21.2869831,129.92 20.4735516,130.779203 20.4735516,131.84 C20.4735516,131.84 20.4735516,130.779203 20.4735516,131.84 Z" id="Stroke-17" stroke="#000000" stroke-width="0.5" mask="url(#mask-2)"></path>
                        <path d="M30.070529,112.64 C30.070529,113.700797 30.8839604,114.56 31.8882455,114.56 L35.9290781,114.56 C36.9333632,114.56 37.7481108,113.700797 37.7481108,112.64 C37.7481108,111.579203 36.9333632,110.72 35.9290781,110.72 L31.8882455,110.72 C30.8839604,110.72 30.070529,111.579203 30.070529,112.64 C30.070529,112.64 30.070529,111.579203 30.070529,112.64 Z" id="Stroke-18" stroke="#000000" stroke-width="0.5" mask="url(#mask-2)"></path>
                        <path d="M30.070529,119.04 C30.070529,120.100797 30.8839604,120.96 31.8882455,120.96 L35.9290781,120.96 C36.9333632,120.96 37.7481108,120.100797 37.7481108,119.04 C37.7481108,117.979203 36.9333632,117.12 35.9290781,117.12 L31.8882455,117.12 C30.8839604,117.12 30.070529,117.979203 30.070529,119.04 C30.070529,119.04 30.070529,117.979203 30.070529,119.04 Z" id="Stroke-19" stroke="#000000" stroke-width="0.5" mask="url(#mask-2)"></path>
                        <path d="M30.070529,125.44 C30.070529,126.500797 30.8839604,127.36 31.8882455,127.36 L35.9290781,127.36 C36.9333632,127.36 37.7481108,126.500797 37.7481108,125.44 C37.7481108,124.379203 36.9333632,123.52 35.9290781,123.52 L31.8882455,123.52 C30.8839604,123.52 30.070529,124.379203 30.070529,125.44 C30.070529,125.44 30.070529,124.379203 30.070529,125.44 Z" id="Stroke-20" stroke="#000000" stroke-width="0.5" mask="url(#mask-2)"></path>
                        <path d="M30.070529,131.84 C30.070529,132.900797 30.8839604,133.76 31.8882455,133.76 L35.9290781,133.76 C36.9333632,133.76 37.7481108,132.900797 37.7481108,131.84 C37.7481108,130.779203 36.9333632,129.92 35.9290781,129.92 L31.8882455,129.92 C30.8839604,129.92 30.070529,130.779203 30.070529,131.84 C30.070529,131.84 30.070529,130.779203 30.070529,131.84 Z" id="Stroke-21" stroke="#000000" stroke-width="0.5" mask="url(#mask-2)"></path>
                        <path d="M19.8337531,75.74784 C19.8337531,75.87328 19.9389124,75.97568 20.0677325,75.97568 L26.6375572,75.97568 C26.7676918,75.97568 26.8715365,75.87328 26.8715365,75.74784 C26.8715365,75.6224 26.7676918,75.52 26.6375572,75.52 L20.0677325,75.52 C19.9389124,75.52 19.8337531,75.6224 19.8337531,75.74784 C19.8337531,75.74784 19.8337531,75.6224 19.8337531,75.74784" id="Fill-22" fill="#000000" mask="url(#mask-2)"></path>
                        <path d="M29.378267,75.8144 C29.378267,75.97696 29.2464685,76.1088 29.0839597,76.1088 C28.9227305,76.1088 28.790932,75.97696 28.790932,75.8144 C28.790932,75.65184 28.9227305,75.52 29.0839597,75.52 C29.2464685,75.52 29.378267,75.65184 29.378267,75.8144" id="Fill-23" fill="#000000" mask="url(#mask-2)"></path>
                        <path d="M202.816121,136.980436 C202.816121,139.443476 204.830979,141.44 207.316635,141.44 L241.821904,141.44 C244.30756,141.44 246.322418,139.443476 246.322418,136.980436 L246.322418,61.4195635 C246.322418,58.9565245 244.30756,56.96 241.821904,56.96 L207.316635,56.96 C204.830979,56.96 202.816121,58.9565245 202.816121,61.4195635 L202.816121,136.980436 Z" id="Fill-24" fill="#FFFFFF" mask="url(#mask-2)"></path>
                        <path d="M202.816121,136.980436 C202.816121,139.443476 204.830979,141.44 207.316635,141.44 L241.821904,141.44 C244.30756,141.44 246.322418,139.443476 246.322418,136.980436 L246.322418,61.4195635 C246.322418,58.9565245 244.30756,56.96 241.821904,56.96 L207.316635,56.96 C204.830979,56.96 202.816121,58.9565245 202.816121,61.4195635 L202.816121,136.980436 Z" id="Stroke-25" stroke="#333133" stroke-width="0.5" mask="url(#mask-2)"></path>
                        <polygon id="Fill-26" fill="#FDFDFF" mask="url(#mask-2)" points="204.735516 133.76 243.763224 133.76 243.763224 65.92 204.735516 65.92"></polygon>
                        <polygon id="Stroke-27" stroke="#262526" stroke-width="0.5" mask="url(#mask-2)" points="204.735516 133.76 243.763224 133.76 243.763224 65.92 204.735516 65.92"></polygon>
                        <path d="M218.171285,137.376 C218.171285,137.6064 218.359745,137.792 218.590803,137.792 L230.547736,137.792 C230.778794,137.792 230.967254,137.6064 230.967254,137.376 C230.967254,137.1456 230.778794,136.96 230.547736,136.96 L218.590803,136.96 C218.359745,136.96 218.171285,137.1456 218.171285,137.376 C218.171285,137.376 218.171285,137.1456 218.171285,137.376" id="Fill-28" fill="#000000" mask="url(#mask-2)"></path>
                        <path d="M216.251889,61.44 C216.251889,61.7927469 215.965875,62.08 215.612091,62.08 C215.259455,62.08 214.972292,61.7927469 214.972292,61.44 C214.972292,61.0872531 215.259455,60.8 215.612091,60.8 C215.965875,60.8 216.251889,61.0872531 216.251889,61.44" id="Fill-29" fill="#000000" mask="url(#mask-2)"></path>
                        <path d="M221.370277,61.2992 C221.370277,61.5744 221.605682,61.7984 221.897908,61.7984 L234.919566,61.7984 C235.210439,61.7984 235.445844,61.5744 235.445844,61.2992 C235.445844,61.024 235.210439,60.8 234.919566,60.8 L221.897908,60.8 C221.605682,60.8 221.370277,61.024 221.370277,61.2992 C221.370277,61.2992 221.370277,61.024 221.370277,61.2992" id="Fill-30" fill="#000000" mask="url(#mask-2)"></path>
                        <path d="M211.7733,103.04 C211.7733,105.160461 213.533467,106.88 215.70403,106.88 L250.06927,106.88 C252.241165,106.88 254,105.160461 254,103.04 C254,100.919539 252.241165,99.2 250.06927,99.2 L215.70403,99.2 C213.533467,99.2 211.7733,100.919539 211.7733,103.04 C211.7733,103.04 211.7733,100.919539 211.7733,103.04" id="Fill-31" stroke="#E26888" fill="#F77395" mask="url(#mask-2)"></path>
                        <path d="M193.858942,114.56 C193.858942,116.680461 195.61911,118.4 197.789672,118.4 L232.154912,118.4 C234.325475,118.4 236.085642,116.680461 236.085642,114.56 C236.085642,112.439539 234.325475,110.72 232.154912,110.72 L197.789672,110.72 C195.61911,110.72 193.858942,112.439539 193.858942,114.56 C193.858942,114.56 193.858942,112.439539 193.858942,114.56" id="Fill-32" stroke="#2CC192" fill="#28D09B" mask="url(#mask-2)"></path>
                        <path d="M221.370846,81.325236 C221.370846,81.236916 221.369566,81.300916 221.370846,81.325236" id="Fill-34" fill="#333133" mask="url(#mask-2)"></path>
                        <path d="M229.687657,82.0002292 C229.688937,81.9759092 229.687657,81.8325492 229.687657,82.0002292" id="Fill-35" fill="#333133" mask="url(#mask-2)"></path>
                        <g id="Group" mask="url(#mask-2)" fill="#333133">
                            <g transform="translate(214.332494, 71.040000)">
                                <path d="M4.15869018,5.12 C5.3952165,5.12 6.39798489,3.97347009 6.39798489,2.56062515 C6.39798489,1.14652991 6.06859871,0 4.15869018,0 C2.24878164,0 1.91939547,1.14652991 1.91939547,2.56062515 C1.91939547,3.97347009 2.92216386,5.12 4.15869018,5.12" id="Fill-33"></path>
                                <path d="M8.31215587,9.15479612 C8.27166611,6.40062136 7.93599294,5.61631068 5.36424012,5.12 C5.36424012,5.12 5.00244453,5.61351456 4.15869018,5.61351456 C3.31493583,5.61351456 2.95314023,5.12 2.95314023,5.12 C0.410122084,5.61071845 0.0535509727,6.38384466 0.00653060643,9.06532039 C0.00261224257,9.28481553 0.00130612129,9.296 0,9.27083495 C0,9.31836893 0.00130612129,9.4064466 0.00130612129,9.56023301 C0.00130612129,9.56023301 0.612570883,10.88 4.15869018,10.88 C7.70480947,10.88 8.31607423,9.56023301 8.31607423,9.56023301 C8.31607423,9.46097087 8.31607423,9.39246602 8.31738035,9.3463301 C8.31607423,9.36170874 8.31476811,9.33095146 8.31215587,9.15479612" id="Fill-36"></path>
                            </g>
                        </g>
                        <g id="Group-Copy" mask="url(#mask-2)" fill="#333133">
                            <g transform="translate(222.649874, 75.520000)">
                                <path d="M2.8790932,3.84 C3.76232628,3.84 4.47858942,2.98010256 4.47858942,1.92046886 C4.47858942,0.859897436 4.24331358,0 2.8790932,0 C1.51487282,0 1.27959698,0.859897436 1.27959698,1.92046886 C1.27959698,2.98010256 1.99586011,3.84 2.8790932,3.84" id="Fill-33"></path>
                                <path d="M5.75456945,6.52986408 C5.72653807,4.69374757 5.49414896,4.17087379 3.7137047,3.84 C3.7137047,3.84 3.46323083,4.16900971 2.8790932,4.16900971 C2.29495557,4.16900971 2.0444817,3.84 2.0444817,3.84 C0.283930674,4.16714563 0.0370737504,4.68256311 0.00452118907,6.47021359 C0.00180847563,6.61654369 0.000904237814,6.624 0,6.6072233 C0,6.63891262 0.000904237814,6.69763107 0.000904237814,6.80015534 C0.000904237814,6.80015534 0.424087535,7.68 2.8790932,7.68 C5.33409886,7.68 5.75728216,6.80015534 5.75728216,6.80015534 C5.75728216,6.73398058 5.75728216,6.68831068 5.7581864,6.6575534 C5.75728216,6.66780583 5.75637792,6.64730097 5.75456945,6.52986408" id="Fill-36"></path>
                            </g>
                        </g>
                        <g id="Group-Copy-2" mask="url(#mask-2)" fill="#333133">
                            <g transform="translate(228.408060, 73.600000)">
                                <path d="M3.19899244,4.48 C4.25887215,4.48 5.11838791,3.47678632 5.11838791,2.24054701 C5.11838791,1.00321368 4.8360569,0 3.19899244,0 C1.56192798,0 1.27959698,1.00321368 1.27959698,2.24054701 C1.27959698,3.47678632 2.13911274,4.48 3.19899244,4.48" id="Fill-33"></path>
                                <path d="M6.39396605,7.61817476 C6.36282008,5.47603883 6.10460995,4.86601942 4.12633856,4.48 C4.12633856,4.48 3.84803425,4.86384466 3.19899244,4.86384466 C2.54995063,4.86384466 2.27164633,4.48 2.27164633,4.48 C0.315478526,4.8616699 0.041193056,5.46299029 0.00502354341,7.54858252 C0.00200941736,7.71930097 0.00100470868,7.728 0,7.70842718 C0,7.74539806 0.00100470868,7.81390291 0.00100470868,7.93351456 C0.00100470868,7.93351456 0.471208372,8.96 3.19899244,8.96 C5.92677651,8.96 6.39698018,7.93351456 6.39698018,7.93351456 C6.39698018,7.85631068 6.39698018,7.80302913 6.39798489,7.76714563 C6.39698018,7.7791068 6.39597547,7.75518447 6.39396605,7.61817476" id="Fill-36"></path>
                            </g>
                        </g>
                        <path d="M0,88.64 C0,90.9376824 1.78714301,92.8 3.99207683,92.8 L27.3580491,92.8 C29.5629829,92.8 31.3501259,90.9376824 31.3501259,88.64 C31.3501259,86.3423176 29.5629829,84.48 27.3580491,84.48 L3.99207683,84.48 C1.78714301,84.48 0,86.3423176 0,88.64 C0,88.64 0,86.3423176 0,88.64" id="Fill-37" stroke="#5FBC97" stroke-width="0.5" fill="#69CBA4" mask="url(#mask-2)"></path>
                        <path d="M3.83879093,86.98496 C3.83879093,87.3088 4.10639748,87.56992 4.43535772,87.56992 L24.9953728,87.56992 C25.324333,87.56992 25.5919395,87.3088 25.5919395,86.98496 C25.5919395,86.66112 25.324333,86.4 24.9953728,86.4 L4.43535772,86.4 C4.10639748,86.4 3.83879093,86.66112 3.83879093,86.98496 C3.83879093,86.98496 3.83879093,86.66112 3.83879093,86.98496" id="Fill-38" fill="#FFFFFF" mask="url(#mask-2)"></path>
                        <path d="M4.47858942,89.54496 C4.47858942,89.8688 4.74295956,90.12992 5.06794138,90.12992 L14.7645222,90.12992 C15.0907936,90.12992 15.3551637,89.8688 15.3551637,89.54496 C15.3551637,89.22112 15.0907936,88.96 14.7645222,88.96 L5.06794138,88.96 C4.74295956,88.96 4.47858942,89.22112 4.47858942,89.54496 C4.47858942,89.54496 4.47858942,89.22112 4.47858942,89.54496" id="Fill-39" fill="#FFFFFF" mask="url(#mask-2)"></path>
                        <path d="M215.612091,101.6896 C215.612091,102.00448 215.874782,102.2592 216.199516,102.2592 L240.616605,102.2592 C240.941339,102.2592 241.20403,102.00448 241.20403,101.6896 C241.20403,101.37472 240.941339,101.12 240.616605,101.12 L216.199516,101.12 C215.874782,101.12 215.612091,101.37472 215.612091,101.6896 C215.612091,101.6896 215.612091,101.37472 215.612091,101.6896" id="Fill-40" fill="#FFFFFF" mask="url(#mask-2)"></path>
                        <path d="M218.811083,103.6096 C218.811083,103.92448 219.074557,104.1792 219.400258,104.1792 L229.097158,104.1792 C229.42286,104.1792 229.687657,103.92448 229.687657,103.6096 C229.687657,103.29472 229.42286,103.04 229.097158,103.04 L219.400258,103.04 C219.074557,103.04 218.811083,103.29472 218.811083,103.6096 C218.811083,103.6096 218.811083,103.29472 218.811083,103.6096" id="Fill-41" fill="#FFFFFF" mask="url(#mask-2)"></path>
                        <path d="M197.057935,113.8496 C197.057935,114.16448 197.318605,114.4192 197.640842,114.4192 L224.626161,114.4192 C224.948397,114.4192 225.209068,114.16448 225.209068,113.8496 C225.209068,113.53472 224.948397,113.28 224.626161,113.28 L197.640842,113.28 C197.318605,113.28 197.057935,113.53472 197.057935,113.8496 C197.057935,113.8496 197.057935,113.53472 197.057935,113.8496" id="Fill-42" fill="#FFFFFF" mask="url(#mask-2)"></path>
                        <path d="M199.617128,115.7696 C199.617128,116.08448 199.877153,116.3392 200.198591,116.3392 L218.869419,116.3392 C219.190857,116.3392 219.450882,116.08448 219.450882,115.7696 C219.450882,115.45472 219.190857,115.2 218.869419,115.2 L200.198591,115.2 C199.877153,115.2 199.617128,115.45472 199.617128,115.7696 C199.617128,115.7696 199.617128,115.45472 199.617128,115.7696" id="Fill-43" fill="#FFFFFF" mask="url(#mask-2)"></path>
                        <path d="M196.418136,92.8 C196.418136,94.920461 198.178304,96.64 200.348866,96.64 L234.714106,96.64 C236.884669,96.64 238.644836,94.920461 238.644836,92.8 C238.644836,90.679539 236.884669,88.96 234.714106,88.96 L200.348866,88.96 C198.178304,88.96 196.418136,90.679539 196.418136,92.8 C196.418136,92.8 196.418136,90.679539 196.418136,92.8" id="Fill-44" fill="#FFFFFF" mask="url(#mask-2)"></path>
                        <path d="M196.418136,92.8 C196.418136,94.920461 198.178304,96.64 200.348866,96.64 L234.714106,96.64 C236.884669,96.64 238.644836,94.920461 238.644836,92.8 C238.644836,90.679539 236.884669,88.96 234.714106,88.96 L200.348866,88.96 C198.178304,88.96 196.418136,90.679539 196.418136,92.8 C196.418136,92.8 196.418136,90.679539 196.418136,92.8 Z" id="Stroke-45" stroke="#DDA769" stroke-width="0.5" fill="#F5BC7B" mask="url(#mask-2)"></path>
                        <path d="M200.256927,92.0896 C200.256927,92.40448 200.523631,92.6592 200.853326,92.6592 L221.413677,92.6592 C221.743371,92.6592 222.010076,92.40448 222.010076,92.0896 C222.010076,91.77472 221.743371,91.52 221.413677,91.52 L200.853326,91.52 C200.523631,91.52 200.256927,91.77472 200.256927,92.0896 C200.256927,92.0896 200.256927,91.77472 200.256927,92.0896" id="Fill-46" fill="#FFFFFF" mask="url(#mask-2)"></path>
                        <path d="M198.97733,94.0096 C198.97733,94.32448 199.240804,94.5792 199.566505,94.5792 L209.263405,94.5792 C209.589106,94.5792 209.853904,94.32448 209.853904,94.0096 C209.853904,93.69472 209.589106,93.44 209.263405,93.44 L199.566505,93.44 C199.240804,93.44 198.97733,93.69472 198.97733,94.0096 C198.97733,94.0096 198.97733,93.69472 198.97733,94.0096" id="Fill-47" fill="#FFFFFF" mask="url(#mask-2)"></path>
                        <path d="M16.6347607,98.88 C16.6347607,101.177682 18.433321,103.04 20.6523412,103.04 L43.9673062,103.04 C46.1863264,103.04 47.9848866,101.177682 47.9848866,98.88 C47.9848866,96.5823176 46.1863264,94.72 43.9673062,94.72 L20.6523412,94.72 C18.433321,94.72 16.6347607,96.5823176 16.6347607,98.88 C16.6347607,98.88 16.6347607,96.5823176 16.6347607,98.88" id="Fill-48" fill="#FFFFFF" mask="url(#mask-2)"></path>
                        <path d="M16.6347607,98.88 C16.6347607,101.177682 18.433321,103.04 20.6523412,103.04 L43.9673062,103.04 C46.1863264,103.04 47.9848866,101.177682 47.9848866,98.88 C47.9848866,96.5823176 46.1863264,94.72 43.9673062,94.72 L20.6523412,94.72 C18.433321,94.72 16.6347607,96.5823176 16.6347607,98.88 C16.6347607,98.88 16.6347607,96.5823176 16.6347607,98.88 Z" id="Stroke-49" stroke="#74C3E2" stroke-width="0.5" fill="#96E1FF" mask="url(#mask-2)"></path>
                        <path d="M20.4735516,97.86496 C20.4735516,98.1888 20.7411582,98.44992 21.0701184,98.44992 L41.6301335,98.44992 C41.9590937,98.44992 42.2267003,98.1888 42.2267003,97.86496 C42.2267003,97.54112 41.9590937,97.28 41.6301335,97.28 L21.0701184,97.28 C20.7411582,97.28 20.4735516,97.54112 20.4735516,97.86496 C20.4735516,97.86496 20.4735516,97.54112 20.4735516,97.86496" id="Fill-50" fill="#FFFFFF" mask="url(#mask-2)"></path>
                        <path d="M20.4735516,99.78496 C20.4735516,100.1088 20.7379218,100.36992 21.0629036,100.36992 L30.7594844,100.36992 C31.0857558,100.36992 31.3501259,100.1088 31.3501259,99.78496 C31.3501259,99.46112 31.0857558,99.2 30.7594844,99.2 L21.0629036,99.2 C20.7379218,99.2 20.4735516,99.46112 20.4735516,99.78496 C20.4735516,99.78496 20.4735516,99.46112 20.4735516,99.78496" id="Fill-51" fill="#FFFFFF" mask="url(#mask-2)"></path>
                        <path d="M183.402296,1.28 L64.1997189,1.28 C59.8342932,1.28 56.302267,4.81516478 56.302267,9.18446957 L56.302267,83.462651 C56.302267,87.8187154 59.8342932,91.3538802 64.1997189,91.3538802 L115.605913,91.3538802 C115.698513,95.683464 115.605913,103.640895 113.820057,106.937734 C113.820057,106.937734 108.528632,109.903565 108.105318,111.36 L139.483468,111.36 C139.073383,109.903565 133.781958,106.937734 133.781958,106.937734 C131.996102,103.640895 131.903502,95.683464 131.996102,91.3538802 L183.402296,91.3538802 C187.767722,91.3538802 191.299748,87.8187154 191.299748,83.462651 L191.299748,9.18446957 C191.299748,4.81516478 187.767722,1.28 183.402296,1.28" id="Fill-52" fill="#FFFFFF" mask="url(#mask-2)"></path>
                        <path d="M183.402296,1.28 L64.1997189,1.28 C59.8342932,1.28 56.302267,4.81516478 56.302267,9.18446957 L56.302267,83.462651 C56.302267,87.8187154 59.8342932,91.3538802 64.1997189,91.3538802 L115.605913,91.3538802 C115.698513,95.683464 115.605913,103.640895 113.820057,106.937734 C113.820057,106.937734 108.528632,109.903565 108.105318,111.36 L139.483468,111.36 C139.073383,109.903565 133.781958,106.937734 133.781958,106.937734 C131.996102,103.640895 131.903502,95.683464 131.996102,91.3538802 L183.402296,91.3538802 C187.767722,91.3538802 191.299748,87.8187154 191.299748,83.462651 L191.299748,9.18446957 C191.299748,4.81516478 187.767722,1.28 183.402296,1.28 Z" id="Stroke-53" stroke="#3F3F3F" stroke-width="0.5" mask="url(#mask-2)"></path>
                        <path d="M186.18136,65.6921885 C186.18136,70.0574066 182.652489,73.6 178.304178,73.6 L68.6712549,73.6 C64.3097281,73.6 60.7808564,70.0574066 60.7808564,65.6921885 L60.7808564,13.6678115 C60.7808564,9.30259339 64.3097281,5.76 68.6712549,5.76 L178.304178,5.76 C182.652489,5.76 186.18136,9.30259339 186.18136,13.6678115 L186.18136,65.6921885 Z" id="Fill-54" fill="#F4F4FC" mask="url(#mask-2)"></path>
                        <path d="M186.18136,65.6921885 C186.18136,70.0574066 182.652489,73.6 178.304178,73.6 L68.6712549,73.6 C64.3097281,73.6 60.7808564,70.0574066 60.7808564,65.6921885 L60.7808564,13.6678115 C60.7808564,9.30259339 64.3097281,5.76 68.6712549,5.76 L178.304178,5.76 C182.652489,5.76 186.18136,9.30259339 186.18136,13.6678115 L186.18136,65.6921885 Z" id="Stroke-55" stroke="#3F3F3F" stroke-width="0.5" mask="url(#mask-2)"></path>
                        <path d="M161.229219,44.3923143 C161.229219,45.3246352 161.992394,46.08 162.934354,46.08 L181.277233,46.08 C182.219193,46.08 182.982368,45.3246352 182.982368,44.3923143 L182.982368,15.7690063 C182.982368,14.8353648 182.219193,14.08 181.277233,14.08 L162.934354,14.08 C161.992394,14.08 161.229219,14.8353648 161.229219,15.7690063 L161.229219,44.3923143 Z" id="Stroke-56" stroke="#262526" stroke-width="0.5" opacity="0.110224185" mask="url(#mask-2)"></path>
                        <path d="M162.508816,16.43136 C162.508816,16.66944 162.705737,16.86272 162.948303,16.86272 L178.064292,16.86272 C178.306857,16.86272 178.503778,16.66944 178.503778,16.43136 C178.503778,16.19328 178.306857,16 178.064292,16 L162.948303,16 C162.705737,16 162.508816,16.19328 162.508816,16.43136 C162.508816,16.43136 162.508816,16.19328 162.508816,16.43136" id="Fill-57" fill="#3F3F3F" mask="url(#mask-2)"></path>
                        <path d="M162.508816,18.35136 C162.508816,18.58944 162.711156,18.78272 162.960396,18.78272 L170.375956,18.78272 C170.625196,18.78272 170.826196,18.58944 170.826196,18.35136 C170.826196,18.11328 170.625196,17.92 170.375956,17.92 L162.960396,17.92 C162.711156,17.92 162.508816,18.11328 162.508816,18.35136 C162.508816,18.35136 162.508816,18.11328 162.508816,18.35136" id="Fill-58" fill="#3F3F3F" mask="url(#mask-2)"></path>
                        <path d="M162.508816,20.27136 C162.508816,20.50944 162.705737,20.70272 162.948303,20.70272 L178.064292,20.70272 C178.306857,20.70272 178.503778,20.50944 178.503778,20.27136 C178.503778,20.03328 178.306857,19.84 178.064292,19.84 L162.948303,19.84 C162.705737,19.84 162.508816,20.03328 162.508816,20.27136 C162.508816,20.27136 162.508816,20.03328 162.508816,20.27136" id="Fill-59" fill="#3F3F3F" mask="url(#mask-2)"></path>
                        <path d="M162.508816,22.19136 C162.508816,22.42944 162.705898,22.62272 162.948661,22.62272 L174.864941,22.62272 C175.107704,22.62272 175.304786,22.42944 175.304786,22.19136 C175.304786,21.95328 175.107704,21.76 174.864941,21.76 L162.948661,21.76 C162.705898,21.76 162.508816,21.95328 162.508816,22.19136 C162.508816,22.19136 162.508816,21.95328 162.508816,22.19136" id="Fill-60" fill="#3F3F3F" mask="url(#mask-2)"></path>
                        <path d="M162.508816,24.11136 C162.508816,24.34944 162.715763,24.54272 162.970677,24.54272 L169.724537,24.54272 C169.979451,24.54272 170.186398,24.34944 170.186398,24.11136 C170.186398,23.87328 169.979451,23.68 169.724537,23.68 L162.970677,23.68 C162.715763,23.68 162.508816,23.87328 162.508816,24.11136 C162.508816,24.11136 162.508816,23.87328 162.508816,24.11136" id="Fill-61" fill="#3F3F3F" mask="url(#mask-2)"></path>
                        <path d="M179.143577,34.24 C179.143577,38.6585137 175.563218,42.24 171.146096,42.24 C166.728973,42.24 163.148615,38.6585137 163.148615,34.24 C163.148615,29.8214863 166.728973,26.24 171.146096,26.24 C175.563218,26.24 179.143577,29.8214863 179.143577,34.24" id="Fill-62" fill="#F93C88" mask="url(#mask-2)"></path>
                        <path d="M64.6196474,64.2352171 C64.6196474,65.1659344 65.3767756,65.92 66.3112731,65.92 L87.8801627,65.92 C88.8146602,65.92 89.5717884,65.1659344 89.5717884,64.2352171 L89.5717884,16.4047829 C89.5717884,15.4740656 88.8146602,14.72 87.8801627,14.72 L66.3112731,14.72 C65.3767756,14.72 64.6196474,15.4740656 64.6196474,16.4047829 L64.6196474,64.2352171 Z" id="Stroke-63" stroke="#D5D5D5" stroke-width="0.5" mask="url(#mask-2)"></path>
                        <path d="M67.1788413,18.35136 C67.1788413,18.58944 67.3757626,18.78272 67.6183278,18.78272 L82.734317,18.78272 C82.9768823,18.78272 83.1738035,18.58944 83.1738035,18.35136 C83.1738035,18.11328 82.9768823,17.92 82.734317,17.92 L67.6183278,17.92 C67.3757626,17.92 67.1788413,18.11328 67.1788413,18.35136 C67.1788413,18.35136 67.1788413,18.11328 67.1788413,18.35136" id="Fill-64" fill="#B2B2B2" mask="url(#mask-2)"></path>
                        <path d="M67.1788413,20.27136 C67.1788413,20.50944 67.3811813,20.70272 67.6304213,20.70272 L75.0459816,20.70272 C75.2952217,20.70272 75.4962217,20.50944 75.4962217,20.27136 C75.4962217,20.03328 75.2952217,19.84 75.0459816,19.84 L67.6304213,19.84 C67.3811813,19.84 67.1788413,20.03328 67.1788413,20.27136 C67.1788413,20.27136 67.1788413,20.03328 67.1788413,20.27136" id="Fill-65" fill="#B2B2B2" mask="url(#mask-2)"></path>
                        <path d="M67.1788413,38.83136 C67.1788413,39.06944 67.3757626,39.26272 67.6183278,39.26272 L82.734317,39.26272 C82.9768823,39.26272 83.1738035,39.06944 83.1738035,38.83136 C83.1738035,38.59328 82.9768823,38.4 82.734317,38.4 L67.6183278,38.4 C67.3757626,38.4 67.1788413,38.59328 67.1788413,38.83136 C67.1788413,38.83136 67.1788413,38.59328 67.1788413,38.83136" id="Fill-66" fill="#E8E8E8" mask="url(#mask-2)"></path>
                        <path d="M67.1788413,40.75136 C67.1788413,40.98944 67.3759233,41.18272 67.6186865,41.18272 L79.5349659,41.18272 C79.7777291,41.18272 79.9748111,40.98944 79.9748111,40.75136 C79.9748111,40.51328 79.7777291,40.32 79.5349659,40.32 L67.6186865,40.32 C67.3759233,40.32 67.1788413,40.51328 67.1788413,40.75136 C67.1788413,40.75136 67.1788413,40.51328 67.1788413,40.75136" id="Fill-67" fill="#E8E8E8" mask="url(#mask-2)"></path>
                        <path d="M67.8186398,42.67136 C67.8186398,42.90944 68.0255864,43.10272 68.2805008,43.10272 L75.0343607,43.10272 C75.2892751,43.10272 75.4962217,42.90944 75.4962217,42.67136 C75.4962217,42.43328 75.2892751,42.24 75.0343607,42.24 L68.2805008,42.24 C68.0255864,42.24 67.8186398,42.43328 67.8186398,42.67136 C67.8186398,42.67136 67.8186398,42.43328 67.8186398,42.67136" id="Fill-68" fill="#E8E8E8" mask="url(#mask-2)"></path>
                        <path d="M68.4584383,46.4562693 C68.4584383,47.3090657 69.2144522,48 70.1475743,48 L75.7264811,48 C76.6596032,48 77.4156171,47.3090657 77.4156171,46.4562693 L77.4156171,45.7037307 C77.4156171,44.8509343 76.6596032,44.16 75.7264811,44.16 L70.1475743,44.16 C69.2144522,44.16 68.4584383,44.8509343 68.4584383,45.7037307 L68.4584383,46.4562693 Z" id="Fill-69" fill="#88C1AA" mask="url(#mask-2)"></path>
                        <path d="M67.8186398,34.8234167 C67.8186398,35.7385558 68.5779027,36.48 69.515035,36.48 L71.8791037,36.48 C72.8162359,36.48 73.5768262,35.7385558 73.5768262,34.8234167 L73.5768262,23.4178795 C73.5768262,22.5014442 72.8162359,21.76 71.8791037,21.76 L69.515035,21.76 C68.5779027,21.76 67.8186398,22.5014442 67.8186398,23.4178795 L67.8186398,34.8234167 Z" id="Fill-70" fill="#45D560" mask="url(#mask-2)"></path>
                        <path d="M74.2166247,34.8097103 C74.2166247,35.7324212 74.9758876,36.48 75.9130198,36.48 L78.2770885,36.48 C79.2142208,36.48 79.9748111,35.7324212 79.9748111,34.8097103 L79.9748111,27.9102897 C79.9748111,26.9875788 79.2142208,26.24 78.2770885,26.24 L75.9130198,26.24 C74.9758876,26.24 74.2166247,26.9875788 74.2166247,27.9102897 L74.2166247,34.8097103 Z" id="Fill-71" fill="#9DADEB" mask="url(#mask-2)"></path>
                        <path d="M81.2544081,35.388036 C81.2544081,36.3448174 82.013671,37.12 82.9508032,37.12 L85.3148719,37.12 C86.2520041,37.12 87.0125945,36.3448174 87.0125945,35.388036 L87.0125945,26.0533192 C87.0125945,25.0965379 86.2520041,24.32 85.3148719,24.32 L82.9508032,24.32 C82.013671,24.32 81.2544081,25.0965379 81.2544081,26.0533192 L81.2544081,35.388036 Z" id="Fill-72" fill="#FFC76A" mask="url(#mask-2)"></path>
                        <path d="M92.1309824,62.8017702 C92.1309824,64.8777448 93.8089039,66.56 95.8795305,66.56 L154.922799,66.56 C156.992104,66.56 158.670025,64.8777448 158.670025,62.8017702 L158.670025,17.8382298 C158.670025,15.7622552 156.992104,14.08 154.922799,14.08 L95.8795305,14.08 C93.8089039,14.08 92.1309824,15.7622552 92.1309824,17.8382298 L92.1309824,62.8017702 Z" id="Stroke-73" stroke="#B9B8B8" stroke-width="0.5" mask="url(#mask-2)"></path>
                        <path d="M97.8891688,21.05216 C97.8891688,21.36832 98.1529419,21.62432 98.4787018,21.62432 L142.725328,21.62432 C143.051088,21.62432 143.314861,21.36832 143.314861,21.05216 C143.314861,20.736 143.051088,20.48 142.725328,20.48 L98.4787018,20.48 C98.1529419,20.48 97.8891688,20.736 97.8891688,21.05216 C97.8891688,21.05216 97.8891688,20.736 97.8891688,21.05216" id="Fill-74" fill="#E1E1E1" mask="url(#mask-2)"></path>
                        <path d="M97.8891688,24.25216 C97.8891688,24.56832 98.1516936,24.82432 98.4759118,24.82432 L117.136179,24.82432 C117.460397,24.82432 117.722922,24.56832 117.722922,24.25216 C117.722922,23.936 117.460397,23.68 117.136179,23.68 L98.4759118,23.68 C98.1516936,23.68 97.8891688,23.936 97.8891688,24.25216 C97.8891688,24.25216 97.8891688,23.936 97.8891688,24.25216" id="Fill-75" fill="#E1E1E1" mask="url(#mask-2)"></path>
                        <path d="M97.8891688,27.45216 C97.8891688,27.76832 98.1557244,28.02432 98.4849206,28.02432 L123.525155,28.02432 C123.854351,28.02432 124.120907,27.76832 124.120907,27.45216 C124.120907,27.136 123.854351,26.88 123.525155,26.88 L98.4849206,26.88 C98.1557244,26.88 97.8891688,27.136 97.8891688,27.45216 C97.8891688,27.45216 97.8891688,27.136 97.8891688,27.45216" id="Fill-76" fill="#E1E1E1" mask="url(#mask-2)"></path>
                        <path d="M97.8891688,30.01216 C97.8891688,30.32832 98.1547937,30.58432 98.4828405,30.58432 L130.56369,30.58432 C130.891737,30.58432 131.15869,30.32832 131.15869,30.01216 C131.15869,29.696 130.891737,29.44 130.56369,29.44 L98.4828405,29.44 C98.1547937,29.44 97.8891688,29.696 97.8891688,30.01216 C97.8891688,30.01216 97.8891688,29.696 97.8891688,30.01216" id="Fill-77" fill="#E1E1E1" mask="url(#mask-2)"></path>
                        <path d="M97.8891688,33.21216 C97.8891688,33.52832 98.1547937,33.78432 98.4828405,33.78432 L130.56369,33.78432 C130.891737,33.78432 131.15869,33.52832 131.15869,33.21216 C131.15869,32.896 130.891737,32.64 130.56369,32.64 L98.4828405,32.64 C98.1547937,32.64 97.8891688,32.896 97.8891688,33.21216 C97.8891688,33.21216 97.8891688,32.896 97.8891688,33.21216" id="Fill-78" fill="#E1E1E1" mask="url(#mask-2)"></path>
                    </g>
                </g>
                <g id="Section-2-Dots-BG">
                    <circle id="Oval-4" fill="#E548A8" cx="357.5" cy="1.5" r="1.5"></circle>
                    <circle id="Oval-4-Copy-6" fill="#9AE934" cx="47.5" cy="24.5" r="3.5"></circle>
                    <circle id="Oval-4-Copy-5" fill="#FF1502" opacity="0.691123188" cx="311.5" cy="99.5" r="2.5"></circle>
                    <circle id="Oval-4-Copy-7" fill="#FF9E02" opacity="0.691123188" cx="337" cy="64" r="1"></circle>
                    <circle id="Oval-4-Copy-8" fill="#02CCFF" opacity="0.691123188" cx="1" cy="67" r="1"></circle>
                    <circle id="Oval-4-Copy" stroke="#FFB600" stroke-width="2" cx="63" cy="103" r="4"></circle>
                    <circle id="Oval-4-Copy-2" stroke="#368DDD" stroke-width="2" opacity="0.207540761" cx="301" cy="45" r="4"></circle>
                    <circle id="Oval-4-Copy-4" stroke="#E061E0" stroke-width="2" cx="147.5" cy="12.5" r="2.5"></circle>
                </g>
            </g>
        </g>
    </g>
</svg>