<?xml version="1.0" encoding="UTF-8"?>
<svg width="15px" height="15px" viewBox="0 0 15 15" version="1.1" xmlns="http://www.w3.org/2000/svg" xmlns:xlink="http://www.w3.org/1999/xlink">
    <!-- Generator: Sketch 46.2 (44496) - http://www.bohemiancoding.com/sketch -->
    <title>linkedin</title>
    <desc>Created with Sketch.</desc>
    <defs></defs>
    <g id="Symbols" stroke="none" stroke-width="1" fill="none" fill-rule="evenodd">
        <g id="Footer" transform="translate(-616.000000, -161.000000)" fill-rule="nonzero" fill="#3B3E59">
            <g id="Group-8" transform="translate(577.000000, 160.000000)">
                <g id="linkedin" transform="translate(39.000000, 1.000000)">
                    <path d="M13.6431283,0 L1.35687173,0 C0.6075,0 0,0.6075 0,1.35687173 L0,13.643089 C0,14.3925 0.6075,15 1.35687173,15 L13.643089,15 C14.3925,15 15,14.3925 15,13.643089 L15,1.35687173 C15,0.6075 14.3925,0 13.6431283,0 Z M4.64163613,12.9519895 C4.64163613,13.1700785 4.46485602,13.3468586 4.24676702,13.3468586 L2.56590314,13.3468586 C2.34781414,13.3468586 2.17103403,13.1700785 2.17103403,12.9519895 L2.17103403,5.90587696 C2.17103403,5.68778796 2.34781414,5.51100785 2.56590314,5.51100785 L4.24676702,5.51100785 C4.46485602,5.51100785 4.64163613,5.68778796 4.64163613,5.90587696 L4.64163613,12.9519895 Z M3.40633508,4.84680628 C2.52443717,4.84680628 1.80950262,4.13187173 1.80950262,3.24997382 C1.80950262,2.36807592 2.52443717,1.65314136 3.40633508,1.65314136 C4.28823298,1.65314136 5.00316754,2.36807592 5.00316754,3.24997382 C5.00316754,4.13187173 4.28827225,4.84680628 3.40633508,4.84680628 Z M13.4257853,12.9837958 C13.4257853,13.1842932 13.2632199,13.3468586 13.0627225,13.3468586 L11.2590314,13.3468586 C11.058534,13.3468586 10.8959686,13.1842932 10.8959686,12.9837958 L10.8959686,9.67876963 C10.8959686,9.18573298 11.040589,7.51825916 9.6075,7.51825916 C8.49589005,7.51825916 8.27041885,8.65959424 8.22514398,9.17179319 L8.22514398,12.9837958 C8.22514398,13.1842932 8.0626178,13.3468586 7.86208115,13.3468586 L6.11760471,13.3468586 C5.91710733,13.3468586 5.75454188,13.1842932 5.75454188,12.9837958 L5.75454188,5.87407068 C5.75454188,5.6735733 5.91710733,5.51100785 6.11760471,5.51100785 L7.86208115,5.51100785 C8.06257853,5.51100785 8.22514398,5.6735733 8.22514398,5.87407068 L8.22514398,6.48879581 C8.63732984,5.87022251 9.24989529,5.39277487 10.5541492,5.39277487 C13.4423168,5.39277487 13.4257853,8.09104712 13.4257853,9.57361257 L13.4257853,12.9837958 L13.4257853,12.9837958 Z" id="Shape"></path>
                </g>
            </g>
        </g>
    </g>
</svg>