<?xml version="1.0" encoding="UTF-8"?>
<svg width="202px" height="132px" viewBox="0 0 202 132" version="1.1" xmlns="http://www.w3.org/2000/svg" xmlns:xlink="http://www.w3.org/1999/xlink">
    <!-- Generator: Sketch 46.2 (44496) - http://www.bohemiancoding.com/sketch -->
    <title>Partners</title>
    <desc>Created with Sketch.</desc>
    <defs>
        <polygon id="path-1" points="0.4423 0.089 89.1083 0.089 89.1083 60.3725 0.4423 60.3725"></polygon>
        <polygon id="path-3" points="-1.35525272e-20 84.5355 -1.35525272e-20 132 201.29 132 201.29 0.089 -1.35525272e-20 0.089 -1.35525272e-20 84.5355 88.6569 84.5355 88.6569 24.2655 -0.0001 24.2655 -0.0001 84.5355"></polygon>
        <polygon id="path-5" points="89.0885 52 0.5085 52 0.5085 0.7011 89.0885 0.7011 89.0885 52"></polygon>
        <polygon id="path-7" points="0.4421 0.089 89.0221 0.089 89.0221 51.3876 0.4421 51.3876"></polygon>
        <polygon id="path-9" points="0.4421 0.089 89.0221 0.089 89.0221 51.3876 0.4421 51.3876"></polygon>
    </defs>
    <g id="Styled-Pages" stroke="none" stroke-width="1" fill="none" fill-rule="evenodd">
        <g id="Partners" transform="translate(-1027.000000, -138.000000)">
            <g transform="translate(1027.000000, 137.000000)">
                <path d="M130.9576,63.8389 C130.9566,63.8539 130.9546,63.8699 130.9526,63.8849 C130.9326,63.9959 130.9216,64.1049 130.9136,64.2129 C130.9126,64.2349 130.9096,64.2579 130.9066,64.2809 C130.9126,64.1349 130.9286,63.9879 130.9576,63.8389 L130.9576,63.8389 Z M131.0956,63.3499 C131.0876,63.3729 131.0826,63.3949 131.0756,63.4179 C131.0926,63.3659 131.1006,63.3139 131.1206,63.2619 C131.1106,63.2909 131.1056,63.3199 131.0956,63.3499 L131.0956,63.3499 Z M144.3036,56.6999 C144.2186,56.6999 144.1336,56.7009 144.0486,56.7009 L144.0486,56.7009 C144.1336,56.7009 144.2186,56.6999 144.3036,56.6999 L144.3036,56.6999 Z M147.0196,57.0409 L147.0196,57.0409 C146.9716,57.0279 146.9206,57.0179 146.8716,57.0049 C146.9206,57.0179 146.9716,57.0279 147.0196,57.0409 L147.0196,57.0409 Z M148.4376,57.6159 C148.2186,57.4899 147.9816,57.3779 147.7316,57.2779 C147.7316,57.2779 147.7316,57.2779 147.7316,57.2779 C147.9816,57.3779 148.2186,57.4899 148.4376,57.6159 L148.4376,57.6159 Z M189.9976,61.1379 C189.8706,61.1549 189.7446,61.1739 189.6126,61.1849 L189.6126,61.1849 C189.7446,61.1739 189.8696,61.1539 189.9976,61.1379 L189.9976,61.1379 Z M192.7196,60.3129 C192.5256,60.4249 192.3146,60.5249 192.0956,60.6159 L192.0956,60.6159 C192.3146,60.5249 192.5256,60.4249 192.7196,60.3129 L192.7196,60.3129 Z M193.5446,59.6709 C193.5026,59.7149 193.4656,59.7609 193.4196,59.8029 C193.4116,59.8099 193.4006,59.8149 193.3936,59.8219 C193.3666,59.8469 193.3336,59.8699 193.3046,59.8939 C193.3906,59.8219 193.4706,59.7479 193.5446,59.6709 L193.5446,59.6709 Z M194.2306,58.4429 C194.2246,58.4659 194.2216,58.4899 194.2156,58.5139 C194.2066,58.5489 194.1966,58.5849 194.1856,58.6199 C194.1826,58.6279 194.1796,58.6349 194.1766,58.6429 C194.1976,58.5769 194.2146,58.5099 194.2306,58.4429 L194.2306,58.4429 Z M201.2596,78.5139 L201.2746,73.2499 C201.2746,73.2499 193.6256,68.8339 193.6216,68.8319 C193.8286,68.9509 194.2846,67.5389 194.3036,67.3899 C194.3886,66.7309 194.3006,59.9139 194.3066,57.8709 C194.3056,57.9899 194.2946,58.1069 194.2766,58.2219 C194.5166,56.4929 192.9936,54.3499 189.9876,52.6149 C185.5586,50.0579 179.6086,49.3609 176.6886,51.0569 C175.6056,51.6869 175.0996,52.5599 175.1116,53.5379 C175.1106,53.5249 175.1086,53.5109 175.1086,53.4979 L175.1026,55.5539 L172.8706,56.8509 L154.3256,46.1439 L138.4166,55.3889 L138.4016,60.6529 L141.1636,62.2469 C141.2386,62.2339 141.3126,62.2259 141.3876,62.2129 C141.7536,62.1499 142.1166,62.0989 142.4766,62.0599 C142.6116,62.0449 142.7456,62.0339 142.8786,62.0219 L138.4316,64.6069 L141.1936,66.2009 C142.3826,65.9819 143.5446,65.8929 144.6256,65.9269 C140.3946,67.9689 135.1926,68.4269 132.5056,66.8749 C132.0146,66.5919 131.6436,66.2589 131.3806,65.8899 L131.3896,62.6729 C131.2946,62.8479 131.2176,63.0219 131.1496,63.1939 C131.1456,63.2039 131.1416,63.2129 131.1366,63.2229 C131.2066,63.0409 131.2896,62.8569 131.3896,62.6729 L128.6276,61.0779 L112.7186,70.3229 L112.7036,75.5869 L116.1316,77.5659 L112.7346,79.5409 L120.3916,83.9609 C119.9136,84.4819 119.6806,85.0879 119.6896,85.7449 C119.6886,85.7309 119.6866,85.7159 119.6866,85.7029 L119.6716,90.9659 C119.6696,91.6539 119.9336,92.3959 120.4376,93.1449 C118.7056,94.9719 120.1116,97.9189 124.0216,100.1759 C128.4506,102.7329 134.4006,103.4299 137.3206,101.7339 C139.0106,100.7509 139.3076,99.1799 138.3946,97.5339 L141.1386,95.9399 L159.6836,106.6469 L175.5926,97.4019 L175.5616,93.4479 L175.5766,88.1839 L172.8206,86.5929 C171.6286,86.8129 170.4626,86.9019 169.3786,86.8669 C173.6146,84.8219 178.8156,84.3639 181.5036,85.9159 C183.2116,86.9019 183.5196,88.4759 182.6246,90.1219 L185.3816,91.7129 L201.2896,82.4679 L201.2596,78.5139 Z" id="Fill-1" fill="#D0D2D3"></path>
                <g id="Group-5" transform="translate(41.000000, 0.911000)">
                    <mask id="mask-2" fill="white">
                        <use xlink:href="#path-1"></use>
                    </mask>
                    <g id="Clip-4"></g>
                    <path d="M83.2143,47.6555 C82.3093,47.1325 81.1143,46.8445 79.7703,46.7625 C80.0133,46.6365 80.2543,46.5085 80.4883,46.3715 C84.4543,44.0675 85.7913,41.0435 83.8673,39.2255 L89.1083,36.1795 L89.0063,32.4585 L89.0213,27.1945 L70.4763,16.4875 L67.7323,18.0825 C68.6453,19.7285 68.3493,21.2985 66.6583,22.2815 C63.8953,23.8865 58.4173,23.3495 54.0843,21.1225 C55.2843,21.0425 56.6063,21.1275 57.9603,21.3755 L60.7043,19.7805 L60.6023,16.0595 C60.6023,16.0595 50.3523,13.1865 50.6273,13.0265 C52.3183,12.0435 55.0353,11.8705 57.8733,12.3905 L60.6173,10.7955 L42.0723,0.0885 L26.1633,9.3335 L23.4073,7.7425 C24.2963,6.0935 23.9823,4.5225 22.2803,3.5395 C19.3413,1.8435 13.3983,2.5405 8.9993,5.0975 C4.5993,7.6545 3.4153,11.0985 6.3533,12.7955 C7.2603,13.3195 8.4613,13.6065 9.8103,13.6885 C9.5653,13.8145 8.2573,10.1695 8.0203,10.3075 C4.0543,12.6125 3.7773,19.4085 5.7013,21.2255 L0.4423,24.2815 L8.2413,28.7845 L0.5283,33.2665 L19.0743,43.9735 L21.8123,42.3825 C20.9113,40.7365 21.2013,39.1625 22.8923,38.1795 C25.6543,36.5745 31.1263,37.1135 35.4583,39.3415 C34.2603,39.4205 32.9403,39.3365 31.5843,39.0885 L28.8463,40.6805 L39.6283,46.9055 C39.4253,47.0945 39.1983,47.2745 38.9233,47.4345 C37.2323,48.4175 34.5213,48.5945 31.6713,48.0735 L28.9323,49.6655 L47.4783,60.3725 L63.4043,51.1165 L66.1663,52.7115 C65.2773,54.3535 65.5863,55.9285 67.2883,56.9105 C70.2263,58.6075 76.1753,57.9135 80.5753,55.3565 C84.9753,52.7995 86.1533,49.3525 83.2143,47.6555" id="Fill-3" fill="#D0D2D3" mask="url(#mask-2)"></path>
                </g>
                <g id="Group-8" transform="translate(0.000000, 0.911000)">
                    <mask id="mask-4" fill="white">
                        <use xlink:href="#path-3"></use>
                    </mask>
                    <g id="Clip-7"></g>
                    <path d="M18.2539,41.9605 C18.2529,41.9755 18.2509,41.9915 18.2489,42.0065 C18.2289,42.1175 18.2179,42.2265 18.2099,42.3345 C18.2089,42.3575 18.2059,42.3795 18.2019,42.4025 C18.2089,42.2575 18.2249,42.1095 18.2539,41.9605 L18.2539,41.9605 Z M18.4169,41.3835 C18.4069,41.4125 18.4019,41.4415 18.3909,41.4715 C18.3839,41.4945 18.3789,41.5165 18.3719,41.5395 C18.3879,41.4875 18.3969,41.4355 18.4169,41.3835 L18.4169,41.3835 Z M31.5939,34.8215 C31.5109,34.8215 31.4279,34.8225 31.3449,34.8235 L31.3439,34.8235 C31.4279,34.8225 31.5109,34.8215 31.5939,34.8215 L31.5939,34.8215 Z M34.3159,35.1625 L34.3159,35.1625 C34.2679,35.1495 34.2169,35.1395 34.1679,35.1265 C34.2169,35.1395 34.2679,35.1495 34.3159,35.1625 L34.3159,35.1625 Z M35.7339,35.7385 C35.5149,35.6115 35.2779,35.4995 35.0279,35.4005 L35.0279,35.4005 C35.2779,35.4995 35.5149,35.6115 35.7339,35.7385 L35.7339,35.7385 Z M77.1899,39.2725 C77.0959,39.2845 77.0049,39.2985 76.9089,39.3065 L76.9089,39.3065 C77.0049,39.2985 77.0959,39.2845 77.1899,39.2725 L77.1899,39.2725 Z M80.0159,38.4345 C79.8219,38.5465 79.6109,38.6465 79.3919,38.7375 C79.6109,38.6465 79.8219,38.5465 80.0159,38.4345 L80.0159,38.4345 Z M80.8409,37.7925 C80.7989,37.8365 80.7619,37.8825 80.7159,37.9245 C80.7079,37.9315 80.6969,37.9365 80.6899,37.9435 C80.6619,37.9685 80.6299,37.9915 80.6009,38.0155 C80.6869,37.9435 80.7669,37.8695 80.8409,37.7925 L80.8409,37.7925 Z M81.5269,36.5635 C81.5209,36.5875 81.5179,36.6115 81.5119,36.6355 C81.5029,36.6705 81.4929,36.7065 81.4819,36.7415 C81.4789,36.7495 81.4749,36.7565 81.4729,36.7645 C81.4939,36.6985 81.5109,36.6315 81.5269,36.5635 L81.5269,36.5635 Z M85.3939,58.4725 L88.5559,56.6355 L88.5709,51.3725 L80.8069,46.8895 C81.9319,45.8395 81.9509,44.3805 80.9819,42.8865 C80.9989,42.8655 81.0219,42.8465 81.0379,42.8255 C81.0819,42.7695 81.1149,42.7105 81.1539,42.6525 C81.1729,42.6235 81.1939,42.5945 81.2119,42.5655 C81.2289,42.5385 81.2509,42.5125 81.2659,42.4845 C81.3309,42.3715 81.3849,42.2545 81.4299,42.1345 C81.4459,42.0925 81.4529,42.0475 81.4669,42.0055 C81.4779,41.9695 81.4879,41.9345 81.4969,41.8985 C81.5099,41.8505 81.5279,41.8035 81.5379,41.7545 C81.5659,41.6145 81.5829,41.4705 81.5869,41.3245 C81.5869,41.3015 81.5879,41.2785 81.5879,41.2555 L81.6029,35.9925 C81.6019,36.1115 81.5909,36.2285 81.5729,36.3435 C81.8129,34.6145 80.2899,32.4715 77.2839,30.7365 C72.8549,28.1795 66.9049,27.4825 63.9849,29.1785 C62.9019,29.8085 62.3959,30.6815 62.4069,31.6605 C62.4069,31.6465 62.4039,31.6325 62.4039,31.6195 L62.3989,33.6755 L60.1669,34.9725 L41.6209,24.2655 L25.7129,33.5115 L25.6979,38.7745 L25.7989,42.4955 L28.5609,44.0905 C29.8859,43.8465 31.1799,43.7605 32.3619,43.8315 C28.0579,46.0585 22.5829,46.6025 19.8019,44.9965 C19.3109,44.7135 18.9399,44.3805 18.6769,44.0115 L18.6859,40.7945 C18.5909,40.9695 18.5139,41.1435 18.4459,41.3165 C18.4419,41.3255 18.4379,41.3345 18.4329,41.3445 C18.5029,41.1625 18.5859,40.9785 18.6859,40.7945 L15.9239,39.1995 L0.0149,48.4445 L-0.0001,53.7085 L0.1009,57.4295 L7.8559,61.9065 C7.2599,62.4635 6.9759,63.1355 6.9849,63.8665 C6.9849,63.8525 6.9829,63.8385 6.9829,63.8245 L6.9679,69.0875 C6.9659,69.7495 6.9239,72.8535 7.2499,73.8305 C7.7199,75.2405 9.1389,76.7675 11.3879,78.0655 C15.8169,80.6225 21.7669,81.3195 24.6869,79.6225 C26.3779,78.6405 26.6739,77.0695 25.7609,75.4235 L28.5049,73.8285 L47.0509,84.5355 L62.9589,75.2905 L62.8579,71.5695 L62.8729,66.3055 L60.1169,64.7145 C58.7879,64.9595 57.4909,65.0455 56.3059,64.9735 C60.6149,62.7435 66.0889,62.1995 68.8709,63.8045 C70.5789,64.7905 70.8869,66.3655 69.9919,68.0105 L72.7479,69.6025 L88.6569,60.3565 L85.3939,58.4725 Z" id="Fill-6" fill="#D0D2D3" mask="url(#mask-4)"></path>
                </g>
                <g id="Group-11" transform="translate(60.000000, 80.911000)">
                    <mask id="mask-6" fill="white">
                        <use xlink:href="#path-5"></use>
                    </mask>
                    <g id="Clip-10"></g>
                    <path d="M83.1945,39.2831 C81.4925,38.3001 78.7795,38.1241 75.9415,38.6471 L73.1795,37.0531 L89.0885,27.8071 L70.5425,17.1001 L67.7985,18.6951 C68.7115,20.3411 68.4155,21.9111 66.7245,22.8941 C63.8045,24.5911 57.8485,23.8971 53.4195,21.3401 C48.9915,18.7831 47.7745,15.3351 50.6945,13.6391 C52.3845,12.6561 55.1015,12.4831 57.9405,13.0031 L60.6845,11.4081 L42.1385,0.7011 L26.2295,9.9461 L23.4735,8.3551 C24.3625,6.7061 24.0485,5.1351 22.3465,4.1521 C19.4075,2.4561 13.4655,3.1531 9.0655,5.7101 C4.6655,8.2671 3.4815,11.7111 6.4205,13.4081 C8.1225,14.3901 10.8405,14.5641 13.6795,14.0471 L16.4355,15.6381 L0.5085,24.8941 L19.0545,35.6011 L21.7925,34.0101 C20.8915,32.3641 21.1815,30.7901 22.8725,29.8071 C25.7925,28.1101 31.7425,28.8071 36.1715,31.3641 C40.5995,33.9211 41.8225,37.3651 38.9035,39.0621 C37.2125,40.0451 34.5015,40.2221 31.6515,39.7011 L28.9125,41.2931 L47.4585,52.0001 L63.3845,42.7441 L66.1465,44.3391 C65.2575,45.9811 65.5665,47.5561 67.2685,48.5381 C70.2065,50.2351 76.1555,49.5411 80.5555,46.9841 C84.9555,44.4271 86.1335,40.9801 83.1945,39.2831" id="Fill-9" fill="#D0D2D3" mask="url(#mask-6)"></path>
                </g>
                <path d="M175.1081,53.4975 L175.0931,58.7605 C175.0921,59.3215 175.2621,59.9175 175.5941,60.5235 L175.6091,55.2595 C175.2771,54.6545 175.1061,54.0575 175.1081,53.4975" id="Fill-12" fill="#574583"></path>
                <polygon id="Fill-14" fill="#574583" points="138.4163 55.3893 138.4013 60.6523 141.1633 62.2473 141.1783 56.9843"></polygon>
                <path d="M148.4374,57.6164 C148.2184,57.4904 147.9814,57.3784 147.7314,57.2784 C147.7244,57.2754 147.7194,57.2724 147.7124,57.2694 C147.5104,57.1894 147.2984,57.1184 147.0774,57.0554 C147.0584,57.0494 147.0384,57.0464 147.0194,57.0414 C146.9714,57.0274 146.9204,57.0174 146.8714,57.0044 C146.7454,56.9724 146.6204,56.9384 146.4894,56.9114 C146.4114,56.8954 146.3284,56.8844 146.2484,56.8694 C146.1824,56.8574 146.1164,56.8454 146.0484,56.8354 C145.9954,56.8264 145.9454,56.8154 145.8924,56.8084 C145.6834,56.7784 145.4704,56.7544 145.2524,56.7364 C145.2494,56.7364 145.2454,56.7364 145.2414,56.7364 C145.2234,56.7344 145.2044,56.7344 145.1864,56.7334 C144.9724,56.7174 144.7564,56.7044 144.5354,56.6984 C144.4864,56.6974 144.4354,56.7004 144.3854,56.6994 C144.2744,56.6984 144.1614,56.7004 144.0484,56.7014 C143.9314,56.7024 143.8174,56.6994 143.6984,56.7034 C143.6284,56.7054 143.5554,56.7144 143.4844,56.7174 C143.3094,56.7264 143.1334,56.7384 142.9554,56.7534 C142.8554,56.7614 142.7584,56.7634 142.6574,56.7734 C142.6034,56.7784 142.5464,56.7904 142.4914,56.7964 C142.1314,56.8354 141.7684,56.8864 141.4024,56.9494 C141.3524,56.9584 141.3044,56.9614 141.2544,56.9704 C141.2294,56.9744 141.2034,56.9794 141.1784,56.9844 L141.1634,62.2474 C141.2384,62.2334 141.3124,62.2254 141.3874,62.2124 C141.7534,62.1494 142.1164,62.0994 142.4764,62.0604 C142.6324,62.0434 142.7864,62.0294 142.9404,62.0164 C143.1184,62.0024 143.2954,61.9894 143.4694,61.9814 C143.6594,61.9724 143.8474,61.9664 144.0324,61.9644 C144.1464,61.9634 144.2604,61.9614 144.3714,61.9634 C144.6414,61.9664 144.9074,61.9764 145.1664,61.9964 C145.1864,61.9984 145.2074,61.9984 145.2274,61.9994 C145.5044,62.0224 145.7724,62.0574 146.0334,62.0984 C146.1014,62.1094 146.1674,62.1214 146.2334,62.1334 C146.4474,62.1714 146.6544,62.2164 146.8554,62.2684 C146.9044,62.2804 146.9564,62.2914 147.0054,62.3044 C147.2534,62.3734 147.4914,62.4514 147.7164,62.5414 C147.9664,62.6414 148.2034,62.7534 148.4224,62.8794 C149.5164,63.5114 150.0384,64.3854 150.0354,65.3664 L150.0504,60.1024 C150.0534,59.1224 149.5314,58.2484 148.4374,57.6164" id="Fill-16" fill="#705B98"></path>
                <path d="M194.2158,58.5135 C194.2068,58.5495 194.1968,58.5845 194.1858,58.6195 C194.1248,58.8135 194.0408,59.0005 193.9308,59.1805 C193.9128,59.2095 193.8918,59.2385 193.8728,59.2675 C193.7468,59.4545 193.6008,59.6355 193.4188,59.8025 C193.4118,59.8095 193.4008,59.8155 193.3938,59.8215 C193.1998,59.9975 192.9778,60.1625 192.7198,60.3125 C192.5258,60.4255 192.3148,60.5245 192.0958,60.6165 C192.0268,60.6445 191.9528,60.6695 191.8818,60.6965 C191.7408,60.7485 191.5958,60.7975 191.4478,60.8415 C191.2118,60.9125 190.9638,60.9725 190.7078,61.0235 C190.6308,61.0395 190.5588,61.0595 190.4808,61.0735 C190.3808,61.0905 190.2758,61.1015 190.1738,61.1155 C189.9888,61.1425 189.8048,61.1685 189.6128,61.1855 C189.5138,61.1945 189.4108,61.1985 189.3088,61.2055 C189.1158,61.2175 188.9208,61.2265 188.7218,61.2305 C188.6078,61.2325 188.4918,61.2325 188.3768,61.2315 C188.1848,61.2305 187.9898,61.2245 187.7938,61.2155 C187.6648,61.2095 187.5348,61.2035 187.4038,61.1945 C187.2218,61.1815 187.0358,61.1625 186.8508,61.1435 C186.6898,61.1265 186.5288,61.1105 186.3658,61.0895 C186.0678,61.0495 185.7688,61.0065 185.4678,60.9515 L185.4528,66.2155 C185.6968,66.2595 185.9408,66.2995 186.1828,66.3335 C186.2398,66.3415 186.2948,66.3455 186.3508,66.3525 C186.5138,66.3745 186.6748,66.3905 186.8368,66.4075 C186.9558,66.4195 187.0778,66.4375 187.1958,66.4475 C187.2608,66.4525 187.3228,66.4535 187.3878,66.4575 C187.5198,66.4675 187.6498,66.4735 187.7808,66.4795 C187.8848,66.4845 187.9918,66.4935 188.0938,66.4965 C188.1848,66.4985 188.2718,66.4945 188.3618,66.4955 C188.4768,66.4965 188.5918,66.4965 188.7058,66.4945 C188.7768,66.4925 188.8498,66.4955 188.9198,66.4935 C189.0488,66.4885 189.1708,66.4765 189.2968,66.4685 C189.3968,66.4625 189.4988,66.4575 189.5978,66.4485 C189.6348,66.4455 189.6738,66.4445 189.7108,66.4415 C189.8648,66.4255 190.0108,66.4005 190.1598,66.3795 C190.2618,66.3645 190.3658,66.3545 190.4658,66.3365 C190.4848,66.3335 190.5048,66.3325 190.5238,66.3285 C190.5838,66.3185 190.6348,66.2985 190.6938,66.2875 C190.9488,66.2355 191.1968,66.1765 191.4328,66.1055 C191.4748,66.0925 191.5238,66.0855 191.5658,66.0725 C191.6708,66.0385 191.7668,65.9975 191.8668,65.9595 C191.9378,65.9325 192.0118,65.9085 192.0798,65.8795 C192.2998,65.7875 192.5108,65.6885 192.7048,65.5755 C192.7228,65.5655 192.7408,65.5545 192.7588,65.5435 C192.9928,65.4035 193.1948,65.2505 193.3748,65.0885 C193.3828,65.0805 193.3958,65.0745 193.4048,65.0665 C193.4048,65.0655 193.4058,65.0655 193.4058,65.0655 C193.5318,64.9495 193.6428,64.8285 193.7418,64.7035 C193.7858,64.6475 193.8188,64.5885 193.8578,64.5305 C193.8768,64.5015 193.8978,64.4735 193.9158,64.4435 C193.9328,64.4165 193.9548,64.3905 193.9698,64.3635 C194.0338,64.2495 194.0888,64.1325 194.1338,64.0125 C194.1498,63.9705 194.1568,63.9265 194.1708,63.8835 C194.1818,63.8475 194.1918,63.8125 194.2008,63.7775 C194.2138,63.7285 194.2318,63.6825 194.2418,63.6335 C194.2698,63.4925 194.2858,63.3485 194.2908,63.2025 C194.2908,63.1795 194.2908,63.1565 194.2918,63.1345 L194.3068,57.8705 C194.3058,58.0915 194.2708,58.3055 194.2158,58.5135" id="Fill-18" fill="#574583"></path>
                <polygon id="Fill-20" fill="#705B98" points="182.7291 62.5431 182.7141 67.8061 185.4521 66.2151 185.4671 60.9521"></polygon>
                <path d="M130.9729,68.984 C131.0009,68.861 131.0369,68.738 131.0799,68.613 C131.0979,68.561 131.1139,68.51 131.1349,68.458 C131.2019,68.285 131.2789,68.112 131.3739,67.937 C131.3739,67.937 131.3749,67.936 131.3749,67.936 L131.3899,62.673 C131.2939,62.848 131.2169,63.021 131.1499,63.194 C131.1419,63.213 131.1309,63.232 131.1239,63.25 C131.1109,63.284 131.1069,63.316 131.0949,63.35 C131.0519,63.474 131.0159,63.598 130.9879,63.72 C130.9809,63.752 130.9669,63.784 130.9599,63.816 C130.9559,63.839 130.9559,63.862 130.9519,63.885 C130.9329,63.996 130.9209,64.104 130.9139,64.213 C130.9119,64.249 130.9019,64.287 130.9009,64.323 C130.8999,64.348 130.8999,64.373 130.8999,64.397 L130.8849,69.66 C130.8849,69.6 130.8949,69.538 130.8989,69.476 C130.9059,69.368 130.9179,69.259 130.9369,69.148 C130.9469,69.094 130.9599,69.039 130.9729,68.984" id="Fill-22" fill="#574583"></path>
                <polygon id="Fill-24" fill="#574583" points="112.7187 70.3231 112.7037 75.5861 131.2487 86.2941 131.2637 81.0301"></polygon>
                <path d="M181.488,76.6981 C181.283,76.5791 181.059,76.4751 180.826,76.3801 C180.807,76.3721 180.791,76.3621 180.772,76.3541 C180.684,76.3191 180.587,76.2921 180.495,76.2601 C180.393,76.2251 180.293,76.1871 180.187,76.1561 C180.166,76.1501 180.147,76.1411 180.125,76.1351 C179.958,76.0871 179.785,76.0471 179.609,76.0091 C179.586,76.0031 179.564,75.9961 179.54,75.9911 C179.537,75.9911 179.534,75.9901 179.531,75.9891 C179.336,75.9491 179.135,75.9141 178.93,75.8851 C178.904,75.8821 178.876,75.8801 178.85,75.8761 C178.775,75.8661 178.698,75.8601 178.622,75.8511 C178.511,75.8391 178.401,75.8231 178.287,75.8141 C178.232,75.8091 178.174,75.8091 178.119,75.8051 C178.017,75.7981 177.913,75.7931 177.809,75.7891 C177.729,75.7851 177.651,75.7781 177.57,75.7761 C177.5,75.7741 177.427,75.7781 177.356,75.7771 C177.219,75.7761 177.082,75.7771 176.943,75.7791 C176.872,75.7811 176.803,75.7781 176.732,75.7801 C176.669,75.7831 176.604,75.7901 176.541,75.7931 C176.335,75.8031 176.128,75.8181 175.918,75.8361 C175.841,75.8421 175.766,75.8431 175.688,75.8511 C175.653,75.8551 175.617,75.8621 175.582,75.8661 C175.178,75.9091 174.769,75.9661 174.356,76.0391 C174.331,76.0431 174.307,76.0451 174.283,76.0491 C174.217,76.0611 174.15,76.0791 174.084,76.0921 C173.8,76.1471 173.515,76.2081 173.229,76.2761 C173.116,76.3041 173.004,76.3311 172.891,76.3601 C172.575,76.4421 172.261,76.5311 171.947,76.6301 C171.899,76.6451 171.851,76.6551 171.803,76.6711 C171.794,76.6741 171.786,76.6781 171.778,76.6801 C171.172,76.8761 170.573,77.1021 169.988,77.3581 C169.973,77.3641 169.958,77.3701 169.943,77.3761 C169.344,77.6401 168.76,77.9341 168.201,78.2591 C168.125,78.3031 168.051,78.3471 167.977,78.3911 C167.885,78.4471 167.811,78.5061 167.722,78.5611 C167.477,78.7161 167.24,78.8721 167.017,79.0321 C166.895,79.1201 166.78,79.2081 166.665,79.2971 C166.464,79.4521 166.275,79.6091 166.095,79.7671 C166.035,79.8201 165.962,79.8721 165.904,79.9251 C165.846,79.9791 165.797,80.0331 165.742,80.0871 C165.681,80.1461 165.621,80.2051 165.563,80.2641 C165.401,80.4301 165.251,80.5971 165.112,80.7641 C165.084,80.7991 165.051,80.8331 165.023,80.8681 C165.015,80.8791 165.004,80.8891 164.996,80.9001 C164.954,80.9531 164.928,81.0061 164.888,81.0591 C164.754,81.2411 164.627,81.4221 164.521,81.6031 C164.507,81.6271 164.486,81.6511 164.472,81.6741 C164.421,81.7651 164.39,81.8531 164.346,81.9431 C164.296,82.0461 164.241,82.1491 164.2,82.2521 C164.191,82.2751 164.176,82.2991 164.167,82.3231 C164.12,82.4481 164.092,82.5711 164.059,82.6941 C164.045,82.7501 164.023,82.8061 164.011,82.8611 C164.009,82.8701 164.005,82.8801 164.003,82.8891 C163.968,83.0601 163.949,83.2291 163.944,83.3951 C163.943,83.4201 163.943,83.4451 163.943,83.4691 L163.942,83.4701 L163.928,88.7331 C163.928,88.5341 163.953,88.3311 163.996,88.1241 C164.008,88.0691 164.03,88.0131 164.044,87.9571 C164.083,87.8111 164.126,87.6641 164.185,87.5151 C164.226,87.4131 164.281,87.3091 164.331,87.2061 C164.386,87.0931 164.439,86.9801 164.506,86.8661 C164.612,86.6861 164.739,86.5041 164.873,86.3221 C164.921,86.2591 164.958,86.1951 165.008,86.1321 C165.036,86.0971 165.069,86.0631 165.097,86.0281 C165.236,85.8611 165.386,85.6941 165.549,85.5271 C165.606,85.4681 165.666,85.4091 165.727,85.3501 C165.837,85.2431 165.96,85.1371 166.081,85.0301 C166.26,84.8721 166.449,84.7161 166.65,84.5611 C166.765,84.4721 166.881,84.3831 167.002,84.2951 C167.224,84.1361 167.462,83.9801 167.707,83.8251 C167.867,83.7241 168.017,83.6211 168.186,83.5221 C168.745,83.1981 169.328,82.9041 169.928,82.6401 C169.943,82.6331 169.959,82.6271 169.975,82.6211 C170.559,82.3651 171.157,82.1391 171.762,81.9441 C171.82,81.9251 171.878,81.9101 171.936,81.8921 C172.248,81.7941 172.561,81.7051 172.875,81.6241 C172.989,81.5941 173.102,81.5671 173.215,81.5401 C173.5,81.4711 173.784,81.4101 174.067,81.3561 C174.159,81.3381 174.251,81.3181 174.342,81.3021 C174.754,81.2291 175.163,81.1721 175.567,81.1301 C175.68,81.1171 175.792,81.1091 175.904,81.0991 C176.113,81.0811 176.321,81.0661 176.527,81.0571 C176.661,81.0501 176.795,81.0451 176.928,81.0431 C177.067,81.0401 177.204,81.0391 177.34,81.0411 C177.493,81.0421 177.645,81.0461 177.794,81.0521 C177.898,81.0561 178.002,81.0611 178.104,81.0681 C178.275,81.0801 178.442,81.0961 178.608,81.1141 C178.683,81.1231 178.76,81.1301 178.834,81.1401 C179.071,81.1711 179.302,81.2091 179.525,81.2551 C179.548,81.2601 179.57,81.2671 179.593,81.2721 C179.792,81.3151 179.985,81.3641 180.172,81.4191 C180.279,81.4511 180.378,81.4881 180.48,81.5241 C180.592,81.5621 180.704,81.6001 180.81,81.6431 C181.044,81.7391 181.268,81.8431 181.473,81.9611 C182.567,82.5931 183.087,83.4661 183.084,84.4441 L183.099,79.1811 C183.102,78.2021 182.582,77.3301 181.488,76.6981" id="Fill-26" fill="#705B98"></path>
                <polygon id="Fill-28" fill="#574583" points="182.6094 80.9042 182.5944 86.1672 185.3504 87.7592 185.3654 82.4952"></polygon>
                <polygon id="Fill-30" fill="#705B98" points="185.3655 82.4955 185.3505 87.7585 201.2595 78.5135 201.2745 73.2505"></polygon>
                <polygon id="Fill-32" fill="#705B98" points="138.3785 88.3168 138.3635 93.5798 141.1075 91.9858 141.1225 86.7218"></polygon>
                <path d="M138.796,90.7224 C138.787,90.7584 138.777,90.7934 138.766,90.8284 C138.705,91.0214 138.622,91.2084 138.512,91.3874 C138.494,91.4164 138.473,91.4454 138.454,91.4744 C138.329,91.6604 138.184,91.8394 138.004,92.0064 C137.984,92.0244 137.955,92.0394 137.935,92.0574 C137.75,92.2204 137.546,92.3754 137.304,92.5164 C137.13,92.6174 136.943,92.7094 136.747,92.7944 C136.683,92.8214 136.612,92.8444 136.545,92.8704 C136.416,92.9214 136.285,92.9714 136.148,93.0154 C135.851,93.1094 135.536,93.1864 135.207,93.2494 C135.101,93.2694 134.993,93.2864 134.884,93.3034 C134.742,93.3254 134.599,93.3464 134.452,93.3634 C134.321,93.3784 134.187,93.3894 134.052,93.4004 C133.924,93.4104 133.797,93.4194 133.666,93.4254 C133.524,93.4324 133.38,93.4344 133.234,93.4364 C133.103,93.4384 132.972,93.4404 132.838,93.4384 C132.697,93.4364 132.554,93.4294 132.411,93.4234 C132.258,93.4164 132.105,93.4094 131.95,93.3984 C131.817,93.3884 131.683,93.3754 131.548,93.3624 C131.361,93.3434 131.173,93.3234 130.983,93.2984 C130.856,93.2814 130.728,93.2634 130.6,93.2434 C130.355,93.2064 130.107,93.1624 129.859,93.1144 C129.753,93.0934 129.648,93.0744 129.542,93.0524 C129.136,92.9664 128.729,92.8664 128.323,92.7524 C128.256,92.7334 128.19,92.7124 128.123,92.6924 C127.57,92.5314 127.019,92.3474 126.478,92.1364 C126.392,92.1024 126.308,92.0664 126.222,92.0314 C125.935,91.9144 125.651,91.7914 125.37,91.6604 C125.266,91.6124 125.163,91.5644 125.06,91.5144 C124.702,91.3394 124.348,91.1564 124.006,90.9584 C121.201,89.3394 119.682,87.3644 119.687,85.7024 L119.672,90.9664 C119.667,92.6274 121.186,94.6034 123.991,96.2224 C124.333,96.4194 124.687,96.6024 125.045,96.7774 C125.148,96.8274 125.251,96.8754 125.355,96.9234 C125.636,97.0544 125.919,97.1774 126.206,97.2944 C126.269,97.3204 126.33,97.3514 126.394,97.3764 C126.417,97.3854 126.441,97.3904 126.463,97.3994 C127.005,97.6114 127.555,97.7954 128.109,97.9564 C128.146,97.9674 128.183,97.9834 128.221,97.9944 C128.25,98.0024 128.279,98.0074 128.308,98.0154 C128.714,98.1294 129.121,98.2294 129.527,98.3154 C129.557,98.3224 129.587,98.3314 129.617,98.3374 C129.693,98.3534 129.767,98.3624 129.843,98.3774 C130.092,98.4254 130.34,98.4694 130.587,98.5074 C130.649,98.5164 130.713,98.5314 130.775,98.5404 C130.84,98.5494 130.904,98.5534 130.968,98.5614 C131.158,98.5864 131.345,98.6074 131.531,98.6254 C131.614,98.6334 131.699,98.6464 131.781,98.6534 C131.834,98.6574 131.884,98.6584 131.936,98.6624 C132.09,98.6734 132.242,98.6804 132.394,98.6864 C132.488,98.6904 132.584,98.6994 132.677,98.7024 C132.727,98.7034 132.774,98.7004 132.823,98.7014 C132.957,98.7034 133.087,98.7014 133.219,98.7004 C133.312,98.6984 133.408,98.7024 133.5,98.6994 C133.552,98.6974 133.601,98.6914 133.652,98.6894 C133.782,98.6834 133.909,98.6734 134.036,98.6634 C134.121,98.6574 134.209,98.6554 134.293,98.6464 C134.343,98.6414 134.388,98.6324 134.437,98.6264 C134.584,98.6104 134.727,98.5894 134.87,98.5664 C134.948,98.5544 135.03,98.5474 135.107,98.5334 C135.137,98.5284 135.162,98.5184 135.191,98.5124 C135.521,98.4504 135.836,98.3734 136.133,98.2784 C136.149,98.2734 136.168,98.2714 136.183,98.2664 C136.304,98.2264 136.415,98.1794 136.529,98.1344 C136.596,98.1084 136.667,98.0854 136.733,98.0574 C136.928,97.9724 137.115,97.8814 137.29,97.7794 C137.311,97.7674 137.331,97.7554 137.352,97.7424 C137.567,97.6134 137.749,97.4704 137.917,97.3234 C137.938,97.3044 137.968,97.2884 137.989,97.2694 C137.99,97.2684 137.991,97.2684 137.992,97.2674 C138.116,97.1534 138.226,97.0344 138.323,96.9104 C138.367,96.8544 138.4,96.7954 138.438,96.7384 C138.458,96.7084 138.479,96.6804 138.497,96.6504 C138.514,96.6234 138.535,96.5984 138.551,96.5714 C138.615,96.4574 138.669,96.3404 138.714,96.2214 C138.73,96.1794 138.737,96.1354 138.751,96.0924 C138.762,96.0564 138.772,96.0214 138.781,95.9854 C138.794,95.9374 138.812,95.8914 138.822,95.8424 C138.85,95.7024 138.866,95.5594 138.87,95.4144 C138.871,95.3914 138.871,95.3684 138.871,95.3454 L138.886,90.0814 C138.886,90.3014 138.851,90.5144 138.796,90.7224" id="Fill-34" fill="#574583"></path>
                <polygon id="Fill-36" fill="#574583" points="141.1227 86.7221 141.1077 91.9851 159.6527 102.6931 159.6677 97.4291"></polygon>
                <polygon id="Fill-38" fill="#705B98" points="159.668 97.4293 159.653 102.6923 175.562 93.4473 175.577 88.1843"></polygon>
                <path d="M182.7291,62.5431 L185.4671,60.9521 C188.3171,61.4721 191.0281,61.2951 192.7191,60.3121 C195.6391,58.6161 194.4161,55.1711 189.9871,52.6141 C185.5591,50.0571 179.6081,49.3601 176.6891,51.0571 C174.9981,52.0401 174.7071,53.6141 175.6091,55.2601 L172.8701,56.8511 L154.3251,46.1441 L138.4161,55.3891 L141.1781,56.9841 C144.0161,56.4601 146.7351,56.6341 148.4371,57.6161 C151.3761,59.3131 150.1861,62.7611 145.7861,65.3181 C141.3921,67.8711 135.4441,68.5721 132.5051,66.8751 C130.8031,65.8921 130.4951,64.3181 131.3901,62.6721 L128.6271,61.0781 L112.7191,70.3231 L131.2641,81.0301 L128.5201,82.6251 C125.6821,82.1051 122.9651,82.2781 121.2741,83.2611 C118.3541,84.9571 119.5771,88.4021 124.0061,90.9591 C128.4341,93.5161 134.3851,94.2131 137.3041,92.5161 C138.9951,91.5331 139.2921,89.9621 138.3781,88.3171 L141.1231,86.7221 L159.6681,97.4291 L175.5771,88.1841 L172.8211,86.5931 C169.9821,87.1161 167.2641,86.9431 165.5561,85.9571 C162.6171,84.2601 163.8071,80.8121 168.2011,78.2591 C172.6011,75.7021 178.5491,75.0011 181.4881,76.6981 C183.1961,77.6841 183.5041,79.2581 182.6091,80.9041 L185.3651,82.4951 L201.2741,73.2501 L182.7291,62.5431 Z" id="Fill-40" fill="#9A84BD"></path>
                <path d="M64.8771,7.1193 C64.8701,7.2283 64.8581,7.3383 64.8381,7.4493 C64.8291,7.5043 64.8161,7.5583 64.8031,7.6133 C64.7751,7.7383 64.7381,7.8633 64.6941,7.9903 C64.6771,8.0403 64.6621,8.0903 64.6421,8.1403 C64.5761,8.3103 64.5001,8.4813 64.4071,8.6533 L64.3921,13.9173 C64.4851,13.7453 64.5611,13.5743 64.6271,13.4043 C64.6341,13.3873 64.6441,13.3693 64.6511,13.3523 C64.6631,13.3183 64.6681,13.2863 64.6791,13.2533 C64.7231,13.1263 64.7601,13.0013 64.7881,12.8763 C64.7961,12.8463 64.8091,12.8143 64.8151,12.7833 C64.8201,12.7593 64.8191,12.7373 64.8241,12.7133 C64.8431,12.6013 64.8551,12.4913 64.8621,12.3813 C64.8651,12.3463 64.8741,12.3093 64.8751,12.2743 C64.8751,12.2493 64.8761,12.2243 64.8761,12.2003 L64.8911,6.9373 C64.8911,6.9963 64.8811,7.0583 64.8771,7.1193" id="Fill-42" fill="#B95F04"></path>
                <polygon id="Fill-44" fill="#D57205" points="98.8736 13.3015 98.8586 18.5645 101.6026 16.9705 101.6176 11.7065"></polygon>
                <path d="M54.4948,14.3636 C54.0988,14.4336 53.7058,14.4866 53.3168,14.5286 C53.1618,14.5456 53.0078,14.5586 52.8548,14.5716 C52.6728,14.5856 52.4918,14.5996 52.3138,14.6076 C52.1238,14.6166 51.9368,14.6216 51.7508,14.6236 C51.6368,14.6246 51.5218,14.6266 51.4088,14.6246 C51.1318,14.6206 50.8588,14.6106 50.5938,14.5896 C50.5798,14.5886 50.5658,14.5886 50.5518,14.5876 C50.2748,14.5646 50.0068,14.5296 49.7448,14.4886 C49.6768,14.4776 49.6088,14.4656 49.5418,14.4536 C49.3288,14.4146 49.1208,14.3696 48.9198,14.3186 C48.8708,14.3056 48.8198,14.2956 48.7718,14.2816 C48.5238,14.2136 48.2858,14.1346 48.0608,14.0446 C47.8098,13.9446 47.5728,13.8326 47.3538,13.7066 C46.2588,13.0746 45.7358,12.1996 45.7388,11.2186 L45.7238,16.4816 C45.7208,17.4626 46.2438,18.3376 47.3388,18.9696 C47.5578,19.0966 47.7948,19.2086 48.0458,19.3086 C48.0518,19.3106 48.0568,19.3146 48.0638,19.3166 C48.2668,19.3966 48.4788,19.4686 48.6998,19.5316 C48.7188,19.5366 48.7388,19.5406 48.7568,19.5456 C48.8048,19.5586 48.8558,19.5686 48.9038,19.5816 C49.0318,19.6136 49.1568,19.6486 49.2898,19.6756 C49.3668,19.6916 49.4488,19.7026 49.5278,19.7166 C49.5948,19.7286 49.6618,19.7406 49.7298,19.7516 C49.7828,19.7606 49.8348,19.7716 49.8888,19.7796 C50.0978,19.8086 50.3128,19.8326 50.5308,19.8506 C50.5328,19.8506 50.5358,19.8506 50.5378,19.8516 C50.5498,19.8526 50.5618,19.8526 50.5738,19.8526 C50.7958,19.8706 51.0218,19.8836 51.2528,19.8886 C51.2988,19.8906 51.3478,19.8876 51.3938,19.8886 C51.5068,19.8896 51.6208,19.8876 51.7358,19.8866 C51.8558,19.8856 51.9738,19.8886 52.0958,19.8846 C52.1628,19.8826 52.2318,19.8746 52.2988,19.8706 C52.4778,19.8626 52.6578,19.8496 52.8388,19.8346 C52.9418,19.8266 53.0428,19.8246 53.1458,19.8136 C53.1978,19.8086 53.2508,19.7976 53.3018,19.7926 C53.6928,19.7496 54.0858,19.6966 54.4838,19.6266 C54.5108,19.6216 54.5368,19.6206 54.5628,19.6156 C54.5748,19.6136 54.5858,19.6106 54.5978,19.6086 L54.6128,14.3456 C54.5728,14.3526 54.5348,14.3566 54.4948,14.3636" id="Fill-46" fill="#D57205"></path>
                <polygon id="Fill-48" fill="#B95F04" points="54.6128 14.3456 54.5978 19.6086 57.3538 21.2006 57.3688 15.9366"></polygon>
                <path d="M92.8834,18.6725 C93.1164,18.6025 93.3604,18.5435 93.6124,18.4935 C93.6924,18.4765 93.7674,18.4555 93.8494,18.4415 C93.9504,18.4235 94.0574,18.4135 94.1604,18.3985 C94.3434,18.3725 94.5274,18.3475 94.7174,18.3305 C94.8174,18.3215 94.9204,18.3165 95.0224,18.3105 C95.2154,18.2975 95.4104,18.2885 95.6094,18.2845 C95.7234,18.2825 95.8384,18.2825 95.9534,18.2835 C96.1444,18.2855 96.3384,18.2915 96.5344,18.3005 C96.6644,18.3055 96.7934,18.3115 96.9244,18.3215 C97.1074,18.3345 97.2924,18.3535 97.4774,18.3725 C97.6364,18.3895 97.7964,18.4055 97.9574,18.4265 C98.2564,18.4665 98.5564,18.5095 98.8584,18.5645 L98.8734,13.3015 C98.6264,13.2565 98.3794,13.2165 98.1344,13.1815 C98.0804,13.1735 98.0274,13.1705 97.9734,13.1635 C97.8114,13.1415 97.6524,13.1255 97.4924,13.1095 C97.3704,13.0965 97.2464,13.0775 97.1264,13.0675 C97.0624,13.0625 97.0014,13.0625 96.9384,13.0575 C96.8074,13.0485 96.6794,13.0425 96.5514,13.0365 C96.4444,13.0315 96.3354,13.0215 96.2304,13.0195 C96.1414,13.0175 96.0564,13.0205 95.9684,13.0205 C95.8524,13.0195 95.7374,13.0195 95.6234,13.0215 C95.5514,13.0225 95.4764,13.0205 95.4054,13.0225 C95.2804,13.0265 95.1614,13.0385 95.0384,13.0465 C94.9364,13.0535 94.8324,13.0575 94.7324,13.0665 C94.6934,13.0705 94.6524,13.0705 94.6144,13.0745 C94.4634,13.0895 94.3214,13.1145 94.1754,13.1355 C94.0724,13.1495 93.9654,13.1605 93.8644,13.1785 C93.8444,13.1815 93.8224,13.1835 93.8024,13.1865 C93.7414,13.1975 93.6884,13.2175 93.6284,13.2295 C93.3754,13.2805 93.1314,13.3395 92.8974,13.4095 C92.8544,13.4225 92.8054,13.4285 92.7624,13.4425 C92.6594,13.4755 92.5644,13.5165 92.4654,13.5545 C92.3934,13.5805 92.3204,13.6055 92.2514,13.6345 C92.0314,13.7255 91.8214,13.8245 91.6274,13.9375 C91.6094,13.9485 91.5904,13.9585 91.5724,13.9695 C91.3364,14.1115 91.1304,14.2665 90.9504,14.4305 C90.9434,14.4365 90.9334,14.4415 90.9274,14.4475 C90.9264,14.4475 90.9264,14.4475 90.9264,14.4475 C90.8004,14.5645 90.6884,14.6855 90.5894,14.8105 C90.5454,14.8665 90.5114,14.9265 90.4734,14.9835 C90.4534,15.0135 90.4324,15.0415 90.4144,15.0715 C90.3984,15.0985 90.3764,15.1235 90.3604,15.1515 C90.2964,15.2655 90.2414,15.3825 90.1964,15.5025 C90.1814,15.5445 90.1734,15.5895 90.1594,15.6325 C90.1484,15.6675 90.1384,15.7035 90.1294,15.7385 C90.1164,15.7875 90.0984,15.8345 90.0884,15.8835 C90.0604,16.0245 90.0444,16.1685 90.0394,16.3145 C90.0394,16.3375 90.0384,16.3605 90.0384,16.3825 L90.0234,21.6465 C90.0244,21.4255 90.0594,21.2105 90.1144,21.0025 C90.1234,20.9665 90.1334,20.9315 90.1444,20.8955 C90.2054,20.7015 90.2894,20.5145 90.3994,20.3345 C90.4174,20.3055 90.4384,20.2765 90.4584,20.2475 C90.5834,20.0595 90.7294,19.8785 90.9124,19.7105 C90.9184,19.7045 90.9284,19.6995 90.9354,19.6935 C91.1294,19.5175 91.3534,19.3515 91.6124,19.2005 C91.8064,19.0885 92.0174,18.9885 92.2364,18.8975 C92.3054,18.8685 92.3784,18.8445 92.4484,18.8175 C92.5894,18.7655 92.7344,18.7175 92.8834,18.6725" id="Fill-50" fill="#B95F04"></path>
                <path d="M108.7323,18.9934 L108.7173,24.2564 C108.8863,24.5604 109.0133,24.8614 109.0983,25.1564 C109.1833,25.4514 109.2253,25.7414 109.2253,26.0214 L109.2403,20.7584 C109.2413,20.1974 109.0693,19.6004 108.7323,18.9934" id="Fill-52" fill="#B95F04"></path>
                <path d="M77.1048,31.6627 C76.7628,31.4647 76.4088,31.2827 76.0508,31.1077 C75.9478,31.0577 75.8448,31.0097 75.7408,30.9617 C75.4598,30.8307 75.1758,30.7067 74.8878,30.5897 C74.8248,30.5647 74.7648,30.5337 74.7018,30.5087 C74.6788,30.4997 74.6558,30.4947 74.6328,30.4857 C74.0908,30.2737 73.5398,30.0897 72.9868,29.9287 C72.9488,29.9177 72.9118,29.9007 72.8738,29.8907 C72.8458,29.8827 72.8168,29.8777 72.7878,29.8687 C72.3818,29.7557 71.9748,29.6557 71.5688,29.5697 C71.5388,29.5627 71.5088,29.5537 71.4788,29.5477 C71.4028,29.5317 71.3278,29.5227 71.2508,29.5077 C71.0028,29.4597 70.7558,29.4157 70.5098,29.3777 C70.4468,29.3687 70.3828,29.3537 70.3208,29.3447 C70.2548,29.3357 70.1918,29.3317 70.1268,29.3227 C69.9378,29.2977 69.7498,29.2777 69.5618,29.2597 C69.4798,29.2517 69.3958,29.2387 69.3148,29.2317 C69.2628,29.2267 69.2128,29.2267 69.1608,29.2227 C69.0058,29.2117 68.8528,29.2047 68.6998,29.1977 C68.6068,29.1937 68.5108,29.1847 68.4178,29.1827 C68.3688,29.1817 68.3218,29.1837 68.2728,29.1837 C68.1388,29.1817 68.0078,29.1827 67.8758,29.1847 C67.7828,29.1857 67.6868,29.1827 67.5958,29.1857 C67.5438,29.1877 67.4948,29.1937 67.4438,29.1957 C67.3138,29.2017 67.1858,29.2117 67.0588,29.2217 C66.9738,29.2277 66.8858,29.2297 66.8028,29.2377 C66.7528,29.2427 66.7078,29.2527 66.6588,29.2577 C66.5118,29.2747 66.3688,29.2957 66.2268,29.3177 C66.1488,29.3307 66.0658,29.3377 65.9888,29.3507 C65.9588,29.3567 65.9328,29.3667 65.9038,29.3727 C65.5748,29.4347 65.2598,29.5117 64.9628,29.6067 C64.9468,29.6117 64.9278,29.6137 64.9128,29.6187 C64.7918,29.6577 64.6808,29.7057 64.5668,29.7507 C64.4988,29.7767 64.4278,29.7997 64.3628,29.8277 C64.1678,29.9117 63.9808,30.0037 63.8058,30.1057 C63.7848,30.1177 63.7648,30.1297 63.7438,30.1417 C63.7288,30.1517 63.7188,30.1627 63.7038,30.1717 C63.4808,30.3097 63.2788,30.4567 63.1068,30.6157 C63.1068,30.6157 63.1058,30.6157 63.1058,30.6157 C63.1028,30.6187 63.1008,30.6217 63.0978,30.6247 C62.9888,30.7267 62.8928,30.8327 62.8048,30.9417 C62.7958,30.9517 62.7838,30.9617 62.7758,30.9727 C62.7518,31.0027 62.7348,31.0357 62.7128,31.0657 C62.6668,31.1307 62.6218,31.1947 62.5818,31.2607 C62.5718,31.2787 62.5578,31.2947 62.5478,31.3117 C62.5308,31.3417 62.5208,31.3737 62.5048,31.4037 C62.4728,31.4667 62.4418,31.5307 62.4148,31.5957 C62.4058,31.6187 62.3928,31.6407 62.3838,31.6627 C62.3738,31.6897 62.3698,31.7177 62.3608,31.7447 C62.3368,31.8157 62.3168,31.8867 62.2988,31.9597 C62.2928,31.9887 62.2808,32.0157 62.2748,32.0447 C62.2708,32.0647 62.2718,32.0857 62.2678,32.1067 C62.2518,32.1987 62.2428,32.2917 62.2368,32.3867 C62.2348,32.4167 62.2278,32.4457 62.2268,32.4757 C62.2258,32.4987 62.2258,32.5227 62.2258,32.5457 L62.2108,37.8087 C62.2108,37.7557 62.2188,37.7027 62.2218,37.6497 C62.2278,37.5557 62.2368,37.4617 62.2528,37.3697 C62.2618,37.3207 62.2728,37.2717 62.2848,37.2227 C62.3018,37.1507 62.3218,37.0787 62.3458,37.0087 C62.3628,36.9577 62.3808,36.9077 62.4008,36.8587 C62.4268,36.7937 62.4578,36.7307 62.4898,36.6677 C62.5148,36.6197 62.5388,36.5717 62.5668,36.5247 C62.6068,36.4577 62.6518,36.3937 62.6978,36.3297 C62.7278,36.2877 62.7568,36.2457 62.7898,36.2047 C62.8778,36.0957 62.9738,35.9897 63.0828,35.8887 C63.0858,35.8847 63.0888,35.8817 63.0918,35.8787 C63.2638,35.7207 63.4658,35.5737 63.6888,35.4357 C63.7238,35.4137 63.7548,35.3897 63.7908,35.3687 C63.9658,35.2677 64.1528,35.1757 64.3478,35.0907 C64.4138,35.0627 64.4848,35.0397 64.5528,35.0137 C64.6818,34.9627 64.8108,34.9137 64.9468,34.8697 C65.2438,34.7757 65.5598,34.6987 65.8888,34.6357 C65.9948,34.6157 66.1028,34.5987 66.2118,34.5817 C66.3538,34.5597 66.4968,34.5377 66.6428,34.5217 C66.7748,34.5067 66.9098,34.4947 67.0448,34.4847 C67.1718,34.4747 67.2988,34.4657 67.4278,34.4597 C67.5708,34.4527 67.7158,34.4497 67.8618,34.4487 C67.9928,34.4467 68.1238,34.4447 68.2578,34.4467 C68.3988,34.4487 68.5428,34.4557 68.6868,34.4617 C68.8388,34.4687 68.9908,34.4757 69.1448,34.4867 C69.2788,34.4967 69.4138,34.5097 69.5488,34.5227 C69.7358,34.5417 69.9228,34.5617 70.1118,34.5867 C70.2388,34.6027 70.3668,34.6217 70.4938,34.6407 C70.7408,34.6787 70.9888,34.7227 71.2378,34.7717 C71.3428,34.7917 71.4478,34.8107 71.5538,34.8327 C71.9598,34.9187 72.3668,35.0187 72.7738,35.1327 C72.8398,35.1507 72.9058,35.1727 72.9718,35.1917 C73.5248,35.3527 74.0758,35.5377 74.6178,35.7487 C74.7038,35.7827 74.7878,35.8187 74.8728,35.8527 C75.1608,35.9707 75.4458,36.0947 75.7268,36.2257 C75.8298,36.2737 75.9328,36.3207 76.0348,36.3707 C76.3928,36.5457 76.7478,36.7287 77.0898,36.9257 C79.8948,38.5457 81.4138,40.5207 81.4088,42.1827 L81.4238,36.9187 C81.4288,35.2577 79.9098,33.2817 77.1048,31.6627" id="Fill-54" fill="#B95F04"></path>
                <polygon id="Fill-56" fill="#D57205" points="59.9879 35.8994 59.9729 41.1624 62.7109 39.5714 62.7259 34.3084"></polygon>
                <polygon id="Fill-58" fill="#B95F04" points="41.4426 25.1923 41.4276 30.4553 59.9726 41.1633 59.9876 35.8993"></polygon>
                <polygon id="Fill-60" fill="#D57205" points="114.1128 37.3511 114.0978 42.6141 130.0068 33.3691 130.0218 28.1061"></polygon>
                <polygon id="Fill-62" fill="#B95F04" points="104.3183 43.043 104.3033 48.306 107.0653 49.901 107.0803 44.638"></polygon>
                <path d="M125.6762,42.6829 C125.6652,42.7379 125.6422,42.7939 125.6282,42.8489 C125.5902,42.9949 125.5462,43.1429 125.4872,43.2919 C125.4462,43.3939 125.3922,43.4979 125.3412,43.6009 C125.2862,43.7139 125.2342,43.8269 125.1672,43.9409 C125.0612,44.1219 124.9332,44.3039 124.7982,44.4859 C124.7522,44.5489 124.7152,44.6119 124.6652,44.6749 C124.6382,44.7089 124.6062,44.7419 124.5792,44.7749 C124.4402,44.9429 124.2882,45.1109 124.1252,45.2789 C124.0672,45.3379 124.0082,45.3969 123.9472,45.4559 C123.8372,45.5629 123.7142,45.6689 123.5932,45.7749 C123.4142,45.9329 123.2252,46.0899 123.0252,46.2449 C122.9102,46.3339 122.7942,46.4229 122.6722,46.5099 C122.4502,46.6699 122.2122,46.8259 121.9682,46.9799 C121.8082,47.0809 121.6582,47.1849 121.4892,47.2829 C120.9312,47.6069 120.3482,47.9009 119.7502,48.1639 C119.7352,48.1699 119.7212,48.1759 119.7072,48.1819 C119.1222,48.4369 118.5232,48.6639 117.9182,48.8589 C117.8642,48.8759 117.8112,48.8899 117.7572,48.9069 C117.4412,49.0059 117.1242,49.0959 116.8062,49.1779 C116.6932,49.2079 116.5802,49.2349 116.4672,49.2619 C116.1852,49.3289 115.9032,49.3899 115.6222,49.4439 C115.5282,49.4619 115.4342,49.4819 115.3412,49.4989 C114.9282,49.5719 114.5202,49.6289 114.1162,49.6719 C114.0032,49.6839 113.8912,49.6919 113.7792,49.7019 C113.5702,49.7199 113.3612,49.7339 113.1562,49.7439 C113.0202,49.7499 112.8862,49.7549 112.7522,49.7579 C112.6132,49.7609 112.4752,49.7609 112.3382,49.7599 C112.1852,49.7589 112.0332,49.7549 111.8842,49.7479 C111.7802,49.7439 111.6762,49.7389 111.5742,49.7319 C111.4022,49.7199 111.2332,49.7039 111.0662,49.6849 C110.9922,49.6769 110.9162,49.6699 110.8432,49.6599 C110.6072,49.6289 110.3752,49.5909 110.1522,49.5449 C110.1232,49.5389 110.0972,49.5299 110.0692,49.5239 C109.8752,49.4819 109.6862,49.4339 109.5042,49.3799 C109.3972,49.3479 109.2972,49.3109 109.1952,49.2749 C109.0832,49.2359 108.9712,49.1989 108.8652,49.1559 C108.6312,49.0599 108.4072,48.9559 108.2022,48.8369 C107.1102,48.2069 106.5922,47.3339 106.5952,46.3559 L106.5802,51.6189 C106.5772,52.5969 107.0952,53.4699 108.1872,54.0999 C108.3922,54.2189 108.6162,54.3229 108.8492,54.4189 C108.8692,54.4269 108.8852,54.4369 108.9042,54.4449 C108.9932,54.4799 109.0902,54.5069 109.1812,54.5389 C109.2832,54.5739 109.3832,54.6119 109.4892,54.6429 C109.5112,54.6499 109.5312,54.6579 109.5532,54.6649 C109.7152,54.7109 109.8842,54.7499 110.0542,54.7879 C110.0832,54.7939 110.1092,54.8019 110.1372,54.8079 C110.1412,54.8089 110.1442,54.8099 110.1482,54.8109 C110.3442,54.8509 110.5452,54.8859 110.7502,54.9149 C110.7762,54.9189 110.8022,54.9199 110.8282,54.9239 C110.9012,54.9329 110.9772,54.9399 111.0512,54.9479 C111.1652,54.9609 111.2782,54.9769 111.3952,54.9869 C111.4492,54.9909 111.5052,54.9919 111.5592,54.9949 C111.6612,55.0019 111.7642,55.0069 111.8672,55.0119 C111.9502,55.0149 112.0302,55.0229 112.1132,55.0249 C112.1822,55.0259 112.2542,55.0229 112.3242,55.0229 C112.4612,55.0249 112.5982,55.0239 112.7372,55.0209 C112.8102,55.0199 112.8802,55.0229 112.9542,55.0199 C113.0152,55.0179 113.0792,55.0099 113.1412,55.0069 C113.3472,54.9979 113.5542,54.9829 113.7642,54.9649 C113.8432,54.9579 113.9192,54.9569 113.9982,54.9489 C114.0322,54.9459 114.0672,54.9389 114.1012,54.9349 C114.5052,54.8919 114.9132,54.8349 115.3262,54.7619 C115.3522,54.7579 115.3782,54.7559 115.4042,54.7509 C115.4712,54.7389 115.5392,54.7199 115.6072,54.7079 C115.8882,54.6529 116.1692,54.5929 116.4522,54.5249 C116.5652,54.4979 116.6782,54.4709 116.7912,54.4419 C117.1092,54.3589 117.4272,54.2689 117.7442,54.1699 C117.7892,54.1559 117.8342,54.1449 117.8792,54.1309 C117.8872,54.1279 117.8952,54.1249 117.9022,54.1219 C118.5082,53.9269 119.1072,53.7009 119.6922,53.4449 C119.7062,53.4389 119.7212,53.4339 119.7352,53.4269 C120.3332,53.1639 120.9162,52.8709 121.4742,52.5469 C121.5492,52.5029 121.6242,52.4579 121.6982,52.4139 C121.7892,52.3589 121.8642,52.2999 121.9532,52.2439 C122.1982,52.0889 122.4352,51.9329 122.6572,51.7739 C122.7792,51.6859 122.8942,51.5969 123.0102,51.5079 C123.2102,51.3529 123.3992,51.1969 123.5782,51.0389 C123.6382,50.9859 123.7122,50.9349 123.7692,50.8809 C123.8272,50.8269 123.8772,50.7729 123.9332,50.7189 C123.9932,50.6599 124.0532,50.6009 124.1102,50.5419 C124.2732,50.3749 124.4242,50.2079 124.5622,50.0409 C124.5902,50.0059 124.6232,49.9719 124.6502,49.9379 C124.6582,49.9279 124.6682,49.9179 124.6762,49.9069 C124.7172,49.8559 124.7432,49.8039 124.7822,49.7519 C124.9172,49.5689 125.0452,49.3859 125.1522,49.2039 C125.1662,49.1799 125.1862,49.1569 125.2002,49.1329 C125.2512,49.0429 125.2832,48.9539 125.3262,48.8649 C125.3772,48.7609 125.4312,48.6579 125.4722,48.5549 C125.4812,48.5319 125.4962,48.5079 125.5052,48.4849 C125.5522,48.3589 125.5812,48.2359 125.6132,48.1119 C125.6282,48.0569 125.6502,48.0009 125.6612,47.9459 C125.6632,47.9369 125.6672,47.9279 125.6692,47.9179 C125.7042,47.7469 125.7232,47.5779 125.7282,47.4119 C125.7292,47.3869 125.7292,47.3619 125.7302,47.3369 L125.7442,42.0739 C125.7442,42.2729 125.7192,42.4759 125.6762,42.6829" id="Fill-64" fill="#D57205"></path>
                <polygon id="Fill-66" fill="#D57205" points="88.3918 52.2985 88.3768 57.5615 104.3038 48.3065 104.3178 43.0435"></polygon>
                <polygon id="Fill-68" fill="#B95F04" points="69.8465 41.5913 69.8315 46.8543 88.3765 57.5623 88.3915 52.2983"></polygon>
                <g id="Group-72" transform="translate(41.000000, 0.911000)">
                    <mask id="mask-8" fill="white">
                        <use xlink:href="#path-7"></use>
                    </mask>
                    <g id="Clip-71"></g>
                    <path d="M83.1281,38.6706 C81.4261,37.6876 78.7131,37.5116 75.8751,38.0346 L73.1131,36.4406 L89.0221,27.1946 L70.4761,16.4876 L67.7321,18.0826 C68.6451,19.7286 68.3491,21.2986 66.6581,22.2816 C63.7381,23.9786 57.7821,23.2846 53.3541,20.7276 C48.9251,18.1706 47.7081,14.7236 50.6281,13.0266 C52.3181,12.0436 55.0351,11.8706 57.8741,12.3906 L60.6181,10.7956 L42.0721,0.0886 L26.1631,9.3336 L23.4071,7.7426 C24.2961,6.0936 23.9821,4.5226 22.2801,3.5396 C19.3411,1.8436 13.3991,2.5406 8.9991,5.0976 C4.5991,7.6546 3.4151,11.0986 6.3541,12.7956 C8.0561,13.7776 10.7741,13.9516 13.6131,13.4346 L16.3691,15.0256 L0.4421,24.2816 L18.9881,34.9886 L21.7261,33.3976 C20.8251,31.7516 21.1151,30.1776 22.8061,29.1946 C25.7261,27.4976 31.6761,28.1946 36.1051,30.7516 C40.5341,33.3086 41.7561,36.7526 38.8371,38.4496 C37.1461,39.4326 34.4351,39.6096 31.5851,39.0886 L28.8461,40.6806 L47.3921,51.3876 L63.3181,42.1316 L66.0801,43.7266 C65.1911,45.3686 65.5001,46.9436 67.2021,47.9256 C70.1401,49.6226 76.0891,48.9286 80.4891,46.3726 C84.8891,43.8156 86.0671,40.3676 83.1281,38.6706" id="Fill-70" fill="#F6931E" mask="url(#mask-8)"></path>
                </g>
                <path d="M79.9948,28.2976 L77.0538,26.5996 L85.8198,21.5056 L88.7598,23.2036 L79.9948,28.2976 Z M94.6228,23.2036 L85.7998,18.1096 L71.1908,26.5996 L85.8858,35.0836 L88.8078,33.3856 L82.9358,29.9956 L88.7798,26.5996 L91.7108,28.2916 L94.6328,26.5936 L91.7008,24.9016 L94.6228,23.2036 Z" id="Fill-73" fill="#FFFFFF"></path>
                <polygon id="Fill-75" fill="#FFFFFF" points="97.5542 24.8959 94.6322 26.5939 97.5732 28.2919 100.4952 26.5939"></polygon>
                <path d="M62.4044,32.5302 L62.3894,37.7932 C62.3874,38.3542 62.5584,38.9502 62.8904,39.5562 L62.9054,34.2922 C62.5734,33.6872 62.4024,33.0912 62.4044,32.5302" id="Fill-77" fill="#AE043D"></path>
                <polygon id="Fill-79" fill="#AE043D" points="25.7125 34.422 25.6975 39.685 28.4595 41.28 28.4745 36.017"></polygon>
                <path d="M35.7336,36.6491 C35.5146,36.5231 35.2776,36.4111 35.0276,36.3111 C35.0206,36.3081 35.0156,36.3051 35.0086,36.3021 C34.8066,36.2221 34.5946,36.1511 34.3736,36.0881 C34.3546,36.0821 34.3346,36.0791 34.3156,36.0741 C34.2676,36.0601 34.2166,36.0501 34.1676,36.0371 C34.0416,36.0051 33.9166,35.9711 33.7856,35.9441 C33.7076,35.9281 33.6246,35.9171 33.5446,35.9021 C33.4786,35.8901 33.4126,35.8781 33.3446,35.8681 C33.2916,35.8591 33.2416,35.8481 33.1886,35.8411 C32.9796,35.8111 32.7666,35.7871 32.5486,35.7691 C32.5456,35.7691 32.5416,35.7691 32.5376,35.7691 C32.5196,35.7671 32.5006,35.7671 32.4826,35.7661 C32.2686,35.7501 32.0526,35.7371 31.8316,35.7311 C31.7826,35.7301 31.7316,35.7331 31.6816,35.7321 C31.5706,35.7311 31.4576,35.7331 31.3446,35.7341 C31.2276,35.7351 31.1136,35.7321 30.9946,35.7361 C30.9246,35.7381 30.8516,35.7471 30.7806,35.7501 C30.6056,35.7591 30.4296,35.7711 30.2516,35.7861 C30.1516,35.7941 30.0546,35.7961 29.9536,35.8061 C29.8996,35.8111 29.8426,35.8231 29.7876,35.8291 C29.4276,35.8681 29.0646,35.9191 28.6986,35.9821 C28.6486,35.9911 28.6006,35.9941 28.5506,36.0031 C28.5256,36.0071 28.4996,36.0121 28.4746,36.0171 L28.4596,41.2801 C28.5346,41.2661 28.6086,41.2581 28.6836,41.2451 C29.0496,41.1821 29.4126,41.1321 29.7726,41.0931 C29.9286,41.0761 30.0826,41.0621 30.2366,41.0491 C30.4146,41.0351 30.5916,41.0221 30.7656,41.0141 C30.9556,41.0041 31.1436,40.9991 31.3286,40.9971 C31.4426,40.9961 31.5566,40.9941 31.6676,40.9961 C31.9376,40.9991 32.2036,41.0091 32.4626,41.0291 C32.4826,41.0311 32.5036,41.0311 32.5236,41.0321 C32.8006,41.0551 33.0686,41.0901 33.3296,41.1311 C33.3976,41.1421 33.4636,41.1541 33.5296,41.1661 C33.7436,41.2041 33.9506,41.2491 34.1516,41.3011 C34.2006,41.3131 34.2526,41.3241 34.3016,41.3371 C34.5496,41.4061 34.7876,41.4851 35.0126,41.5741 C35.2626,41.6741 35.4996,41.7861 35.7186,41.9121 C36.8126,42.5441 37.3346,43.4181 37.3316,44.3991 L37.3466,39.1351 C37.3496,38.1551 36.8276,37.2811 35.7336,36.6491" id="Fill-81" fill="#C5023A"></path>
                <path d="M81.512,37.5463 C81.503,37.5823 81.493,37.6173 81.482,37.6523 C81.421,37.8463 81.337,38.0333 81.227,38.2133 C81.209,38.2423 81.188,38.2713 81.169,38.3003 C81.043,38.4873 80.897,38.6683 80.715,38.8353 C80.708,38.8423 80.697,38.8483 80.69,38.8543 C80.496,39.0303 80.274,39.1953 80.016,39.3453 C79.822,39.4583 79.611,39.5573 79.392,39.6493 C79.323,39.6773 79.249,39.7023 79.178,39.7293 C79.037,39.7813 78.892,39.8303 78.744,39.8743 C78.508,39.9453 78.26,40.0053 78.004,40.0563 C77.927,40.0723 77.855,40.0923 77.777,40.1063 C77.677,40.1233 77.572,40.1343 77.47,40.1483 C77.285,40.1753 77.101,40.2003 76.909,40.2183 C76.81,40.2273 76.707,40.2313 76.605,40.2383 C76.412,40.2503 76.217,40.2593 76.018,40.2633 C75.904,40.2653 75.788,40.2653 75.673,40.2643 C75.481,40.2633 75.286,40.2573 75.09,40.2483 C74.961,40.2423 74.831,40.2363 74.7,40.2273 C74.518,40.2143 74.332,40.1953 74.147,40.1763 C73.986,40.1593 73.825,40.1433 73.662,40.1223 C73.364,40.0823 73.065,40.0393 72.764,39.9843 L72.749,45.2483 C72.993,45.2923 73.237,45.3323 73.479,45.3663 C73.536,45.3743 73.591,45.3783 73.647,45.3853 C73.81,45.4073 73.971,45.4233 74.133,45.4403 C74.252,45.4523 74.374,45.4703 74.492,45.4803 C74.557,45.4853 74.619,45.4863 74.684,45.4903 C74.816,45.5003 74.946,45.5063 75.077,45.5123 C75.181,45.5173 75.288,45.5263 75.39,45.5293 C75.481,45.5313 75.568,45.5273 75.658,45.5283 C75.773,45.5293 75.888,45.5293 76.002,45.5273 C76.073,45.5253 76.146,45.5283 76.216,45.5263 C76.345,45.5213 76.467,45.5093 76.593,45.5013 C76.693,45.4953 76.795,45.4903 76.894,45.4813 C76.931,45.4783 76.97,45.4773 77.007,45.4743 C77.161,45.4583 77.307,45.4333 77.456,45.4123 C77.558,45.3973 77.662,45.3873 77.762,45.3693 C77.781,45.3663 77.801,45.3653 77.82,45.3613 C77.88,45.3513 77.931,45.3313 77.99,45.3193 C78.245,45.2683 78.493,45.2093 78.729,45.1383 C78.771,45.1253 78.82,45.1183 78.862,45.1053 C78.967,45.0713 79.063,45.0303 79.163,44.9923 C79.234,44.9653 79.308,44.9413 79.376,44.9123 C79.596,44.8203 79.807,44.7213 80.001,44.6083 C80.019,44.5983 80.037,44.5873 80.055,44.5763 C80.289,44.4363 80.491,44.2833 80.671,44.1213 C80.679,44.1133 80.692,44.1073 80.701,44.0993 L80.702,44.0983 C80.828,43.9823 80.939,43.8613 81.038,43.7363 C81.082,43.6803 81.115,43.6213 81.154,43.5633 C81.173,43.5343 81.194,43.5063 81.212,43.4763 C81.229,43.4493 81.251,43.4233 81.266,43.3963 C81.33,43.2823 81.385,43.1653 81.43,43.0453 C81.446,43.0033 81.453,42.9593 81.467,42.9163 C81.478,42.8803 81.488,42.8453 81.497,42.8093 C81.51,42.7613 81.528,42.7143 81.538,42.6663 C81.566,42.5253 81.582,42.3813 81.587,42.2353 C81.587,42.2123 81.587,42.1893 81.588,42.1673 L81.603,36.9033 C81.602,37.1243 81.567,37.3383 81.512,37.5463" id="Fill-83" fill="#AE043D"></path>
                <polygon id="Fill-85" fill="#C5023A" points="70.0253 41.5758 70.0103 46.8388 72.7483 45.2478 72.7633 39.9848"></polygon>
                <path d="M18.2692,48.0168 C18.2972,47.8938 18.3332,47.7708 18.3762,47.6458 C18.3942,47.5938 18.4102,47.5428 18.4312,47.4908 C18.4982,47.3178 18.5752,47.1448 18.6702,46.9698 C18.6702,46.9698 18.6712,46.9688 18.6712,46.9688 L18.6862,41.7048 C18.5902,41.8808 18.5132,42.0538 18.4462,42.2268 C18.4382,42.2458 18.4272,42.2648 18.4202,42.2828 C18.4072,42.3168 18.4032,42.3488 18.3912,42.3828 C18.3482,42.5068 18.3122,42.6308 18.2842,42.7528 C18.2772,42.7848 18.2632,42.8168 18.2562,42.8488 C18.2522,42.8718 18.2522,42.8948 18.2482,42.9178 C18.2292,43.0288 18.2172,43.1368 18.2102,43.2458 C18.2082,43.2818 18.1982,43.3198 18.1972,43.3558 C18.1962,43.3808 18.1962,43.4058 18.1962,43.4298 L18.1812,48.6928 C18.1812,48.6328 18.1912,48.5708 18.1952,48.5088 C18.2022,48.4008 18.2142,48.2918 18.2332,48.1808 C18.2432,48.1268 18.2562,48.0718 18.2692,48.0168" id="Fill-87" fill="#AE043D"></path>
                <g id="Group-91" transform="translate(0.000000, 48.911000)" fill="#AE043D">
                    <polygon id="Fill-89" points="0.0149 0.4448 -0.0001 5.7078 18.5449 16.4158 18.5599 11.1518"></polygon>
                </g>
                <path d="M68.7843,55.7309 C68.5783,55.6119 68.3553,55.5079 68.1223,55.4129 C68.1033,55.4049 68.0873,55.3949 68.0683,55.3869 C67.9803,55.3519 67.8833,55.3249 67.7913,55.2929 C67.6893,55.2579 67.5893,55.2199 67.4833,55.1889 C67.4623,55.1829 67.4433,55.1739 67.4213,55.1679 C67.2543,55.1199 67.0813,55.0799 66.9053,55.0419 C66.8823,55.0359 66.8603,55.0289 66.8363,55.0239 C66.8333,55.0239 66.8303,55.0229 66.8273,55.0219 C66.6323,54.9819 66.4313,54.9469 66.2263,54.9179 C66.2003,54.9149 66.1723,54.9129 66.1463,54.9089 C66.0713,54.8989 65.9943,54.8929 65.9183,54.8839 C65.8073,54.8719 65.6973,54.8559 65.5833,54.8469 C65.5283,54.8419 65.4703,54.8419 65.4153,54.8379 C65.3133,54.8309 65.2093,54.8259 65.1053,54.8219 C65.0253,54.8179 64.9473,54.8109 64.8663,54.8089 C64.7963,54.8069 64.7233,54.8109 64.6523,54.8099 C64.5153,54.8089 64.3783,54.8099 64.2393,54.8119 C64.1683,54.8139 64.0993,54.8109 64.0283,54.8129 C63.9653,54.8159 63.9003,54.8229 63.8373,54.8259 C63.6313,54.8359 63.4243,54.8509 63.2143,54.8689 C63.1373,54.8749 63.0623,54.8759 62.9843,54.8839 C62.9493,54.8879 62.9133,54.8949 62.8783,54.8989 C62.4743,54.9419 62.0653,54.9989 61.6523,55.0719 C61.6273,55.0759 61.6033,55.0779 61.5793,55.0819 C61.5133,55.0939 61.4463,55.1119 61.3803,55.1249 C61.0963,55.1799 60.8113,55.2409 60.5253,55.3089 C60.4123,55.3369 60.3003,55.3639 60.1873,55.3929 C59.8713,55.4749 59.5573,55.5639 59.2433,55.6629 C59.1953,55.6779 59.1473,55.6879 59.0993,55.7039 C59.0903,55.7059 59.0823,55.7109 59.0743,55.7129 C58.4683,55.9089 57.8693,56.1349 57.2843,56.3909 C57.2693,56.3969 57.2543,56.4029 57.2393,56.4089 C56.6403,56.6729 56.0563,56.9669 55.4973,57.2919 C55.4213,57.3359 55.3473,57.3799 55.2733,57.4239 C55.1813,57.4799 55.1073,57.5389 55.0183,57.5939 C54.7733,57.7489 54.5363,57.9049 54.3133,58.0649 C54.1913,58.1529 54.0763,58.2409 53.9613,58.3299 C53.7603,58.4849 53.5713,58.6419 53.3913,58.7999 C53.3313,58.8529 53.2583,58.9049 53.2003,58.9579 C53.1423,59.0119 53.0933,59.0659 53.0383,59.1199 C52.9773,59.1789 52.9173,59.2379 52.8593,59.2969 C52.6973,59.4629 52.5473,59.6299 52.4083,59.7969 C52.3803,59.8319 52.3473,59.8659 52.3193,59.9009 C52.3113,59.9119 52.3003,59.9219 52.2923,59.9329 C52.2503,59.9859 52.2243,60.0389 52.1843,60.0919 C52.0503,60.2739 51.9233,60.4549 51.8173,60.6359 C51.8033,60.6599 51.7823,60.6839 51.7683,60.7069 C51.7173,60.7979 51.6853,60.8859 51.6423,60.9759 C51.5913,61.0789 51.5373,61.1819 51.4963,61.2849 C51.4873,61.3079 51.4723,61.3319 51.4633,61.3559 C51.4163,61.4809 51.3883,61.6039 51.3553,61.7269 C51.3413,61.7829 51.3193,61.8389 51.3073,61.8939 C51.3053,61.9029 51.3013,61.9129 51.2993,61.9219 C51.2643,62.0929 51.2453,62.2619 51.2403,62.4279 C51.2393,62.4529 51.2393,62.4779 51.2393,62.5019 L51.2383,62.5029 L51.2243,67.7659 C51.2243,67.5669 51.2493,67.3639 51.2923,67.1569 C51.3043,67.1019 51.3263,67.0459 51.3403,66.9899 C51.3793,66.8439 51.4223,66.6969 51.4813,66.5479 C51.5223,66.4459 51.5773,66.3419 51.6273,66.2389 C51.6823,66.1259 51.7353,66.0129 51.8023,65.8989 C51.9083,65.7189 52.0353,65.5369 52.1693,65.3549 C52.2173,65.2919 52.2543,65.2279 52.3043,65.1649 C52.3323,65.1299 52.3653,65.0959 52.3933,65.0609 C52.5323,64.8939 52.6823,64.7269 52.8453,64.5599 C52.9023,64.5009 52.9623,64.4419 53.0233,64.3829 C53.1333,64.2759 53.2563,64.1699 53.3773,64.0629 C53.5563,63.9049 53.7453,63.7489 53.9463,63.5939 C54.0613,63.5049 54.1773,63.4159 54.2983,63.3279 C54.5203,63.1689 54.7583,63.0129 55.0033,62.8579 C55.1633,62.7569 55.3133,62.6539 55.4823,62.5549 C56.0413,62.2309 56.6243,61.9369 57.2243,61.6729 C57.2393,61.6659 57.2553,61.6599 57.2703,61.6539 C57.8553,61.3979 58.4533,61.1719 59.0583,60.9769 C59.1163,60.9579 59.1743,60.9429 59.2323,60.9249 C59.5443,60.8269 59.8573,60.7379 60.1713,60.6569 C60.2853,60.6269 60.3983,60.5999 60.5113,60.5729 C60.7963,60.5039 61.0803,60.4429 61.3633,60.3889 C61.4553,60.3709 61.5473,60.3509 61.6383,60.3349 C62.0503,60.2619 62.4593,60.2049 62.8633,60.1619 C62.9763,60.1499 63.0883,60.1419 63.2003,60.1319 C63.4093,60.1139 63.6173,60.0989 63.8233,60.0899 C63.9573,60.0829 64.0913,60.0779 64.2243,60.0759 C64.3633,60.0729 64.5003,60.0719 64.6363,60.0739 C64.7893,60.0749 64.9413,60.0779 65.0903,60.0849 C65.1943,60.0889 65.2983,60.0939 65.4003,60.1009 C65.5713,60.1129 65.7383,60.1289 65.9043,60.1469 C65.9793,60.1559 66.0563,60.1629 66.1303,60.1729 C66.3673,60.2039 66.5983,60.2419 66.8213,60.2879 C66.8443,60.2929 66.8663,60.2999 66.8893,60.3049 C67.0883,60.3479 67.2813,60.3969 67.4683,60.4519 C67.5753,60.4839 67.6743,60.5209 67.7763,60.5569 C67.8883,60.5949 68.0003,60.6329 68.1063,60.6759 C68.3403,60.7719 68.5643,60.8759 68.7693,60.9939 C69.8633,61.6259 70.3833,62.4989 70.3803,63.4769 L70.3953,58.2139 C70.3983,57.2349 69.8783,56.3629 68.7843,55.7309" id="Fill-92" fill="#AE043D"></path>
                <polygon id="Fill-94" fill="#AE043D" points="69.9057 59.9369 69.8907 65.1999 72.6467 66.7919 72.6617 61.5279"></polygon>
                <polygon id="Fill-96" fill="#C5023A" points="72.6618 61.5282 72.6468 66.7912 88.5558 57.5462 88.5708 52.2832"></polygon>
                <polygon id="Fill-98" fill="#C5023A" points="25.6748 67.3496 25.6598 72.6126 28.4038 71.0186 28.4188 65.7546"></polygon>
                <path d="M26.0922,69.7552 C26.0832,69.7912 26.0732,69.8262 26.0622,69.8612 C26.0012,70.0542 25.9182,70.2412 25.8082,70.4202 C25.7902,70.4492 25.7692,70.4782 25.7502,70.5072 C25.6252,70.6932 25.4802,70.8722 25.3002,71.0392 C25.2802,71.0572 25.2512,71.0722 25.2312,71.0902 C25.0462,71.2532 24.8422,71.4082 24.6002,71.5492 C24.4262,71.6502 24.2392,71.7422 24.0432,71.8272 C23.9792,71.8542 23.9082,71.8772 23.8412,71.9032 C23.7122,71.9542 23.5812,72.0042 23.4442,72.0482 C23.1472,72.1422 22.8322,72.2192 22.5032,72.2822 C22.3972,72.3022 22.2892,72.3192 22.1802,72.3362 C22.0382,72.3582 21.8952,72.3792 21.7482,72.3962 C21.6172,72.4112 21.4832,72.4222 21.3482,72.4332 C21.2202,72.4432 21.0932,72.4522 20.9622,72.4582 C20.8202,72.4652 20.6762,72.4672 20.5302,72.4692 C20.3992,72.4712 20.2682,72.4732 20.1342,72.4712 C19.9932,72.4692 19.8502,72.4622 19.7072,72.4562 C19.5542,72.4492 19.4012,72.4422 19.2462,72.4312 C19.1132,72.4212 18.9782,72.4082 18.8442,72.3952 C18.6572,72.3762 18.4692,72.3562 18.2792,72.3312 C18.1522,72.3142 18.0252,72.2962 17.8962,72.2762 C17.6512,72.2392 17.4032,72.1952 17.1552,72.1472 C17.0492,72.1262 16.9442,72.1072 16.8382,72.0852 C16.4322,71.9992 16.0252,71.8992 15.6192,71.7852 C15.5522,71.7662 15.4862,71.7452 15.4192,71.7252 C14.8662,71.5642 14.3152,71.3802 13.7742,71.1692 C13.6882,71.1352 13.6042,71.0992 13.5182,71.0642 C13.2312,70.9472 12.9472,70.8242 12.6662,70.6932 C12.5622,70.6452 12.4592,70.5972 12.3562,70.5472 C11.9982,70.3712 11.6442,70.1892 11.3022,69.9912 C8.4972,68.3722 6.9782,66.3972 6.9832,64.7352 L6.9682,69.9982 C6.9632,71.6602 8.4822,73.6362 11.2872,75.2552 C11.6292,75.4522 11.9832,75.6352 12.3412,75.8102 C12.4442,75.8602 12.5472,75.9082 12.6512,75.9562 C12.9312,76.0872 13.2152,76.2102 13.5022,76.3272 C13.5652,76.3532 13.6262,76.3842 13.6902,76.4092 C13.7132,76.4182 13.7372,76.4232 13.7592,76.4322 C14.3012,76.6442 14.8512,76.8282 15.4052,76.9892 C15.4432,77.0002 15.4792,77.0162 15.5172,77.0272 C15.5462,77.0352 15.5752,77.0402 15.6042,77.0482 C16.0102,77.1622 16.4172,77.2622 16.8232,77.3482 C16.8532,77.3552 16.8832,77.3642 16.9132,77.3702 C16.9892,77.3862 17.0632,77.3952 17.1392,77.4102 C17.3882,77.4582 17.6362,77.5022 17.8832,77.5402 C17.9452,77.5492 18.0092,77.5642 18.0712,77.5732 C18.1362,77.5822 18.2002,77.5862 18.2642,77.5942 C18.4542,77.6192 18.6412,77.6402 18.8272,77.6582 C18.9102,77.6662 18.9952,77.6792 19.0772,77.6862 C19.1302,77.6902 19.1802,77.6912 19.2322,77.6952 C19.3862,77.7062 19.5382,77.7132 19.6902,77.7192 C19.7842,77.7232 19.8802,77.7322 19.9732,77.7352 C20.0232,77.7362 20.0702,77.7332 20.1192,77.7342 C20.2532,77.7362 20.3832,77.7342 20.5152,77.7332 C20.6082,77.7312 20.7042,77.7352 20.7962,77.7322 C20.8482,77.7302 20.8972,77.7242 20.9482,77.7222 C21.0782,77.7162 21.2052,77.7062 21.3322,77.6962 C21.4172,77.6902 21.5052,77.6882 21.5892,77.6792 C21.6392,77.6742 21.6842,77.6652 21.7332,77.6592 C21.8802,77.6432 22.0232,77.6212 22.1662,77.5992 C22.2442,77.5872 22.3262,77.5802 22.4032,77.5662 C22.4332,77.5612 22.4582,77.5512 22.4872,77.5452 C22.8172,77.4832 23.1322,77.4062 23.4292,77.3112 C23.4452,77.3062 23.4642,77.3042 23.4792,77.2992 C23.6002,77.2592 23.7112,77.2122 23.8252,77.1672 C23.8922,77.1412 23.9632,77.1182 24.0282,77.0902 C24.2242,77.0052 24.4112,76.9142 24.5862,76.8122 C24.6072,76.8002 24.6272,76.7882 24.6482,76.7752 C24.8632,76.6462 25.0452,76.5032 25.2132,76.3562 C25.2342,76.3372 25.2642,76.3212 25.2852,76.3022 C25.2862,76.3012 25.2872,76.3012 25.2882,76.3002 C25.4122,76.1862 25.5222,76.0672 25.6192,75.9432 C25.6632,75.8872 25.6962,75.8282 25.7342,75.7712 C25.7542,75.7422 25.7752,75.7132 25.7932,75.6832 C25.8102,75.6562 25.8312,75.6312 25.8472,75.6042 C25.9112,75.4902 25.9652,75.3732 26.0102,75.2542 C26.0262,75.2122 26.0332,75.1682 26.0472,75.1252 C26.0582,75.0892 26.0682,75.0542 26.0772,75.0182 C26.0902,74.9702 26.1082,74.9242 26.1182,74.8752 C26.1462,74.7352 26.1622,74.5922 26.1662,74.4472 C26.1672,74.4242 26.1672,74.4012 26.1672,74.3782 L26.1822,69.1142 C26.1822,69.3342 26.1472,69.5472 26.0922,69.7552" id="Fill-100" fill="#AE043D"></path>
                <polygon id="Fill-102" fill="#AE043D" points="28.4189 65.7549 28.4039 71.0179 46.9489 81.7259 46.9639 76.4619"></polygon>
                <polygon id="Fill-104" fill="#C5023A" points="46.9643 76.462 46.9493 81.725 62.8583 72.48 62.8733 67.217"></polygon>
                <path d="M70.0253,41.5758 L72.7633,39.9848 C75.6133,40.5048 78.3243,40.3278 80.0153,39.3448 C82.9353,37.6488 81.7123,34.2038 77.2833,31.6468 C72.8553,29.0898 66.9043,28.3928 63.9853,30.0898 C62.2943,31.0728 62.0033,32.6468 62.9053,34.2928 L60.1663,35.8838 L41.6213,25.1768 L25.7123,34.4218 L28.4743,36.0168 C31.3123,35.4928 34.0313,35.6668 35.7333,36.6488 C38.6723,38.3458 37.4823,41.7938 33.0823,44.3508 C28.6883,46.9038 22.7403,47.6048 19.8013,45.9078 C18.0993,44.9248 17.7913,43.3508 18.6863,41.7048 L15.9233,40.1108 L0.0153,49.3558 L18.5603,60.0628 L15.8163,61.6578 C12.9783,61.1378 10.2613,61.3108 8.5703,62.2938 C5.6503,63.9898 6.8733,67.4348 11.3023,69.9918 C15.7303,72.5488 21.6813,73.2458 24.6003,71.5488 C26.2913,70.5658 26.5883,68.9948 25.6743,67.3498 L28.4193,65.7548 L46.9643,76.4618 L62.8733,67.2168 L60.1173,65.6258 C57.2783,66.1488 54.5603,65.9758 52.8523,64.9898 C49.9133,63.2928 51.1033,59.8448 55.4973,57.2918 C59.8973,54.7348 65.8453,54.0338 68.7843,55.7308 C70.4923,56.7168 70.8003,58.2908 69.9053,59.9368 L72.6613,61.5278 L88.5703,52.2828 L70.0253,41.5758 Z" id="Fill-106" fill="#E71A4B"></path>
                <path d="M88.252,65.8316 C88.245,65.9406 88.233,66.0506 88.213,66.1616 C88.204,66.2166 88.191,66.2706 88.178,66.3256 C88.15,66.4506 88.113,66.5756 88.069,66.7026 C88.052,66.7526 88.037,66.8026 88.017,66.8526 C87.951,67.0226 87.875,67.1936 87.782,67.3656 L87.767,72.6296 C87.86,72.4576 87.936,72.2866 88.002,72.1166 C88.009,72.0996 88.019,72.0816 88.026,72.0646 C88.038,72.0306 88.043,71.9986 88.054,71.9656 C88.098,71.8396 88.135,71.7136 88.163,71.5886 C88.17,71.5586 88.184,71.5266 88.19,71.4956 C88.195,71.4716 88.194,71.4496 88.199,71.4256 C88.218,71.3136 88.23,71.2036 88.237,71.0936 C88.24,71.0586 88.249,71.0216 88.25,70.9866 C88.25,70.9616 88.251,70.9376 88.251,70.9126 L88.266,65.6496 C88.266,65.7096 88.256,65.7706 88.252,65.8316" id="Fill-110" fill="#3F8861"></path>
                <polygon id="Fill-112" fill="#40B0C4" points="122.2485 72.0139 122.2335 77.2769 124.9775 75.6829 124.9925 70.4189"></polygon>
                <path d="M77.8697,73.0759 C77.4737,73.1459 77.0807,73.1989 76.6917,73.2409 C76.5367,73.2579 76.3827,73.2709 76.2297,73.2839 C76.0477,73.2979 75.8667,73.3119 75.6887,73.3199 C75.4987,73.3289 75.3117,73.3339 75.1257,73.3359 C75.0107,73.3369 74.8967,73.3389 74.7837,73.3369 C74.5067,73.3329 74.2337,73.3229 73.9687,73.3019 C73.9547,73.3009 73.9407,73.3009 73.9267,73.2999 C73.6497,73.2769 73.3817,73.2419 73.1197,73.2009 C73.0507,73.1899 72.9837,73.1779 72.9167,73.1659 C72.7037,73.1269 72.4957,73.0819 72.2947,73.0309 C72.2457,73.0179 72.1947,73.0079 72.1467,72.9939 C71.8987,72.9259 71.6607,72.8469 71.4357,72.7569 C71.1847,72.6569 70.9477,72.5449 70.7287,72.4189 C69.6337,71.7869 69.1107,70.9119 69.1137,69.9309 L69.0987,75.1939 C69.0957,76.1749 69.6187,77.0499 70.7137,77.6819 C70.9327,77.8089 71.1697,77.9209 71.4207,78.0209 C71.4267,78.0229 71.4317,78.0269 71.4387,78.0289 C71.6417,78.1089 71.8537,78.1809 72.0747,78.2439 C72.0937,78.2489 72.1137,78.2529 72.1317,78.2579 C72.1797,78.2709 72.2307,78.2809 72.2787,78.2939 C72.4067,78.3259 72.5317,78.3609 72.6647,78.3879 C72.7417,78.4039 72.8237,78.4149 72.9027,78.4289 C72.9697,78.4409 73.0357,78.4529 73.1047,78.4639 C73.1577,78.4729 73.2097,78.4839 73.2637,78.4919 C73.4727,78.5209 73.6877,78.5449 73.9057,78.5629 C73.9077,78.5629 73.9107,78.5629 73.9127,78.5639 C73.9247,78.5649 73.9367,78.5649 73.9487,78.5649 C74.1707,78.5829 74.3967,78.5959 74.6277,78.6009 C74.6737,78.6029 74.7227,78.5999 74.7687,78.6009 C74.8817,78.6019 74.9957,78.5999 75.1107,78.5989 C75.2307,78.5979 75.3487,78.6009 75.4707,78.5969 C75.5367,78.5949 75.6067,78.5869 75.6737,78.5829 C75.8527,78.5749 76.0327,78.5619 76.2137,78.5469 C76.3167,78.5389 76.4177,78.5369 76.5207,78.5259 C76.5727,78.5209 76.6257,78.5099 76.6767,78.5049 C77.0677,78.4619 77.4607,78.4089 77.8587,78.3389 C77.8857,78.3339 77.9117,78.3329 77.9377,78.3279 C77.9497,78.3259 77.9607,78.3229 77.9727,78.3209 L77.9877,73.0579 C77.9477,73.0649 77.9097,73.0689 77.8697,73.0759" id="Fill-114" fill="#40B0C4"></path>
                <polygon id="Fill-116" fill="#0C7782" points="77.9876 73.0579 77.9726 78.3209 80.7286 79.9129 80.7436 74.6489"></polygon>
                <path d="M116.2583,77.3848 C116.4913,77.3148 116.7353,77.2558 116.9873,77.2058 C117.0673,77.1898 117.1423,77.1678 117.2243,77.1538 C117.3253,77.1368 117.4323,77.1258 117.5353,77.1108 C117.7183,77.0848 117.9023,77.0598 118.0923,77.0428 C118.1923,77.0338 118.2953,77.0288 118.3973,77.0228 C118.5903,77.0098 118.7853,77.0008 118.9843,76.9968 C119.0983,76.9948 119.2133,76.9948 119.3283,76.9958 C119.5193,76.9978 119.7133,77.0038 119.9093,77.0128 C120.0393,77.0178 120.1683,77.0248 120.2993,77.0338 C120.4823,77.0468 120.6673,77.0658 120.8523,77.0848 C121.0113,77.1018 121.1713,77.1178 121.3323,77.1388 C121.6313,77.1788 121.9313,77.2218 122.2333,77.2768 L122.2483,72.0138 C122.0013,71.9688 121.7543,71.9288 121.5093,71.8938 C121.4553,71.8858 121.4023,71.8828 121.3483,71.8758 C121.1863,71.8538 121.0273,71.8378 120.8673,71.8218 C120.7453,71.8088 120.6213,71.7898 120.5013,71.7798 C120.4383,71.7748 120.3763,71.7748 120.3133,71.7698 C120.1823,71.7608 120.0543,71.7548 119.9263,71.7488 C119.8193,71.7438 119.7103,71.7338 119.6053,71.7318 C119.5163,71.7298 119.4313,71.7328 119.3433,71.7328 C119.2273,71.7318 119.1123,71.7318 118.9983,71.7338 C118.9263,71.7348 118.8513,71.7328 118.7803,71.7348 C118.6553,71.7388 118.5363,71.7508 118.4133,71.7588 C118.3113,71.7658 118.2073,71.7698 118.1073,71.7788 C118.0683,71.7828 118.0273,71.7828 117.9893,71.7868 C117.8383,71.8018 117.6963,71.8268 117.5503,71.8478 C117.4473,71.8618 117.3403,71.8728 117.2393,71.8908 C117.2193,71.8938 117.1973,71.8958 117.1773,71.8988 C117.1163,71.9098 117.0633,71.9298 117.0033,71.9418 C116.7513,71.9928 116.5063,72.0518 116.2723,72.1218 C116.2293,72.1348 116.1803,72.1408 116.1373,72.1548 C116.0343,72.1878 115.9393,72.2288 115.8403,72.2668 C115.7683,72.2928 115.6953,72.3178 115.6263,72.3468 C115.4063,72.4378 115.1963,72.5368 115.0023,72.6498 C114.9843,72.6608 114.9653,72.6708 114.9473,72.6818 C114.7113,72.8238 114.5053,72.9788 114.3253,73.1428 C114.3183,73.1488 114.3083,73.1538 114.3023,73.1598 C114.3013,73.1598 114.3013,73.1598 114.3013,73.1608 C114.1753,73.2768 114.0633,73.3978 113.9643,73.5228 C113.9203,73.5788 113.8863,73.6388 113.8483,73.6958 C113.8283,73.7258 113.8073,73.7538 113.7893,73.7838 C113.7733,73.8108 113.7513,73.8358 113.7353,73.8638 C113.6713,73.9778 113.6163,74.0948 113.5723,74.2148 C113.5563,74.2568 113.5483,74.3018 113.5343,74.3448 C113.5233,74.3798 113.5133,74.4158 113.5043,74.4508 C113.4913,74.4998 113.4733,74.5468 113.4633,74.5958 C113.4353,74.7368 113.4193,74.8808 113.4143,75.0268 C113.4143,75.0498 113.4133,75.0728 113.4133,75.0948 L113.3983,80.3588 C113.3993,80.1378 113.4343,79.9238 113.4893,79.7148 C113.4993,79.6788 113.5083,79.6438 113.5193,79.6078 C113.5803,79.4138 113.6643,79.2268 113.7743,79.0468 C113.7923,79.0178 113.8133,78.9888 113.8333,78.9598 C113.9583,78.7718 114.1053,78.5908 114.2873,78.4228 C114.2933,78.4168 114.3033,78.4118 114.3103,78.4058 C114.5043,78.2298 114.7283,78.0638 114.9873,77.9128 C115.1813,77.8008 115.3923,77.7008 115.6113,77.6098 C115.6803,77.5808 115.7533,77.5568 115.8233,77.5298 C115.9643,77.4778 116.1093,77.4298 116.2583,77.3848" id="Fill-118" fill="#0C7782"></path>
                <path d="M132.1071,77.7058 L132.0921,82.9688 C132.2611,83.2728 132.3881,83.5738 132.4731,83.8688 C132.5581,84.1638 132.6001,84.4538 132.6001,84.7338 L132.6151,79.4708 C132.6161,78.9098 132.4441,78.3128 132.1071,77.7058" id="Fill-120" fill="#3F8861"></path>
                <path d="M100.4797,90.3751 C100.1377,90.1771 99.7837,89.9951 99.4257,89.8201 C99.3227,89.7701 99.2187,89.7221 99.1157,89.6741 C98.8347,89.5431 98.5507,89.4191 98.2627,89.3021 C98.1997,89.2771 98.1397,89.2461 98.0767,89.2211 C98.0537,89.2121 98.0307,89.2071 98.0077,89.1981 C97.4657,88.9861 96.9147,88.8021 96.3617,88.6411 C96.3237,88.6301 96.2867,88.6131 96.2487,88.6031 C96.2207,88.5941 96.1917,88.5901 96.1627,88.5811 C95.7567,88.4681 95.3497,88.3681 94.9437,88.2821 C94.9137,88.2751 94.8837,88.2661 94.8537,88.2601 C94.7777,88.2441 94.7027,88.2351 94.6257,88.2201 C94.3777,88.1721 94.1307,88.1281 93.8847,88.0901 C93.8217,88.0811 93.7577,88.0661 93.6957,88.0571 C93.6297,88.0481 93.5667,88.0441 93.5017,88.0351 C93.3117,88.0101 93.1247,87.9901 92.9367,87.9721 C92.8547,87.9641 92.7707,87.9511 92.6897,87.9441 C92.6377,87.9391 92.5877,87.9391 92.5357,87.9351 C92.3807,87.9241 92.2277,87.9171 92.0747,87.9101 C91.9817,87.9061 91.8857,87.8971 91.7927,87.8951 C91.7437,87.8941 91.6967,87.8961 91.6477,87.8961 C91.5137,87.8941 91.3827,87.8951 91.2507,87.8971 C91.1577,87.8981 91.0617,87.8951 90.9707,87.8981 C90.9187,87.9001 90.8697,87.9061 90.8187,87.9081 C90.6887,87.9141 90.5607,87.9241 90.4337,87.9341 C90.3487,87.9401 90.2607,87.9421 90.1777,87.9501 C90.1277,87.9551 90.0827,87.9651 90.0337,87.9701 C89.8867,87.9871 89.7437,88.0081 89.6017,88.0301 C89.5227,88.0421 89.4407,88.0491 89.3637,88.0631 C89.3337,88.0691 89.3077,88.0791 89.2787,88.0851 C88.9497,88.1471 88.6347,88.2241 88.3367,88.3191 C88.3217,88.3241 88.3027,88.3261 88.2877,88.3311 C88.1667,88.3701 88.0557,88.4181 87.9417,88.4631 C87.8737,88.4891 87.8027,88.5121 87.7377,88.5401 C87.5427,88.6241 87.3557,88.7161 87.1807,88.8181 C87.1597,88.8301 87.1397,88.8421 87.1187,88.8541 C87.1037,88.8641 87.0937,88.8751 87.0787,88.8841 C86.8557,89.0221 86.6537,89.1691 86.4817,89.3281 C86.4817,89.3281 86.4807,89.3281 86.4807,89.3281 C86.4777,89.3311 86.4757,89.3341 86.4727,89.3371 C86.3637,89.4391 86.2677,89.5451 86.1797,89.6541 C86.1707,89.6641 86.1587,89.6741 86.1507,89.6841 C86.1267,89.7151 86.1097,89.7481 86.0877,89.7781 C86.0417,89.8431 85.9967,89.9071 85.9567,89.9731 C85.9467,89.9911 85.9327,90.0071 85.9227,90.0241 C85.9057,90.0541 85.8957,90.0861 85.8797,90.1161 C85.8477,90.1791 85.8167,90.2431 85.7897,90.3081 C85.7807,90.3311 85.7677,90.3531 85.7587,90.3751 C85.7487,90.4021 85.7447,90.4301 85.7357,90.4571 C85.7117,90.5281 85.6917,90.5991 85.6737,90.6721 C85.6677,90.7011 85.6557,90.7281 85.6497,90.7571 C85.6457,90.7771 85.6467,90.7981 85.6427,90.8191 C85.6267,90.9111 85.6177,91.0041 85.6117,91.0991 C85.6097,91.1291 85.6027,91.1581 85.6017,91.1881 C85.6007,91.2111 85.6007,91.2351 85.6007,91.2581 L85.5857,96.5211 C85.5857,96.4681 85.5937,96.4151 85.5967,96.3621 C85.6027,96.2681 85.6117,96.1741 85.6277,96.0821 C85.6367,96.0331 85.6477,95.9841 85.6597,95.9351 C85.6767,95.8631 85.6967,95.7911 85.7207,95.7211 C85.7377,95.6701 85.7547,95.6201 85.7757,95.5711 C85.8017,95.5061 85.8327,95.4431 85.8647,95.3801 C85.8897,95.3321 85.9137,95.2841 85.9417,95.2371 C85.9817,95.1701 86.0267,95.1061 86.0727,95.0421 C86.1027,95.0001 86.1317,94.9581 86.1647,94.9171 C86.2527,94.8081 86.3487,94.7021 86.4577,94.6011 C86.4607,94.5971 86.4637,94.5941 86.4667,94.5911 C86.6387,94.4331 86.8407,94.2861 87.0637,94.1481 C87.0987,94.1261 87.1297,94.1021 87.1657,94.0811 C87.3407,93.9801 87.5277,93.8881 87.7227,93.8031 C87.7887,93.7751 87.8597,93.7521 87.9277,93.7261 C88.0567,93.6751 88.1857,93.6261 88.3217,93.5821 C88.6187,93.4881 88.9347,93.4111 89.2637,93.3481 C89.3697,93.3281 89.4777,93.3111 89.5867,93.2941 C89.7287,93.2721 89.8717,93.2501 90.0177,93.2341 C90.1497,93.2191 90.2847,93.2071 90.4197,93.1971 C90.5467,93.1871 90.6737,93.1781 90.8027,93.1721 C90.9457,93.1651 91.0907,93.1621 91.2367,93.1611 C91.3677,93.1591 91.4987,93.1571 91.6327,93.1591 C91.7737,93.1611 91.9177,93.1681 92.0617,93.1741 C92.2137,93.1811 92.3657,93.1871 92.5197,93.1991 C92.6537,93.2081 92.7887,93.2221 92.9237,93.2351 C93.1107,93.2541 93.2977,93.2741 93.4867,93.2991 C93.6137,93.3151 93.7407,93.3341 93.8687,93.3531 C94.1157,93.3911 94.3637,93.4351 94.6127,93.4831 C94.7177,93.5041 94.8227,93.5231 94.9287,93.5451 C95.3347,93.6311 95.7417,93.7311 96.1477,93.8451 C96.2147,93.8631 96.2807,93.8851 96.3467,93.9041 C96.8997,94.0651 97.4507,94.2501 97.9927,94.4611 C98.0787,94.4951 98.1627,94.5311 98.2477,94.5651 C98.5357,94.6831 98.8207,94.8071 99.1017,94.9381 C99.2047,94.9861 99.3077,95.0331 99.4097,95.0831 C99.7677,95.2581 100.1227,95.4411 100.4647,95.6381 C103.2697,97.2581 104.7887,99.2331 104.7837,100.8951 L104.7987,95.6311 C104.8037,93.9691 103.2847,91.9941 100.4797,90.3751" id="Fill-122" fill="#0C7782"></path>
                <polygon id="Fill-124" fill="#40B0C4" points="83.3627 94.6118 83.3477 99.8748 86.0857 98.2838 86.1007 93.0208"></polygon>
                <polygon id="Fill-126" fill="#0C7782" points="64.8174 83.9046 64.8024 89.1676 83.3474 99.8756 83.3624 94.6116"></polygon>
                <polygon id="Fill-128" fill="#40B0C4" points="137.4877 96.0634 137.4727 101.3264 153.3817 92.0814 153.3967 86.8184"></polygon>
                <polygon id="Fill-130" fill="#0C7782" points="127.6931 101.7554 127.6781 107.0184 130.4401 108.6134 130.4551 103.3504"></polygon>
                <path d="M149.0511,101.3952 C149.0391,101.4502 149.0171,101.5062 149.0031,101.5612 C148.9651,101.7072 148.9211,101.8552 148.8621,102.0042 C148.8211,102.1062 148.7671,102.2102 148.7161,102.3132 C148.6611,102.4262 148.6081,102.5392 148.5421,102.6532 C148.4361,102.8342 148.3081,103.0162 148.1731,103.1982 C148.1271,103.2612 148.0901,103.3242 148.0401,103.3872 C148.0131,103.4212 147.9811,103.4542 147.9541,103.4872 C147.8151,103.6552 147.6631,103.8232 147.5001,103.9912 C147.4421,104.0502 147.3831,104.1092 147.3221,104.1682 C147.2121,104.2752 147.0891,104.3812 146.9681,104.4872 C146.7891,104.6452 146.6001,104.8022 146.4001,104.9572 C146.2851,105.0462 146.1691,105.1352 146.0471,105.2222 C145.8251,105.3822 145.5871,105.5382 145.3431,105.6922 C145.1831,105.7932 145.0331,105.8972 144.8641,105.9952 C144.3061,106.3192 143.7231,106.6132 143.1251,106.8762 C143.1101,106.8822 143.0961,106.8882 143.0821,106.8942 C142.4971,107.1492 141.8981,107.3762 141.2931,107.5712 C141.2391,107.5882 141.1861,107.6022 141.1321,107.6192 C140.8161,107.7182 140.4991,107.8082 140.1811,107.8902 C140.0681,107.9202 139.9551,107.9472 139.8421,107.9742 C139.5601,108.0412 139.2781,108.1022 138.9971,108.1562 C138.9031,108.1742 138.8091,108.1942 138.7161,108.2112 C138.3031,108.2842 137.8951,108.3412 137.4911,108.3842 C137.3781,108.3962 137.2661,108.4042 137.1541,108.4142 C136.9451,108.4322 136.7361,108.4472 136.5301,108.4562 C136.3951,108.4622 136.2611,108.4672 136.1271,108.4702 C135.9881,108.4732 135.8501,108.4732 135.7131,108.4722 C135.5601,108.4712 135.4081,108.4672 135.2591,108.4602 C135.1551,108.4562 135.0511,108.4512 134.9491,108.4442 C134.7771,108.4322 134.6081,108.4162 134.4411,108.3972 C134.3671,108.3892 134.2911,108.3822 134.2181,108.3722 C133.9811,108.3412 133.7501,108.3032 133.5271,108.2572 C133.4981,108.2512 133.4721,108.2422 133.4441,108.2362 C133.2501,108.1942 133.0611,108.1462 132.8791,108.0922 C132.7721,108.0602 132.6721,108.0232 132.5701,107.9872 C132.4581,107.9482 132.3461,107.9112 132.2391,107.8682 C132.0061,107.7722 131.7821,107.6682 131.5761,107.5492 C130.4851,106.9192 129.9671,106.0462 129.9701,105.0682 L129.9551,110.3312 C129.9521,111.3092 130.4701,112.1832 131.5621,112.8132 C131.7671,112.9312 131.9911,113.0352 132.2241,113.1312 C132.2441,113.1392 132.2601,113.1492 132.2791,113.1572 C132.3671,113.1922 132.4651,113.2192 132.5561,113.2512 C132.6581,113.2862 132.7581,113.3242 132.8641,113.3552 C132.8861,113.3622 132.9051,113.3702 132.9281,113.3772 C133.0901,113.4232 133.2591,113.4622 133.4291,113.5002 C133.4571,113.5062 133.4841,113.5142 133.5121,113.5202 C133.5161,113.5212 133.5191,113.5222 133.5231,113.5232 C133.7191,113.5632 133.9201,113.5982 134.1251,113.6272 C134.1511,113.6312 134.1771,113.6322 134.2031,113.6362 C134.2761,113.6462 134.3521,113.6522 134.4261,113.6612 C134.5401,113.6732 134.6531,113.6892 134.7701,113.6992 C134.8241,113.7032 134.8801,113.7042 134.9341,113.7072 C135.0361,113.7142 135.1391,113.7192 135.2421,113.7242 C135.3251,113.7272 135.4051,113.7352 135.4881,113.7372 C135.5571,113.7382 135.6291,113.7352 135.6991,113.7362 C135.8361,113.7372 135.9731,113.7362 136.1121,113.7332 C136.1851,113.7322 136.2551,113.7352 136.3291,113.7322 C136.3901,113.7302 136.4541,113.7222 136.5161,113.7192 C136.7221,113.7102 136.9291,113.6952 137.1391,113.6772 C137.2181,113.6702 137.2941,113.6692 137.3731,113.6612 C137.4071,113.6582 137.4421,113.6512 137.4761,113.6472 C137.8801,113.6042 138.2881,113.5472 138.7011,113.4742 C138.7271,113.4702 138.7521,113.4682 138.7791,113.4632 C138.8461,113.4512 138.9141,113.4332 138.9821,113.4202 C139.2631,113.3652 139.5441,113.3052 139.8271,113.2372 C139.9401,113.2102 140.0531,113.1832 140.1661,113.1542 C140.4841,113.0712 140.8021,112.9812 141.1191,112.8822 C141.1641,112.8682 141.2091,112.8572 141.2541,112.8432 C141.2621,112.8402 141.2701,112.8372 141.2771,112.8342 C141.8831,112.6392 142.4821,112.4132 143.0671,112.1572 C143.0811,112.1512 143.0961,112.1462 143.1101,112.1392 C143.7081,111.8762 144.2911,111.5832 144.8491,111.2592 C144.9241,111.2152 144.9991,111.1702 145.0731,111.1262 C145.1641,111.0712 145.2391,111.0122 145.3281,110.9562 C145.5731,110.8012 145.8101,110.6452 146.0321,110.4862 C146.1541,110.3982 146.2691,110.3092 146.3841,110.2202 C146.5851,110.0652 146.7741,109.9092 146.9531,109.7512 C147.0131,109.6982 147.0871,109.6472 147.1441,109.5932 C147.2021,109.5392 147.2521,109.4852 147.3081,109.4312 C147.3681,109.3722 147.4281,109.3132 147.4851,109.2542 C147.6481,109.0872 147.7981,108.9202 147.9371,108.7532 C147.9651,108.7182 147.9981,108.6842 148.0251,108.6502 C148.0331,108.6402 148.0431,108.6302 148.0511,108.6202 C148.0921,108.5682 148.1181,108.5162 148.1571,108.4642 C148.2921,108.2812 148.4201,108.0982 148.5271,107.9162 C148.5411,107.8922 148.5611,107.8692 148.5751,107.8452 C148.6261,107.7552 148.6581,107.6662 148.7011,107.5772 C148.7521,107.4732 148.8061,107.3702 148.8471,107.2672 C148.8561,107.2442 148.8711,107.2202 148.8801,107.1972 C148.9271,107.0712 148.9561,106.9482 148.9881,106.8242 C149.0031,106.7692 149.0251,106.7132 149.0361,106.6582 C149.0381,106.6492 149.0421,106.6402 149.0441,106.6302 C149.0791,106.4592 149.0981,106.2902 149.1031,106.1242 C149.1041,106.0992 149.1041,106.0742 149.1051,106.0492 L149.1191,100.7862 C149.1191,100.9852 149.0941,101.1882 149.0511,101.3952" id="Fill-132" fill="#40B0C4"></path>
                <polygon id="Fill-134" fill="#40B0C4" points="111.7667 111.0108 111.7517 116.2738 127.6787 107.0188 127.6927 101.7558"></polygon>
                <polygon id="Fill-136" fill="#0C7782" points="93.2214 100.3037 93.2064 105.5667 111.7514 116.2737 111.7664 111.0107"></polygon>
                <path d="M147.5029,98.2939 C145.8009,97.3109 143.0879,97.1349 140.2499,97.6579 L137.4879,96.0629 L153.3969,86.8179 L134.8509,76.1109 L132.1069,77.7059 C133.0199,79.3519 132.7239,80.9219 131.0329,81.9049 C128.1129,83.6019 122.1569,82.9079 117.7279,80.3509 C113.2999,77.7939 112.0829,74.3459 115.0029,72.6499 C116.6929,71.6669 119.4099,71.4939 122.2489,72.0139 L124.9929,70.4189 L106.4469,59.7119 L90.5389,68.9569 L87.7819,67.3659 C88.6709,65.7169 88.3569,64.1459 86.6549,63.1629 C83.7159,61.4669 77.7739,62.1639 73.3739,64.7209 C68.9739,67.2779 67.7899,70.7219 70.7289,72.4189 C72.4309,73.4009 75.1489,73.5749 77.9879,73.0579 L80.7439,74.6489 L64.8169,83.9049 L83.3629,94.6119 L86.1009,93.0209 C85.1999,91.3749 85.4899,89.8009 87.1809,88.8179 C90.1009,87.1209 96.0509,87.8179 100.4799,90.3749 C104.9079,92.9319 106.1309,96.3759 103.2119,98.0729 C101.5209,99.0559 98.8099,99.2329 95.9599,98.7119 L93.2209,100.3039 L111.7669,111.0109 L127.6929,101.7549 L130.4549,103.3499 C129.5659,104.9919 129.8749,106.5669 131.5769,107.5489 C134.5149,109.2459 140.4639,108.5519 144.8639,105.9949 C149.2639,103.4379 150.4419,99.9909 147.5029,98.2939" id="Fill-138" fill="#199AB1"></path>
                <g id="Group-142" transform="translate(41.000000, 0.911000)">
                    <mask id="mask-10" fill="white">
                        <use xlink:href="#path-9"></use>
                    </mask>
                    <g id="Clip-141"></g>
                    <path d="M83.1281,38.6706 C81.4261,37.6876 78.7131,37.5116 75.8751,38.0346 L73.1131,36.4406 L89.0221,27.1946 L70.4761,16.4876 L67.7321,18.0826 C68.6451,19.7286 68.3491,21.2986 66.6581,22.2816 C63.7381,23.9786 57.7821,23.2846 53.3541,20.7276 C48.9251,18.1706 47.7081,14.7236 50.6281,13.0266 C52.3181,12.0436 55.0351,11.8706 57.8741,12.3906 L60.6181,10.7956 L42.0721,0.0886 L26.1631,9.3336 L23.4071,7.7426 C24.2961,6.0936 23.9821,4.5226 22.2801,3.5396 C19.3411,1.8436 13.3991,2.5406 8.9991,5.0976 C4.5991,7.6546 3.4151,11.0986 6.3541,12.7956 C8.0561,13.7776 10.7741,13.9516 13.6131,13.4346 L16.3691,15.0256 L0.4421,24.2816 L18.9881,34.9886 L21.7261,33.3976 C20.8251,31.7516 21.1151,30.1776 22.8061,29.1946 C25.7261,27.4976 31.6761,28.1946 36.1051,30.7516 C40.5341,33.3086 41.7561,36.7526 38.8371,38.4496 C37.1461,39.4326 34.4351,39.6096 31.5851,39.0886 L28.8461,40.6806 L47.3921,51.3876 L63.3181,42.1316 L66.0801,43.7266 C65.1911,45.3686 65.5001,46.9436 67.2021,47.9256 C70.1401,49.6226 76.0891,48.9286 80.4891,46.3726 C84.8891,43.8156 86.0671,40.3676 83.1281,38.6706" id="Fill-140" fill="#F6931E" mask="url(#mask-10)"></path>
                </g>
            </g>
        </g>
    </g>
</svg>