<?xml version="1.0" encoding="UTF-8"?>
<svg width="295px" height="295px" viewBox="0 0 295 295" version="1.1" xmlns="http://www.w3.org/2000/svg" xmlns:xlink="http://www.w3.org/1999/xlink">
    <!-- Generator: Sketch 46.2 (44496) - http://www.bohemiancoding.com/sketch -->
    <title>Phone web</title>
    <desc>Created with Sketch.</desc>
    <defs>
        <path d="M177.001862,0 L10.9981382,0 C4.91876531,0 0,4.91351936 0,10.9864085 L0,114.225523 C0,120.28001 4.91876531,125.193529 10.9981382,125.193529 L82.5873591,125.193529 C82.7163155,131.21121 82.5873591,142.271229 80.100343,146.8535 C80.100343,146.8535 72.7314062,150.975704 72.1418912,153 L115.839686,153 C115.268594,150.975704 107.899657,146.8535 107.899657,146.8535 C105.412641,142.271229 105.283684,131.21121 105.412641,125.193529 L177.001862,125.193529 C183.081235,125.193529 188,120.28001 188,114.225523 L188,10.9864085 C188,4.91351936 183.081235,0 177.001862,0 Z" id="path-1"></path>
        <filter x="-1.7%" y="-2.1%" width="104.5%" height="108.2%" filterUnits="objectBoundingBox" id="filter-2">
            <feMorphology radius="0.25" operator="dilate" in="SourceAlpha" result="shadowSpreadOuter1"></feMorphology>
            <feOffset dx="2" dy="6" in="shadowSpreadOuter1" result="shadowOffsetOuter1"></feOffset>
            <feComposite in="shadowOffsetOuter1" in2="SourceAlpha" operator="out" result="shadowOffsetOuter1"></feComposite>
            <feColorMatrix values="0 0 0 0 0   0 0 0 0 0   0 0 0 0 0  0 0 0 0.135586504 0" type="matrix" in="shadowOffsetOuter1"></feColorMatrix>
        </filter>
    </defs>
    <g id="Styled-Pages" stroke="none" stroke-width="1" fill="none" fill-rule="evenodd">
        <g id="Home-(Mobile)" transform="translate(-41.000000, -1392.000000)">
            <g id="Phone-web" transform="translate(41.000000, 1392.000000)">
                <g id="Group-5" opacity="0.567255435">
                    <circle id="Oval-6" fill="#42B6C1" opacity="0.0838994565" cx="147.5" cy="147.5" r="147.5"></circle>
                    <circle id="Oval-6" fill="#28CFD0" opacity="0.087352808" cx="148" cy="148" r="104"></circle>
                </g>
                <g id="Monitor-sketch" transform="translate(53.000000, 93.000000)">
                    <g id="Web">
                        <path d="M177.001862,0 L10.9981382,0 C4.91876531,0 0,4.91351936 0,10.9864085 L0,114.225523 C0,120.28001 4.91876531,125.193529 10.9981382,125.193529 L82.5873591,125.193529 C82.7163155,131.21121 82.5873591,142.271229 80.100343,146.8535 C80.100343,146.8535 72.7314062,150.975704 72.1418912,153 L115.839686,153 C115.268594,150.975704 107.899657,146.8535 107.899657,146.8535 C105.412641,142.271229 105.283684,131.21121 105.412641,125.193529 L177.001862,125.193529 C183.081235,125.193529 188,120.28001 188,114.225523 L188,10.9864085 C188,4.91351936 183.081235,0 177.001862,0" id="Fill-52" fill="#FFFFFF"></path>
                        <g id="Stroke-53">
                            <use fill="black" fill-opacity="1" filter="url(#filter-2)" xlink:href="#path-1"></use>
                            <use stroke="#333133" stroke-width="0.5" fill="#FFFFFF" fill-rule="evenodd" xlink:href="#path-1"></use>
                        </g>
                        <path d="M181.01548,89.6570518 C181.01548,95.7212139 176.101729,100.642586 170.046956,100.642586 L17.3894037,100.642586 C11.316228,100.642586 6.40247678,95.7212139 6.40247678,89.6570518 L6.40247678,17.3847733 C6.40247678,11.3206112 11.316228,6.39923954 17.3894037,6.39923954 L170.046956,6.39923954 C176.101729,6.39923954 181.01548,11.3206112 181.01548,17.3847733 L181.01548,89.6570518 Z" id="Fill-54" fill="#199AB1" opacity="0.0895606884"></path>
                        <path d="M181.01548,89.6570518 C181.01548,95.7212139 176.101729,100.642586 170.046956,100.642586 L17.3894037,100.642586 C11.316228,100.642586 6.40247678,95.7212139 6.40247678,89.6570518 L6.40247678,17.3847733 C6.40247678,11.3206112 11.316228,6.39923954 17.3894037,6.39923954 L170.046956,6.39923954 C176.101729,6.39923954 181.01548,11.3206112 181.01548,17.3847733 L181.01548,89.6570518 Z" id="Stroke-55" stroke="#3F3F3F" stroke-width="0.5"></path>
                        <g id="Group-8" opacity="0.0527060688" transform="translate(146.092879, 18.034221)">
                            <path d="M0,41.8811301 C0,43.169275 1.06184355,44.2129278 2.37244066,44.2129278 L27.8938132,44.2129278 C29.2044103,44.2129278 30.2662539,43.169275 30.2662539,41.8811301 L30.2662539,2.33362226 C30.2662539,1.0436528 29.2044103,0 27.8938132,0 L2.37244066,0 C1.06184355,0 0,1.0436528 0,2.33362226 L0,41.8811301 Z" id="Stroke-56" stroke="#262526" stroke-width="0.5" opacity="0.110224185"></path>
                            <path d="M1.74613003,2.90874525 C1.74613003,3.22982929 2.01843046,3.4904943 2.35384687,3.4904943 L23.2560602,3.4904943 C23.5914767,3.4904943 23.8637771,3.22982929 23.8637771,2.90874525 C23.8637771,2.5876612 23.5914767,2.3269962 23.2560602,2.3269962 L2.35384687,2.3269962 C2.01843046,2.3269962 1.74613003,2.5876612 1.74613003,2.90874525 C1.74613003,2.90874525 1.74613003,2.5876612 1.74613003,2.90874525" id="Fill-57" fill="#3F3F3F"></path>
                            <path d="M1.74613003,5.81749049 C1.74613003,6.13857454 2.02932173,6.39923954 2.3781539,6.39923954 L12.7568485,6.39923954 C13.1056806,6.39923954 13.3869969,6.13857454 13.3869969,5.81749049 C13.3869969,5.49640645 13.1056806,5.23574144 12.7568485,5.23574144 L2.3781539,5.23574144 C2.02932173,5.23574144 1.74613003,5.49640645 1.74613003,5.81749049 C1.74613003,5.81749049 1.74613003,5.49640645 1.74613003,5.81749049" id="Fill-58" fill="#3F3F3F"></path>
                            <path d="M1.74613003,8.14448669 C1.74613003,8.46557074 2.01843046,8.72623574 2.35384687,8.72623574 L23.2560602,8.72623574 C23.5914767,8.72623574 23.8637771,8.46557074 23.8637771,8.14448669 C23.8637771,7.82340265 23.5914767,7.56273764 23.2560602,7.56273764 L2.35384687,7.56273764 C2.01843046,7.56273764 1.74613003,7.82340265 1.74613003,8.14448669 C1.74613003,8.14448669 1.74613003,7.82340265 1.74613003,8.14448669" id="Fill-59" fill="#3F3F3F"></path>
                            <path d="M1.74613003,11.0532319 C1.74613003,11.374316 2.02403139,11.634981 2.36634696,11.634981 L19.1692568,11.634981 C19.5115723,11.634981 19.7894737,11.374316 19.7894737,11.0532319 C19.7894737,10.7321479 19.5115723,10.4714829 19.1692568,10.4714829 L2.36634696,10.4714829 C2.02403139,10.4714829 1.74613003,10.7321479 1.74613003,11.0532319 C1.74613003,11.0532319 1.74613003,10.7321479 1.74613003,11.0532319" id="Fill-60" fill="#3F3F3F"></path>
                            <path d="M1.74613003,13.9619772 C1.74613003,14.2830612 2.02852807,14.5437262 2.37638261,14.5437262 L11.5926576,14.5437262 C11.9405122,14.5437262 12.2229102,14.2830612 12.2229102,13.9619772 C12.2229102,13.6408931 11.9405122,13.3802281 11.5926576,13.3802281 L2.37638261,13.3802281 C2.02852807,13.3802281 1.74613003,13.6408931 1.74613003,13.9619772 C1.74613003,13.9619772 1.74613003,13.6408931 1.74613003,13.9619772" id="Fill-61" fill="#3F3F3F"></path>
                            <path d="M25.0278638,27.9239544 C25.0278638,34.0288115 20.0769856,38.9771863 13.9690402,38.9771863 C7.86109485,38.9771863 2.91021672,34.0288115 2.91021672,27.9239544 C2.91021672,21.8190973 7.86109485,16.8707224 13.9690402,16.8707224 C20.0769856,16.8707224 25.0278638,21.8190973 25.0278638,27.9239544" id="Fill-62" fill="#D521A8"></path>
                        </g>
                        <g id="Group-4" opacity="0.118036685" transform="translate(11.640867, 18.615970)">
                            <path d="M0,68.6379398 C0,69.9280991 1.05966408,70.973384 2.36757114,70.973384 L32.5550295,70.973384 C33.8629365,70.973384 34.9226006,69.9280991 34.9226006,68.6379398 L34.9226006,2.33544428 C34.9226006,1.04528492 33.8629365,0 32.5550295,0 L2.36757114,0 C1.05966408,0 0,1.04528492 0,2.33544428 L0,68.6379398 Z" id="Stroke-63" stroke="#D5D5D5" stroke-width="0.5"></path>
                            <path d="M3.49226006,5.23574144 C3.49226006,5.55682549 3.76456049,5.81749049 4.0999769,5.81749049 L25.0021903,5.81749049 C25.3376067,5.81749049 25.6099071,5.55682549 25.6099071,5.23574144 C25.6099071,4.9146574 25.3376067,4.6539924 25.0021903,4.6539924 L4.0999769,4.6539924 C3.76456049,4.6539924 3.49226006,4.9146574 3.49226006,5.23574144 C3.49226006,5.23574144 3.49226006,4.9146574 3.49226006,5.23574144" id="Fill-64" fill="#B2B2B2"></path>
                            <path d="M3.49226006,7.56273764 C3.49226006,7.88382169 3.77545176,8.14448669 4.12428393,8.14448669 L14.5029785,8.14448669 C14.8518107,8.14448669 15.1331269,7.88382169 15.1331269,7.56273764 C15.1331269,7.2416536 14.8518107,6.98098859 14.5029785,6.98098859 L4.12428393,6.98098859 C3.77545176,6.98098859 3.49226006,7.2416536 3.49226006,7.56273764 C3.49226006,7.56273764 3.49226006,7.2416536 3.49226006,7.56273764" id="Fill-65" fill="#B2B2B2"></path>
                            <path d="M3.49226006,33.7414449 C3.49226006,34.0625289 3.76456049,34.3231939 4.0999769,34.3231939 L25.0021903,34.3231939 C25.3376067,34.3231939 25.6099071,34.0625289 25.6099071,33.7414449 C25.6099071,33.4203608 25.3376067,33.1596958 25.0021903,33.1596958 L4.0999769,33.1596958 C3.76456049,33.1596958 3.49226006,33.4203608 3.49226006,33.7414449 C3.49226006,33.7414449 3.49226006,33.4203608 3.49226006,33.7414449" id="Fill-66" fill="#E8E8E8"></path>
                            <path d="M3.49226006,36.0684411 C3.49226006,36.3895251 3.77016142,36.6501901 4.11247699,36.6501901 L20.9153868,36.6501901 C21.2577024,36.6501901 21.5356037,36.3895251 21.5356037,36.0684411 C21.5356037,35.747357 21.2577024,35.486692 20.9153868,35.486692 L4.11247699,35.486692 C3.77016142,35.486692 3.49226006,35.747357 3.49226006,36.0684411 C3.49226006,36.0684411 3.49226006,35.747357 3.49226006,36.0684411" id="Fill-67" fill="#E8E8E8"></path>
                            <path d="M4.65634675,38.9771863 C4.65634675,39.2982704 4.93874479,39.5589354 5.28659932,39.5589354 L14.5028744,39.5589354 C14.8507289,39.5589354 15.1331269,39.2982704 15.1331269,38.9771863 C15.1331269,38.6561023 14.8507289,38.3954373 14.5028744,38.3954373 L5.28659932,38.3954373 C4.93874479,38.3954373 4.65634675,38.6561023 4.65634675,38.9771863 C4.65634675,38.9771863 4.65634675,38.6561023 4.65634675,38.9771863" id="Fill-68" fill="#E8E8E8"></path>
                            <path d="M5.23839009,43.8533377 C5.23839009,45.0161038 6.27004195,45.9581749 7.54337449,45.9581749 L15.1563159,45.9581749 C16.4296485,45.9581749 17.4613003,45.0161038 17.4613003,43.8533377 L17.4613003,42.8272707 C17.4613003,41.6645046 16.4296485,40.7224335 15.1563159,40.7224335 L7.54337449,40.7224335 C6.27004195,40.7224335 5.23839009,41.6645046 5.23839009,42.8272707 L5.23839009,43.8533377 Z" id="Fill-69" fill="#88C1AA"></path>
                            <path d="M4.65634675,27.9595068 C4.65634675,29.2253592 5.73080574,30.2509506 7.05697365,30.2509506 L10.4024482,30.2509506 C11.7286161,30.2509506 12.8049536,29.2253592 12.8049536,27.9595068 L12.8049536,12.1829706 C12.8049536,10.9153252 11.7286161,9.88973384 10.4024482,9.88973384 L7.05697365,9.88973384 C5.73080574,9.88973384 4.65634675,10.9153252 4.65634675,12.1829706 L4.65634675,27.9595068 Z" id="Fill-70" fill="#45D560"></path>
                            <path d="M13.3869969,27.9735534 C13.3869969,29.231646 14.4614559,30.2509506 15.7876238,30.2509506 L19.1330984,30.2509506 C20.4592663,30.2509506 21.5356037,29.231646 21.5356037,27.9735534 L21.5356037,18.5663706 C21.5356037,17.3082779 20.4592663,16.2889734 19.1330984,16.2889734 L15.7876238,16.2889734 C14.4614559,16.2889734 13.3869969,17.3082779 13.3869969,18.5663706 L13.3869969,27.9735534 Z" id="Fill-71" fill="#9DADEB"></path>
                            <path d="M23.2817337,28.9742439 C23.2817337,30.3222757 24.3561927,31.4144487 25.6823606,31.4144487 L29.0278352,31.4144487 C30.3540031,31.4144487 31.4303406,30.3222757 31.4303406,28.9742439 L31.4303406,15.8223423 C31.4303406,14.4743105 30.3540031,13.3802281 29.0278352,13.3802281 L25.6823606,13.3802281 C24.3561927,13.3802281 23.2817337,14.4743105 23.2817337,15.8223423 L23.2817337,28.9742439 Z" id="Fill-72" fill="#FFC76A"></path>
                        </g>
                        <path d="M50.0557276,85.5452807 C50.0557276,88.4218438 52.3894411,90.7528517 55.269343,90.7528517 L137.388843,90.7528517 C140.266906,90.7528517 142.600619,88.4218438 142.600619,85.5452807 L142.600619,23.2417915 C142.600619,20.3652285 140.266906,18.0342205 137.388843,18.0342205 L55.269343,18.0342205 C52.3894411,18.0342205 50.0557276,20.3652285 50.0557276,23.2417915 L50.0557276,85.5452807 Z" id="Stroke-73" stroke-opacity="0.73120471" stroke="#B9B8B8" stroke-width="0.5" fill="#FFFFFF"></path>
                        <g id="Group-7" transform="translate(58.204334, 50.030418)" fill="#E1E1E1">
                            <path d="M0,0.872623574 C0,1.35481154 0.368392558,1.74524715 0.823357368,1.74524715 L62.6193671,1.74524715 C63.0743319,1.74524715 63.4427245,1.35481154 63.4427245,0.872623574 C63.4427245,0.390435604 63.0743319,0 62.6193671,0 L0.823357368,0 C0.368392558,0 0,0.390435604 0,0.872623574 C0,0.872623574 0,0.390435604 0,0.872623574" id="Fill-74"></path>
                            <path d="M0,5.52661597 C0,6.00880394 0.362091822,6.39923954 0.809275222,6.39923954 L26.5467619,6.39923954 C26.9939453,6.39923954 27.3560372,6.00880394 27.3560372,5.52661597 C27.3560372,5.044428 26.9939453,4.6539924 26.5467619,4.6539924 L0.809275222,4.6539924 C0.362091822,4.6539924 0,5.044428 0,5.52661597 C0,5.52661597 0,5.044428 0,5.52661597" id="Fill-75"></path>
                            <path d="M0,9.59885932 C0,10.0810473 0.372611835,10.4714829 0.83278745,10.4714829 L35.8359432,10.4714829 C36.2961188,10.4714829 36.6687307,10.0810473 36.6687307,9.59885932 C36.6687307,9.11667135 36.2961188,8.72623574 35.8359432,8.72623574 L0.83278745,8.72623574 C0.372611835,8.72623574 0,9.11667135 0,9.59885932 C0,9.59885932 0,9.11667135 0,9.59885932" id="Fill-76"></path>
                            <path d="M0,13.0893536 C0,13.5715416 0.371764212,13.9619772 0.830893013,13.9619772 L45.7307157,13.9619772 C46.1898445,13.9619772 46.5634675,13.5715416 46.5634675,13.0893536 C46.5634675,12.6071656 46.1898445,12.21673 45.7307157,12.21673 L0.830893013,12.21673 C0.371764212,12.21673 0,12.6071656 0,13.0893536 C0,13.0893536 0,12.6071656 0,13.0893536" id="Fill-77"></path>
                            <path d="M0,17.743346 C0,18.225534 0.371764212,18.6159696 0.830893013,18.6159696 L45.7307157,18.6159696 C46.1898445,18.6159696 46.5634675,18.225534 46.5634675,17.743346 C46.5634675,17.261158 46.1898445,16.8707224 45.7307157,16.8707224 L0.830893013,16.8707224 C0.371764212,16.8707224 0,17.261158 0,17.743346 C0,17.743346 0,17.261158 0,17.743346" id="Fill-78"></path>
                        </g>
                        <path d="M58.2043344,77.0130335 C58.2043344,78.1757996 59.2359862,79.1178707 60.5093188,79.1178707 L68.1222602,79.1178707 C69.3955927,79.1178707 70.4272446,78.1757996 70.4272446,77.0130335 L70.4272446,75.9869665 C70.4272446,74.8242004 69.3955927,73.8821293 68.1222602,73.8821293 L60.5093188,73.8821293 C59.2359862,73.8821293 58.2043344,74.8242004 58.2043344,75.9869665 L58.2043344,77.0130335 Z" id="Fill-69-Copy" fill="#F7AA73"></path>
                    </g>
                    <g id="Page-1" opacity="0.385756341" transform="translate(59.000000, 25.000000)">
                        <g id="Group-3" transform="translate(3.473684, 0.562500)" fill="#231F20">
                            <path d="M0.380199883,0.7095 C0.479688772,5.90817188 0.16360924,11.1016875 0.154088772,16.2996563 C0.153136725,16.7641875 0.654627368,17.0025469 1.04948877,16.8054375 C6.72987591,13.9718438 14.6985075,13.9889531 20.4648168,16.5827813 C21.1574309,16.8942656 21.7626946,15.8845781 21.0655584,15.5709844 C14.8855847,12.7910625 6.5425607,12.7537969 0.448747251,15.7936406 C0.747213918,15.9623906 1.04568058,16.1309063 1.34414725,16.2996563 C1.35366772,11.1016875 1.66974725,5.90817188 1.57025836,0.7095 C1.55573965,-0.0451875 0.36568117,-0.04659375 0.380199883,0.7095" id="Fill-1"></path>
                        </g>
                        <g id="Group-6" fill="#231F20">
                            <path d="M0.574128777,1.4456643 C10.9142871,1.44232012 21.2546827,1.22638176 31.5941288,1.4456643 C31.4032511,1.29947594 31.2126108,1.15328759 31.0217331,1.0073381 C31.8203806,6.08475591 31.9269777,11.3950718 31.0217331,16.4653235 C30.887359,17.2182414 32.0312007,17.5399991 32.1662871,16.7827816 C33.1123662,11.4841703 33.0010209,5.99565745 32.1662871,0.689641182 C32.1252151,0.427600942 31.8360496,0.25633125 31.5941288,0.251314983 C21.2546827,0.0320324486 10.9142871,0.247970805 0.574128777,0.251314983 C-0.191281295,0.251553853 -0.191281295,1.44590317 0.574128777,1.4456643" id="Fill-4"></path>
                        </g>
                        <path d="M10.9824498,7.3079616 C14.8405282,6.84237938 18.7159895,6.93221487 22.5898065,6.93690194 C23.3473749,6.93768312 23.34714,5.63571941 22.5898065,5.63493823 C18.7159895,5.63025116 14.8405282,5.54041567 10.9824498,6.00599789 C10.2378012,6.09583339 10.2300493,7.39883866 10.9824498,7.3079616" id="Fill-7" fill="#D06C80"></path>
                        <path d="M15.0668524,8.4375 L28.3540162,8.4375 C29.1451525,8.4375 29.1451525,7.3125 28.3540162,7.3125 L15.0668524,7.3125 C14.2759615,7.3125 14.2759615,8.4375 15.0668524,8.4375" id="Fill-9" fill="#4585F2"></path>
                        <path d="M19.0815844,11.1037489 C20.8317065,11.2475368 22.5845941,11.2496921 24.3374817,11.25 C25.0804885,11.25 25.0804885,9.71051433 24.3374817,9.71051433 C22.5845941,9.71020643 20.8317065,9.70805115 19.0815844,9.56426319 C18.3390385,9.50329956 18.3434173,11.0430931 19.0815844,11.1037489" id="Fill-11" fill="#231F20"></path>
                    </g>
                </g>
            </g>
        </g>
    </g>
</svg>