<?xml version="1.0" encoding="UTF-8"?>
<svg width="295px" height="295px" viewBox="0 0 295 295" version="1.1" xmlns="http://www.w3.org/2000/svg" xmlns:xlink="http://www.w3.org/1999/xlink">
    <!-- Generator: Sketch 46.2 (44496) - http://www.bohemiancoding.com/sketch -->
    <title>Phone feature</title>
    <desc>Created with Sketch.</desc>
    <defs>
        <path d="M26.9834254,151.450256 C26.9834254,156.173128 30.7982002,160 35.4988397,160 L102.481317,160 C107.185225,160 111,156.173128 111,151.450256 L111,8.54974359 C111,3.82687179 107.185225,0 102.481317,0 L35.4988397,0 C30.7982002,0 26.9834254,3.82687179 26.9834254,8.54974359 L26.9834254,151.450256 Z" id="path-1"></path>
        <filter x="-2.7%" y="-1.4%" width="107.7%" height="105.3%" filterUnits="objectBoundingBox" id="filter-2">
            <feMorphology radius="0.25" operator="dilate" in="SourceAlpha" result="shadowSpreadOuter1"></feMorphology>
            <feOffset dx="2" dy="4" in="shadowSpreadOuter1" result="shadowOffsetOuter1"></feOffset>
            <feComposite in="shadowOffsetOuter1" in2="SourceAlpha" operator="out" result="shadowOffsetOuter1"></feComposite>
            <feColorMatrix values="0 0 0 0 0   0 0 0 0 0   0 0 0 0 0  0 0 0 0.135586504 0" type="matrix" in="shadowOffsetOuter1"></feColorMatrix>
        </filter>
    </defs>
    <g id="Styled-Pages" stroke="none" stroke-width="1" fill="none" fill-rule="evenodd">
        <g id="Home-(Mobile)" transform="translate(-41.000000, -2334.000000)">
            <g id="Phone-feature" transform="translate(41.000000, 2334.000000)">
                <g id="Group-5-Copy-2" opacity="0.567255435">
                    <circle id="Oval-6" fill="#42B6C1" opacity="0.0838994565" cx="147.5" cy="147.5" r="147.5"></circle>
                    <circle id="Oval-6" fill="#28CFD0" opacity="0.087352808" cx="148" cy="148" r="104"></circle>
                </g>
                <g id="Feature-phone" transform="translate(58.000000, 31.000000)">
                    <g id="USSD" transform="translate(72.987185, 118.112476) rotate(13.000000) translate(-72.987185, -118.112476) translate(16.987185, 38.112476)">
                        <path d="M26.9834254,151.450256 C26.9834254,156.173128 30.7982002,160 35.4988397,160 L102.481317,160 C107.185225,160 111,156.173128 111,151.450256 L111,8.54974359 C111,3.82687179 107.185225,0 102.481317,0 L35.4988397,0 C30.7982002,0 26.9834254,3.82687179 26.9834254,8.54974359 L26.9834254,151.450256 Z" id="Fill-3" fill="#FFFFFF"></path>
                        <g id="Stroke-5">
                            <use fill="black" fill-opacity="1" filter="url(#filter-2)" xlink:href="#path-1"></use>
                            <use stroke="#333133" stroke-width="0.5" fill="#FFFFFF" fill-rule="evenodd" xlink:href="#path-1"></use>
                        </g>
                        <polygon id="Fill-7" fill="#FFFFFF" points="34.9558011 82.7586207 101.801105 82.7586207 101.801105 9.80842912 34.9558011 9.80842912"></polygon>
                        <polygon id="Stroke-9" stroke="#262526" stroke-width="0.5" points="34.9558011 82.7586207 101.801105 82.7586207 101.801105 9.80842912 34.9558011 9.80842912"></polygon>
                        <path d="M34.9558011,96.8582375 C34.9558011,99.5678072 36.9700011,101.762452 39.4567885,101.762452 L49.4626042,101.762452 C51.9493916,101.762452 53.9668508,99.5678072 53.9668508,96.8582375 C53.9668508,94.1486679 51.9493916,91.954023 49.4626042,91.954023 L39.4567885,91.954023 C36.9700011,91.954023 34.9558011,94.1486679 34.9558011,96.8582375 C34.9558011,96.8582375 34.9558011,94.1486679 34.9558011,96.8582375 Z" id="Stroke-10" stroke="#000000" stroke-width="0.5"></path>
                        <path d="M34.9558011,112.796935 C34.9558011,115.506505 36.9700011,117.701149 39.4567885,117.701149 L49.4626042,117.701149 C51.9493916,117.701149 53.9668508,115.506505 53.9668508,112.796935 C53.9668508,110.087365 51.9493916,107.89272 49.4626042,107.89272 L39.4567885,107.89272 C36.9700011,107.89272 34.9558011,110.087365 34.9558011,112.796935 C34.9558011,112.796935 34.9558011,110.087365 34.9558011,112.796935 Z" id="Stroke-11" stroke="#000000" stroke-width="0.5"></path>
                        <path d="M34.9558011,128.735632 C34.9558011,131.445202 36.9700011,133.639847 39.4567885,133.639847 L49.4626042,133.639847 C51.9493916,133.639847 53.9668508,131.445202 53.9668508,128.735632 C53.9668508,126.026063 51.9493916,123.831418 49.4626042,123.831418 L39.4567885,123.831418 C36.9700011,123.831418 34.9558011,126.026063 34.9558011,128.735632 C34.9558011,128.735632 34.9558011,126.026063 34.9558011,128.735632 Z" id="Stroke-12" stroke="#000000" stroke-width="0.5"></path>
                        <path d="M34.9558011,144.061303 C34.9558011,146.770872 36.9700011,148.965517 39.4567885,148.965517 L49.4626042,148.965517 C51.9493916,148.965517 53.9668508,146.770872 53.9668508,144.061303 C53.9668508,141.351733 51.9493916,139.157088 49.4626042,139.157088 L39.4567885,139.157088 C36.9700011,139.157088 34.9558011,141.351733 34.9558011,144.061303 C34.9558011,144.061303 34.9558011,141.351733 34.9558011,144.061303 Z" id="Stroke-13" stroke="#000000" stroke-width="0.5"></path>
                        <path d="M60.7127072,96.8582375 C60.7127072,99.5678072 62.7269072,101.762452 65.2136946,101.762452 L75.2195103,101.762452 C77.7062977,101.762452 79.7237569,99.5678072 79.7237569,96.8582375 C79.7237569,94.1486679 77.7062977,91.954023 75.2195103,91.954023 L65.2136946,91.954023 C62.7269072,91.954023 60.7127072,94.1486679 60.7127072,96.8582375 C60.7127072,96.8582375 60.7127072,94.1486679 60.7127072,96.8582375 Z" id="Stroke-14" stroke="#000000" stroke-width="0.5"></path>
                        <path d="M60.7127072,112.796935 C60.7127072,115.506505 62.7269072,117.701149 65.2136946,117.701149 L75.2195103,117.701149 C77.7062977,117.701149 79.7237569,115.506505 79.7237569,112.796935 C79.7237569,110.087365 77.7062977,107.89272 75.2195103,107.89272 L65.2136946,107.89272 C62.7269072,107.89272 60.7127072,110.087365 60.7127072,112.796935 C60.7127072,112.796935 60.7127072,110.087365 60.7127072,112.796935 Z" id="Stroke-15" stroke="#000000" stroke-width="0.5"></path>
                        <path d="M60.7127072,128.735632 C60.7127072,131.445202 62.7269072,133.639847 65.2136946,133.639847 L75.2195103,133.639847 C77.7062977,133.639847 79.7237569,131.445202 79.7237569,128.735632 C79.7237569,126.026063 77.7062977,123.831418 75.2195103,123.831418 L65.2136946,123.831418 C62.7269072,123.831418 60.7127072,126.026063 60.7127072,128.735632 C60.7127072,128.735632 60.7127072,126.026063 60.7127072,128.735632 Z" id="Stroke-16" stroke="#000000" stroke-width="0.5"></path>
                        <path d="M60.7127072,144.061303 C60.7127072,146.770872 62.7269072,148.965517 65.2136946,148.965517 L75.2195103,148.965517 C77.7062977,148.965517 79.7237569,146.770872 79.7237569,144.061303 C79.7237569,141.351733 77.7062977,139.157088 75.2195103,139.157088 L65.2136946,139.157088 C62.7269072,139.157088 60.7127072,141.351733 60.7127072,144.061303 C60.7127072,144.061303 60.7127072,141.351733 60.7127072,144.061303 Z" id="Stroke-17" stroke="#000000" stroke-width="0.5"></path>
                        <path d="M84.6298343,96.8582375 C84.6298343,99.5678072 86.6440343,101.762452 89.1308217,101.762452 L99.1366373,101.762452 C101.623425,101.762452 103.640884,99.5678072 103.640884,96.8582375 C103.640884,94.1486679 101.623425,91.954023 99.1366373,91.954023 L89.1308217,91.954023 C86.6440343,91.954023 84.6298343,94.1486679 84.6298343,96.8582375 C84.6298343,96.8582375 84.6298343,94.1486679 84.6298343,96.8582375 Z" id="Stroke-18" stroke="#000000" stroke-width="0.5"></path>
                        <path d="M84.6298343,112.796935 C84.6298343,115.506505 86.6440343,117.701149 89.1308217,117.701149 L99.1366373,117.701149 C101.623425,117.701149 103.640884,115.506505 103.640884,112.796935 C103.640884,110.087365 101.623425,107.89272 99.1366373,107.89272 L89.1308217,107.89272 C86.6440343,107.89272 84.6298343,110.087365 84.6298343,112.796935 C84.6298343,112.796935 84.6298343,110.087365 84.6298343,112.796935 Z" id="Stroke-19" stroke="#000000" stroke-width="0.5"></path>
                        <path d="M84.6298343,128.735632 C84.6298343,131.445202 86.6440343,133.639847 89.1308217,133.639847 L99.1366373,133.639847 C101.623425,133.639847 103.640884,131.445202 103.640884,128.735632 C103.640884,126.026063 101.623425,123.831418 99.1366373,123.831418 L89.1308217,123.831418 C86.6440343,123.831418 84.6298343,126.026063 84.6298343,128.735632 C84.6298343,128.735632 84.6298343,126.026063 84.6298343,128.735632 Z" id="Stroke-20" stroke="#000000" stroke-width="0.5"></path>
                        <path d="M84.6298343,144.061303 C84.6298343,146.770872 86.6440343,148.965517 89.1308217,148.965517 L99.1366373,148.965517 C101.623425,148.965517 103.640884,146.770872 103.640884,144.061303 C103.640884,141.351733 101.623425,139.157088 99.1366373,139.157088 L89.1308217,139.157088 C86.6440343,139.157088 84.6298343,141.351733 84.6298343,144.061303 C84.6298343,144.061303 84.6298343,141.351733 84.6298343,144.061303 Z" id="Stroke-21" stroke="#000000" stroke-width="0.5"></path>
                        <path d="M58.8729282,5.5589272 C58.8729282,5.91938697 59.129503,6.21363985 59.4438072,6.21363985 L75.4733199,6.21363985 C75.7908312,6.21363985 76.0441989,5.91938697 76.0441989,5.5589272 C76.0441989,5.19846743 75.7908312,4.90421456 75.4733199,4.90421456 L59.4438072,4.90421456 C59.129503,4.90421456 58.8729282,5.19846743 58.8729282,5.5589272 C58.8729282,5.5589272 58.8729282,5.19846743 58.8729282,5.5589272" id="Fill-22" fill="#000000"></path>
                        <path d="M82.6391934,5.75019157 C82.6391934,6.21731801 82.2601989,6.59616858 81.792895,6.59616858 C81.3292707,6.59616858 80.9502762,6.21731801 80.9502762,5.75019157 C80.9502762,5.28306513 81.3292707,4.90421456 81.792895,4.90421456 C82.2601989,4.90421456 82.6391934,5.28306513 82.6391934,5.75019157" id="Fill-23" fill="#000000"></path>
                        <g id="Group-12" transform="translate(0.055480, 50.689026)">
                            <path d="M0,10.4214559 C0,16.1775127 4.43984841,20.8429119 9.91762597,20.8429119 L67.9663519,20.8429119 C73.4441295,20.8429119 77.8839779,16.1775127 77.8839779,10.4214559 C77.8839779,4.66539923 73.4441295,-4.54747351e-13 67.9663519,-4.54747351e-13 L9.91762597,-4.54747351e-13 C4.43984841,-4.54747351e-13 0,4.66539923 0,10.4214559 C0,10.4214559 0,4.66539923 0,10.4214559" id="Fill-37" fill="#69CBA4"></path>
                            <path d="M9.8121547,6.43678161 C9.8121547,7.28522682 10.4760532,7.96934866 11.2921625,7.96934866 L62.2989977,7.96934866 C63.115107,7.96934866 63.7790055,7.28522682 63.7790055,6.43678161 C63.7790055,5.58833639 63.115107,4.90421456 62.2989977,4.90421456 L11.2921625,4.90421456 C10.4760532,4.90421456 9.8121547,5.58833639 9.8121547,6.43678161 C9.8121547,6.43678161 9.8121547,5.58833639 9.8121547,6.43678161" id="Fill-38" fill="#FFFFFF"></path>
                            <path d="M11.038674,12.5670498 C11.038674,13.415495 11.6945434,14.0996169 12.5007828,14.0996169 L36.5567913,14.0996169 C37.3662301,14.0996169 38.0220994,13.415495 38.0220994,12.5670498 C38.0220994,11.7186046 37.3662301,11.0344828 36.5567913,11.0344828 L12.5007828,11.0344828 C11.6945434,11.0344828 11.038674,11.7186046 11.038674,12.5670498 C11.038674,12.5670498 11.038674,11.7186046 11.038674,12.5670498" id="Fill-39" fill="#FFFFFF"></path>
                        </g>
                    </g>
                    <circle id="Oval-4-Copy-11" fill="#9AE934" cx="173.5" cy="74.5" r="4.5"></circle>
                    <circle id="Oval-4-Copy-9" fill="#FF9E02" opacity="0.691123188" cx="149" cy="104" r="2"></circle>
                    <circle id="Oval-4-Copy-10" stroke="#FF00CD" stroke-width="2" cx="57.5" cy="2.5" r="2.5"></circle>
                    <path d="M68.5225,73.8888889 L68.1925,73.4627778 C67.8974985,73.1835171 67.75,72.8440761 67.75,72.4444444 C67.75,72.0448128 67.8962485,71.7041681 68.18875,71.4225 C68.4812515,71.1408319 68.8349979,71 69.25,71 C69.6650021,71 70.0199985,71.1396282 70.315,71.4188889 L71.5,73.0583333 L72.6925,71.4188889 C72.9825015,71.1396282 73.3349979,71 73.75,71 C74.1650021,71 74.5187485,71.1408319 74.81125,71.4225 C75.1037515,71.7041681 75.25,72.0448128 75.25,72.4444444 C75.25,72.8440761 75.1050015,73.1835171 74.815,73.4627778 L74.485,73.8888889 L74.5,73.8888889 C74.9150021,73.8888889 75.2687485,74.0297208 75.56125,74.3113889 C75.8537515,74.593057 76,74.9337017 76,75.3333333 C76,75.732965 75.8537515,76.0736097 75.56125,76.3552778 C75.2687485,76.6369459 74.9150021,76.7777778 74.5,76.7777778 L74.4925,76.7777778 L74.815,77.1966667 C75.1050015,77.4807422 75.25,77.8225906 75.25,78.2222222 C75.25,78.6218538 75.1037515,78.9624986 74.81125,79.2441667 C74.5187485,79.5258347 74.1650021,79.6666667 73.75,79.6666667 C73.3349979,79.6666667 72.9825015,79.5246311 72.6925,79.2405556 L71.5,77.6083333 L70.315,79.2405556 C70.0199985,79.5246311 69.6650021,79.6666667 69.25,79.6666667 C68.8349979,79.6666667 68.4812515,79.5258347 68.18875,79.2441667 C67.8962485,78.9624986 67.75,78.6218538 67.75,78.2222222 C67.75,77.8225906 67.8974985,77.4807422 68.1925,77.1966667 L68.515,76.7777778 L68.5,76.7777778 C68.0849979,76.7777778 67.7312515,76.6369459 67.43875,76.3552778 C67.1462485,76.0736097 67,75.732965 67,75.3333333 C67,74.9337017 67.1462485,74.593057 67.43875,74.3113889 C67.7312515,74.0297208 68.0849979,73.8888889 68.5,73.8888889 L68.5225,73.8888889 Z M85,72.4444444 C85.4150021,72.4444444 85.7687485,72.5852764 86.06125,72.8669444 C86.3537515,73.1486125 86.5,73.4892573 86.5,73.8888889 C86.5,74.2885205 86.4375006,74.5894434 86.3125,74.7916667 L80.3125,83.2777778 L80.305,83.2777778 C80.2399997,83.3837042 80.1600005,83.4824069 80.065,83.5738889 C79.7699985,83.8579644 79.4150021,84 79,84 C78.5849979,84 78.2312515,83.8591681 77.93875,83.5775 C77.6462485,83.2958319 77.5,82.9551872 77.5,82.5555556 C77.5,82.2907394 77.5649994,82.0500011 77.695,81.8333333 L77.6875,81.8333333 L82.1875,75.3333333 L79,75.3333333 C78.5849979,75.3333333 78.2312515,75.1925014 77.93875,74.9108333 C77.6462485,74.6291653 77.5,74.2885205 77.5,73.8888889 C77.5,73.4892573 77.6462485,73.1486125 77.93875,72.8669444 C78.2312515,72.5852764 78.5849979,72.4444444 79,72.4444444 L85,72.4444444 Z M95.5,72.4444444 C95.9150021,72.4444444 96.2687485,72.5852764 96.56125,72.8669444 C96.8537515,73.1486125 97,73.4892573 97,73.8888889 C97,74.2885205 96.9375006,74.5894434 96.8125,74.7916667 L90.8125,83.2777778 L90.805,83.2777778 C90.7399997,83.3837042 90.6600005,83.4824069 90.565,83.5738889 C90.2699985,83.8579644 89.9150021,84 89.5,84 C89.0849979,84 88.7312515,83.8591681 88.43875,83.5775 C88.1462485,83.2958319 88,82.9551872 88,82.5555556 C88,82.2907394 88.0649994,82.0500011 88.195,81.8333333 L88.1875,81.8333333 L92.6875,75.3333333 L89.5,75.3333333 C89.0849979,75.3333333 88.7312515,75.1925014 88.43875,74.9108333 C88.1462485,74.6291653 88,74.2885205 88,73.8888889 C88,73.4892573 88.1462485,73.1486125 88.43875,72.8669444 C88.7312515,72.5852764 89.0849979,72.4444444 89.5,72.4444444 L95.5,72.4444444 Z M106,72.4444444 C106.415002,72.4444444 106.768749,72.5852764 107.06125,72.8669444 C107.353751,73.1486125 107.5,73.4892573 107.5,73.8888889 C107.5,74.2885205 107.437501,74.5894434 107.3125,74.7916667 L101.3125,83.2777778 L101.305,83.2777778 C101.24,83.3837042 101.16,83.4824069 101.065,83.5738889 C100.769999,83.8579644 100.415002,84 100,84 C99.5849979,84 99.2312515,83.8591681 98.93875,83.5775 C98.6462485,83.2958319 98.5,82.9551872 98.5,82.5555556 C98.5,82.2907394 98.5649994,82.0500011 98.695,81.8333333 L98.6875,81.8333333 L103.1875,75.3333333 L100,75.3333333 C99.5849979,75.3333333 99.2312515,75.1925014 98.93875,74.9108333 C98.6462485,74.6291653 98.5,74.2885205 98.5,73.8888889 C98.5,73.4892573 98.6462485,73.1486125 98.93875,72.8669444 C99.2312515,72.5852764 99.5849979,72.4444444 100,72.4444444 L106,72.4444444 Z M114.25,77.5 L114.25,78.9444444 L115.75,78.9444444 L115.75,77.5 L114.25,77.5 Z M114.25,81.8333333 L114.25,82.5555556 C114.25,82.9551872 114.103751,83.2958319 113.81125,83.5775 C113.518749,83.8591681 113.165002,84 112.75,84 C112.334998,84 111.981251,83.8591681 111.68875,83.5775 C111.396249,83.2958319 111.25,82.9551872 111.25,82.5555556 L111.25,81.8333333 L110.5,81.8333333 C110.084998,81.8333333 109.731251,81.6925014 109.43875,81.4108333 C109.146249,81.1291653 109,80.7885205 109,80.3888889 C109,79.9892573 109.146249,79.6486125 109.43875,79.3669444 C109.731251,79.0852764 110.084998,78.9444444 110.5,78.9444444 L111.25,78.9444444 L111.25,77.5 L110.5,77.5 C110.084998,77.5 109.731251,77.3591681 109.43875,77.0775 C109.146249,76.7958319 109,76.4551872 109,76.0555556 C109,75.6559239 109.146249,75.3152792 109.43875,75.0336111 C109.731251,74.751943 110.084998,74.6111111 110.5,74.6111111 L111.25,74.6111111 L111.25,73.8888889 C111.25,73.4892573 111.396249,73.1486125 111.68875,72.8669444 C111.981251,72.5852764 112.334998,72.4444444 112.75,72.4444444 C113.165002,72.4444444 113.518749,72.5852764 113.81125,72.8669444 C114.103751,73.1486125 114.25,73.4892573 114.25,73.8888889 L114.25,74.6111111 L115.75,74.6111111 L115.75,73.8888889 C115.75,73.4892573 115.896249,73.1486125 116.18875,72.8669444 C116.481251,72.5852764 116.834998,72.4444444 117.25,72.4444444 C117.665002,72.4444444 118.018749,72.5852764 118.31125,72.8669444 C118.603751,73.1486125 118.75,73.4892573 118.75,73.8888889 L118.75,74.6111111 L119.5,74.6111111 C119.915002,74.6111111 120.268749,74.751943 120.56125,75.0336111 C120.853751,75.3152792 121,75.6559239 121,76.0555556 C121,76.4551872 120.853751,76.7958319 120.56125,77.0775 C120.268749,77.3591681 119.915002,77.5 119.5,77.5 L118.75,77.5 L118.75,78.9444444 L119.5,78.9444444 C119.915002,78.9444444 120.268749,79.0852764 120.56125,79.3669444 C120.853751,79.6486125 121,79.9892573 121,80.3888889 C121,80.7885205 120.853751,81.1291653 120.56125,81.4108333 C120.268749,81.6925014 119.915002,81.8333333 119.5,81.8333333 L118.75,81.8333333 L118.75,82.5555556 C118.75,82.9551872 118.603751,83.2958319 118.31125,83.5775 C118.018749,83.8591681 117.665002,84 117.25,84 C116.834998,84 116.481251,83.8591681 116.18875,83.5775 C115.896249,83.2958319 115.75,82.9551872 115.75,82.5555556 L115.75,81.8333333 L114.25,81.8333333 Z" id="*777#" fill="#199AB1" opacity="0.292289402" transform="translate(94.000000, 77.500000) rotate(13.000000) translate(-94.000000, -77.500000) "></path>
                    <path d="M96,5 L95,23" id="Path-2" stroke="#FF3838" stroke-width="3" stroke-linecap="round" stroke-linejoin="round"></path>
                    <path d="M148.751409,23.4784851 L140,31.646467" id="Path-2-Copy" stroke="#FFD338" stroke-width="3" stroke-linecap="round" stroke-linejoin="round"></path>
                    <path d="M42,29 L48,39" id="Path-2-Copy-2" stroke="#38FF61" stroke-width="3" stroke-linecap="round" stroke-linejoin="round"></path>
                </g>
            </g>
        </g>
    </g>
</svg>