<?xml version="1.0" encoding="UTF-8"?>
<svg width="95px" height="24px" viewBox="0 0 95 24" version="1.1" xmlns="http://www.w3.org/2000/svg" xmlns:xlink="http://www.w3.org/1999/xlink">
    <!-- Generator: Sketch 46.2 (44496) - http://www.bohemiancoding.com/sketch -->
    <title>Save footer Logo</title>
    <desc>Created with Sketch.</desc>
    <defs></defs>
    <g id="Styled-Websites" stroke="none" stroke-width="1" fill="none" fill-rule="evenodd">
        <g id="Developers-page" transform="translate(-592.000000, -879.000000)">
            <g id="Group-10" transform="translate(590.000000, 879.000000)">
                <g id="Save-footer-Logo" transform="translate(2.000000, 0.000000)">
                    <path d="M9.24098225,8.70615554 L9.03225485,8.66623213 C5.61363863,8.02175419 4.08767214,7.48278812 4.08767214,5.99991852 C4.08767214,5.01323991 4.58128422,4.28036013 5.59671478,3.76420744 C6.80676954,3.14824622 8.25093745,3.08265776 8.80942426,3.08265776 C10.6795089,3.10547114 12.5636967,3.37923168 13.6863116,5.20715362 L13.7596482,5.32692386 C13.824523,5.47521082 13.9063216,5.61209109 14.0078646,5.73186133 C14.0614568,5.79459812 14.1178696,5.85163156 14.1799237,5.90296167 C14.4535258,6.14250214 14.8089265,6.28793743 15.1953542,6.28793743 C15.5451137,6.28793743 15.8723079,6.16816719 16.1289862,5.96855013 L16.2277086,5.88585163 C16.5492617,5.60353607 16.7495271,5.18148857 16.7495271,4.71666599 C16.7495271,4.60545077 16.7382446,4.49423555 16.7128588,4.38872367 C16.6818318,4.22047501 16.6197777,4.06363303 16.5351585,3.92104942 C16.5125933,3.881126 16.4872076,3.84120259 16.4590012,3.80413085 L16.3010453,3.56459038 C14.3407002,0.604554528 11.8923843,0 8.82070682,0 C6.15238095,0 3.74355401,0.841243329 2.37554339,2.25282112 C1.38831923,3.27086813 0.900348432,4.55412067 0.931375477,6.0541003 C0.931375477,10.2289485 5.11156463,11.0559335 8.47376804,11.7175215 C11.8303302,12.3677028 13.8640119,12.9038172 13.8470881,14.8657677 C13.8470881,17.6432965 10.3325701,17.9427221 8.82070682,17.9427221 C6.79266633,17.9427221 4.23716609,16.9417851 3.28096897,15.0311647 L2.89172059,14.2555098 L2.87056579,14.266061 C2.63532437,13.9201532 2.27371827,13.6694912 1.8506222,13.5953477 C1.76346441,13.5776673 1.67010121,13.5688271 1.57702008,13.5688271 C1.32682927,13.5688271 1.08820309,13.6275716 0.878629501,13.7365055 C0.67497926,13.8365992 0.497560976,13.9806086 0.354836569,14.1542755 C0.133698357,14.4308877 0,14.7839247 0,15.1631971 C0,15.3425673 0.031027045,15.514238 0.0854654057,15.6753575 L0.0792599967,15.6784943 L0.106056081,15.7326761 C0.143570599,15.8307736 0.189829102,15.9237381 0.244831591,16.0115696 L0.468226315,16.4601377 C2.1408661,19.808001 5.8782147,21 8.82014269,21 C10.2417455,21 12.300813,20.8032346 14.0355069,19.8621828 C15.9620043,18.815619 16.9858968,17.0989123 17,14.8917179 C17.0005641,10.2146902 12.6990874,9.3791502 9.24098225,8.70615554" id="Fill-1" fill="#FFFFFF"></path>
                    <g id="Group-5" transform="translate(90.000000, 18.000000)" fill="#FFFFFF">
                        <path d="M2.895,0.1503125 C2.76823529,0.1234375 2.63294118,0.11 2.49764706,0.11 C2.13411765,0.11 1.78735294,0.2 1.48294118,0.3659375 C1.18705882,0.51875 0.929117647,0.73875 0.721764706,1.00375 C0.400588235,1.4259375 0.205882353,1.965 0.205882353,2.5446875 C0.205882353,3.8834375 1.23323529,4.975 2.49735294,4.975 C3.01323529,4.975 3.49088235,4.7909375 3.87147059,4.4809375 L4.01529412,4.3553125 C4.48882353,3.915 4.78470588,3.26375 4.78470588,2.545 C4.785,1.3453125 3.96470588,0.348125 2.895,0.1503125" id="Fill-3"></path>
                    </g>
                    <path d="M86.2803472,10.3454328 L72.2155161,10.3454328 C72.1307473,10.355006 72.0493693,10.3677702 71.9679913,10.3869166 C71.5034586,10.4890307 71.1067408,10.7602712 70.8490438,11.1240527 C70.8422623,11.1336258 70.8354808,11.143199 70.8320901,11.1527722 C70.6455988,11.4240128 70.5370948,11.7495014 70.5370948,12.0973275 C70.5370948,12.4579178 70.6523803,12.7929797 70.8490438,13.0706023 C70.9439848,13.201436 71.0524888,13.3226964 71.1813373,13.4216195 C71.4017361,13.6067012 71.6729961,13.740726 71.9679913,13.8013562 C72.0188526,13.8173115 72.0697138,13.8268847 72.1239658,13.8332669 L86.5380442,13.8332669 L86.5753425,13.7885919 C88.8403635,13.8045473 89.7117862,12.6876745 90,11.5101715 C89.72874,5.16633426 84.3374474,0.0925408855 77.6881866,0.00319106502 C77.6271531,0 77.5661196,0 77.5050861,0 C75.9894209,0 74.5347891,0.258476266 73.1886613,0.733944954 C69.1468873,2.16354208 66.08504,5.53649781 65.2373525,9.67211807 C65.081378,10.4284005 65,11.2102114 65,12.0111687 C65,13.8524132 65.4306253,15.5979258 66.2037163,17.1551655 C66.2138885,17.177503 66.2240608,17.2030315 66.2376238,17.225369 C66.5394005,17.8316713 66.8954293,18.4092541 67.2989285,18.9517351 C67.3158823,18.9740726 67.332836,18.9996011 67.3497898,19.0219386 C68.6247118,20.7227762 70.3472128,22.0885521 72.3579276,22.9629039 L72.3613183,22.9629039 C73.9888783,23.6362186 75.8266649,24 77.8102536,24 C78.0442154,24 78.2781771,23.9936179 78.5087481,23.9840447 C79.4615489,23.9106502 80.3838329,23.7351416 81.2620372,23.4670921 C81.2891632,23.4575189 81.3162892,23.4511368 81.3468059,23.4415636 C83.3337854,22.8958915 86.0056965,21.8013562 87.762105,19.6505784 C87.7960125,19.6090945 87.82992,19.5676107 87.8604367,19.5229358 C87.9282517,19.4272038 87.9858945,19.3250897 88.0299742,19.2197846 C88.0435372,19.1846829 88.0571002,19.1463901 88.0706632,19.1080973 C88.1181337,18.9613083 88.1452597,18.8017551 88.1452597,18.6390108 C88.1452597,18.5464699 88.1350875,18.453929 88.1181337,18.3677702 L88.1181337,18.355006 C88.1113522,18.3135221 88.10118,18.2752294 88.0910077,18.2369366 C88.087617,18.2305544 88.087617,18.2273634 88.0842262,18.2209813 C88.0808355,18.1986438 88.074054,18.1763063 88.0638817,18.15716 C87.8672182,17.5795772 87.3246982,17.1487834 86.663502,17.07858 C86.6295945,17.0721978 86.5922962,17.0690068 86.554998,17.0690068 L86.5380442,17.0690068 C86.514309,17.0658157 86.4905737,17.0658157 86.4702292,17.0658157 C85.9514445,17.0658157 85.4869117,17.2891903 85.1783535,17.6370164 C84.8867489,17.9369765 84.5442832,18.2209813 84.1611284,18.4794575 C83.5982639,18.8623853 82.9404584,19.2006382 82.2284009,19.4750698 C82.2250102,19.4782609 82.2250102,19.4782609 82.2216194,19.4782609 C82.2114472,19.4814519 82.2012749,19.4814519 82.1911027,19.484643 L82.1877119,19.4910251 C80.8551472,19.9984045 79.3259189,20.2919824 77.8102536,20.2919824 C73.8871558,20.2919824 69.719924,18.0263263 69.2553913,12.9716793 C69.2147023,12.4643 69.1807948,11.6059035 69.245219,11.289988 L69.2553913,11.2165935 C69.3096433,10.6645393 69.4045843,10.1380136 69.5402143,9.63701635 C69.774176,8.74670921 70.1403771,7.92341444 70.6252543,7.18946949 C72.1477011,4.89509374 74.7687508,3.57718389 77.8102536,3.57718389 C79.2716669,3.57718389 80.5703242,3.79417631 81.6858809,4.20582369 C81.7740404,4.23773434 81.8588092,4.27283606 81.9469687,4.30793777 C82.0419097,4.34623055 82.1334599,4.38452333 82.2250102,4.42600718 C82.2385732,4.42919824 82.2487454,4.43558037 82.2589177,4.43877144 C82.3674217,4.48982848 82.4725349,4.54407659 82.5776482,4.59513363 C84.8291062,5.72796171 86.432931,7.84682888 86.7380985,10.3422417 L86.2803472,10.3422417 L86.2803472,10.3454328 Z" id="Fill-6" fill="#FFFFFF"></path>
                    <path d="M51.03,0 L51,0 C51.02,0.19 51.03,0.38 51.03,0.57 L51.03,0 Z" id="Fill-8" fill="#FFFFFF"></path>
                    <path d="M63.5855856,0.0693588567 C63.4924925,0.0512652419 63.3903904,0.039202832 63.2912913,0.039202832 C63.021021,0.039202832 62.7597598,0.105546086 62.5315315,0.223154582 C62.3093093,0.328700669 62.1171171,0.488527599 61.963964,0.67247935 C61.8888889,0.765963026 61.8228228,0.865477907 61.7687688,0.974039596 C61.7387387,1.03133604 61.7147147,1.08863249 61.6936937,1.14894454 C61.6786787,1.17005376 61.6666667,1.19417858 61.6546547,1.21528779 L61.5345345,1.51684804 L59.8858859,5.66330143 L59.8648649,5.72059788 L58.6786787,8.76635637 L58.6216216,8.91713649 L58.6186186,8.91412089 L58.3333333,9.60469385 L56.7207207,13.5340239 L55.009009,17.7046021 L53.2792793,13.494821 L51.6666667,9.56549102 L51.3813814,8.87491805 L51.3213213,8.72715353 L50.1351351,5.68139504 L50.1141141,5.6240986 L48.4654655,1.47764521 L48.3453453,1.17608496 C48.3333333,1.15497574 48.3213213,1.13085092 48.3063063,1.10974171 C48.2852853,1.04942966 48.2612613,0.992133211 48.2312312,0.934836764 C48.1771772,0.826275075 48.1111111,0.726760194 48.036036,0.633276518 C47.8828829,0.449324767 47.6906907,0.289497837 47.4684685,0.18395175 C47.2402402,0.0663432542 46.978979,0 46.7087087,0 C46.6096096,0 46.5075075,0.0120624099 46.4144144,0.0301560246 C45.6126126,0.171889341 45,0.874524715 45,1.72492461 C45,1.84856431 45.015015,1.97521961 45.039039,2.09584371 C45.042042,2.09885932 45.042042,2.10187492 45.042042,2.10489052 C45.0600601,2.18932739 45.0870871,2.27074866 45.1171171,2.34915432 C45.1171171,2.35216992 45.1201201,2.35518553 45.1201201,2.35820113 L45.3183183,2.85275993 L45.3183183,2.85577553 L50.7777778,16.5556575 L50.7777778,16.5647043 L50.8078078,16.6400944 L50.8108108,16.6370788 L51.2012012,17.5719156 L52.8228228,21.4529959 C52.8228228,21.4560115 52.8258258,21.4590271 52.8258258,21.4650583 L52.8948949,21.6309165 C53.1381381,22.1616625 53.5735736,22.5868625 54.1111111,22.8160482 C54.3903904,22.9336567 54.6966967,23 55.018018,23 C55.3363363,23 55.6366366,22.9366723 55.9129129,22.8160482 C56.0960961,22.7406582 56.2642643,22.6411433 56.4174174,22.5235348 L56.5645646,22.4029107 C56.7867868,22.2099122 56.96997,21.9716796 57.0990991,21.7063065 L57.2282282,21.4017307 C57.2282282,21.3987151 57.2312312,21.3926839 57.2312312,21.3866527 C57.2402402,21.3595123 57.2492492,21.3353874 57.2552553,21.308247 L58.7987988,17.6111184 L59.1891892,16.6762816 L59.1921922,16.6792972 L59.2222222,16.6039072 L59.2222222,16.5948604 L64.6816817,2.89497837 L64.6816817,2.89196276 L64.8798799,2.39740396 C64.8798799,2.39438836 64.8828829,2.39137275 64.8828829,2.38835715 C64.9129129,2.30995149 64.9399399,2.22853022 64.957958,2.14409335 C64.957958,2.14107775 64.957958,2.13806215 64.960961,2.13504655 C64.984985,2.01442245 65,1.88776714 65,1.76412744 C65,0.913727547 64.3873874,0.211092173 63.5855856,0.0693588567" id="Fill-10" fill="#FFFFFF"></path>
                    <path d="M36.9788713,17.2190739 C35.5382148,18.8875771 33.4654336,19.7655779 30.9927967,19.7655779 C26.4708995,19.7655779 23.189731,16.3109012 23.189731,11.5497835 C23.189731,6.80676899 26.4708995,3.37019546 30.9927967,3.37019546 C36.4761116,3.37019546 38.9722694,7.61839171 38.9722694,11.5678867 C38.9722694,13.728191 38.2666417,15.7316017 36.9788713,17.2190739 M42,1.65160698 C42,1.58975469 41.9964719,1.53061787 41.9891216,1.47148104 L41.9891216,1.45730028 C41.9067983,0.733175915 41.362877,0.147842057 40.6748901,0.0271546635 C40.5837465,0.00905155451 40.4896628,0 40.3955791,0 C40.1397891,0 39.8957596,0.0603436967 39.6811311,0.171979536 C39.472383,0.277581005 39.2930359,0.425423062 39.1460302,0.606454152 C39.1280955,0.629083038 39.1136889,0.654427391 39.0969303,0.677961433 C38.936988,0.903043421 38.8273217,1.16855569 38.7952744,1.45850715 C38.7864541,1.52186803 38.783514,1.58522891 38.783514,1.65160698 C38.783514,1.71496786 38.7864541,1.77832874 38.7952744,1.84168962 C38.7952744,1.84319822 38.7958625,1.84440509 38.7961565,1.84561196 L38.7961565,3.69303424 C36.9615246,1.46333465 34.165475,0.18103109 30.9930907,0.18103109 C24.7247651,0.18103109 20,5.06585334 20,11.5497835 C20,18.0789715 24.7247651,23 30.9930907,23 C34.1096128,23 36.8262793,21.7357996 38.7961565,19.4004985 L38.7961565,21.2506362 C38.7961565,21.2527483 38.7955684,21.255162 38.7952744,21.257274 C38.7923343,21.2814115 38.7923343,21.305549 38.7923343,21.3296865 C38.7923343,21.3477896 38.7923343,21.3689099 38.7952744,21.387013 C38.8217355,22.2650138 39.5273631,22.971035 40.3946971,22.971035 C40.7533912,22.971035 41.0885643,22.8473304 41.3531747,22.6391447 L41.4560787,22.5546635 C41.5319337,22.4858717 41.6013204,22.4095369 41.6633568,22.3271678 C41.8488781,22.0803621 41.9670707,21.7777384 41.9891216,21.449167 L41.9891216,21.4340811 C41.9929437,21.3993834 41.9941198,21.3634789 41.9941198,21.3296865 C41.9941198,21.2853339 41.9914737,21.2427916 41.9891216,21.1990424 L41.9891216,1.83746556 C41.9964719,1.77531156 42,1.71345927 42,1.65160698" id="Fill-12" fill="#FFFFFF"></path>
                </g>
            </g>
        </g>
    </g>
</svg>