<?xml version="1.0" encoding="UTF-8"?>
<svg width="63px" height="63px" viewBox="0 0 63 63" version="1.1" xmlns="http://www.w3.org/2000/svg" xmlns:xlink="http://www.w3.org/1999/xlink">
    <!-- Generator: Sketch 46.2 (44496) - http://www.bohemiancoding.com/sketch -->
    <title>Tools</title>
    <desc>Created with Sketch.</desc>
    <defs>
        <polygon id="path-1" points="34.855 0.0428828829 34.855 33.9111712 0.30425 33.9111712 0.30425 0.0428828829"></polygon>
    </defs>
    <g id="Styled-Pages" stroke="none" stroke-width="1" fill="none" fill-rule="evenodd">
        <g id="Developers" transform="translate(-871.000000, -389.000000)">
            <g id="Tools" transform="translate(871.000000, 389.000000)">
                <g id="Group-3" transform="translate(28.000000, 2.000000)">
                    <mask id="mask-2" fill="white">
                        <use xlink:href="#path-1"></use>
                    </mask>
                    <g id="Clip-2"></g>
                    <path d="M30.957375,6.03117117 L9.473,27.0897297 C9.169875,27.3899099 8.769875,27.5369369 8.369875,27.5369369 C7.969875,27.5369369 7.569875,27.3899099 7.263625,27.0897297 C6.65425,26.4924324 6.65425,25.5214414 7.263625,24.9241441 L28.748,3.86558559 C29.357375,3.26828829 30.348,3.26828829 30.957375,3.86558559 C31.56675,4.46288288 31.56675,5.43387387 30.957375,6.03117117 M33.21675,1.65099099 C32.1605,0.615675676 30.75425,0.0428828829 29.2605,0.0428828829 C27.763625,0.0428828829 26.3605,0.615675676 25.301125,1.65099099 L0.30425,26.1524324 L8.219875,33.9111712 L33.21675,9.40972973 C35.401125,7.26864865 35.401125,3.78900901 33.21675,1.65099099" id="Fill-1" fill="#ED325B" mask="url(#mask-2)"></path>
                </g>
                <g id="Group-6" fill="#A0ABD7">
                    <path d="M57.6038149,57.4641089 C56.8547104,58.209505 55.857994,58.6211881 54.798591,58.6211881 C53.7391881,58.6211881 52.7424716,58.209505 51.9933672,57.4641089 C50.445009,55.9234158 50.445009,53.4190099 51.9933672,51.8783168 C52.7424716,51.1329208 53.7391881,50.7243564 54.798591,50.7243564 C55.857994,50.7243564 56.8547104,51.1329208 57.6038149,51.8783168 C59.1521731,53.4190099 59.1521731,55.9265347 57.6038149,57.4641089 M60.7444119,49.8916337 L44.0353075,33.2652475 L38.6693373,38.6046535 L39.4968,39.424901 C40.107994,40.0361881 40.107994,41.0217327 39.4968,41.629901 C39.1896358,41.9355446 38.7884418,42.0883663 38.3872478,42.0883663 C37.9860537,42.0883663 37.5848597,41.9355446 37.2808299,41.629901 L35.3469493,39.7055941 L31.3757552,35.7571782 L25.1917254,29.6037624 L23.2578448,27.6763366 C22.6435164,27.0681683 22.6435164,26.079505 23.2578448,25.4713366 C23.8690388,24.8631683 24.8594866,24.8631683 25.4738149,25.4713366 L26.2981433,26.294703 L31.6641134,20.955297 L26.8591881,16.1741584 C27.6960537,11.8109406 26.3106806,7.25123762 23.135606,4.09188119 C20.5748597,1.54693069 17.1741134,0.143465347 13.5539642,0.143465347 C12.2626209,0.143465347 10.9806806,0.324356436 9.74575522,0.683019802 C9.2129194,0.838960396 8.80232239,1.26 8.66441194,1.79331683 C8.52650149,2.32663366 8.68321791,2.89425743 9.07500896,3.28410891 L14.2435164,8.4270297 C15.337397,9.51549505 15.337397,11.2869802 14.2435164,12.3785644 L12.2939642,14.3184653 C11.7642627,14.8455446 11.0590388,15.1355941 10.3099343,15.1355941 C9.55769552,15.1355941 8.85247164,14.8455446 8.32277015,14.3184653 L3.15426269,9.17554455 C2.76247164,8.78569307 2.19515821,8.62975248 1.65918806,8.7669802 C1.12008358,8.90420792 0.696949254,9.31277228 0.543367164,9.83985149 C-0.967379104,14.9858911 0.734561194,20.5373762 4.87187463,23.989901 C7.31351642,26.0264851 10.3945612,27.1461386 13.5476955,27.1461386 C14.4159045,27.1461386 15.2809791,27.0619307 16.1335164,26.8966337 L25.9909791,36.705297 L9.89933731,52.7172772 L9.03426269,51.8533663 C8.70202388,51.5258911 8.24441194,51.3605941 7.77739701,51.4042574 C7.31038209,51.4479208 6.89038209,51.6974257 6.62709851,52.0810396 L2.0509791,58.805198 C1.62784478,59.4258416 1.70933731,60.2554455 2.23903881,60.7825248 L4.00993433,62.5446535 C4.31396418,62.8471782 4.71515821,63 5.11948657,63 C5.42351642,63 5.7306806,62.9126733 5.99709851,62.7317822 L12.7515761,58.1783168 C13.1402328,57.9163366 13.3909791,57.4984158 13.4348597,57.0368317 C13.4787403,56.5721287 13.3126209,56.1136634 12.9835164,55.7861881 L12.1153075,54.9222772 L28.2069493,38.910297 L49.9936657,60.5891584 C51.4291881,62.0175743 53.337994,62.8035149 55.3690388,62.8035149 C57.4000836,62.8035149 59.3088896,62.0175743 60.7444119,60.5891584 C63.7094866,57.6387624 63.7094866,52.8420297 60.7444119,49.8916337" id="Fill-4"></path>
                </g>
            </g>
        </g>
    </g>
</svg>