<?xml version="1.0" encoding="UTF-8"?>
<svg width="57px" height="43px" viewBox="0 0 57 43" version="1.1" xmlns="http://www.w3.org/2000/svg" xmlns:xlink="http://www.w3.org/1999/xlink">
    <!-- Generator: Sketch 46.2 (44496) - http://www.bohemiancoding.com/sketch -->
    <title>Youtube icon</title>
    <desc>Created with Sketch.</desc>
    <defs>
        <polygon id="path-1" points="4.7818792e-05 0.0388141593 56.9311409 0.0388141593 56.9311409 42.9999715 4.7818792e-05 42.9999715"></polygon>
    </defs>
    <g id="Styled-Websites" stroke="none" stroke-width="1" fill="none" fill-rule="evenodd">
        <g id="Home-page" transform="translate(-612.000000, -1458.000000)">
            <g id="Youtube-icon" transform="translate(612.000000, 1458.000000)">
                <g id="Group-3">
                    <mask id="mask-2" fill="white">
                        <use xlink:href="#path-1"></use>
                    </mask>
                    <g id="Clip-2"></g>
                    <path d="M56.3421569,9.3145135 C56.3421569,9.3145135 55.753125,5.11602013 54.0846317,3.26093164 C51.9251351,0.819920575 49.4711703,0.819920575 48.3915176,0.722219248 C40.4407827,0.136486947 28.4656183,0.0387856195 28.4656183,0.0387856195 C28.4656183,0.0387856195 16.4903582,0.136486947 8.53971896,0.722219248 C7.45997064,0.819920575 5.00600587,0.917621903 2.84660487,3.26093164 C1.0797005,5.11611527 0.58898406,9.3145135 0.58898406,9.3145135 C0.58898406,9.3145135 4.7818792e-05,14.2941418 4.7818792e-05,19.2737701 L4.7818792e-05,23.8628785 C4.7818792e-05,28.8424117 0.58898406,33.7244338 0.58898406,33.7244338 C0.58898406,33.7244338 1.17801594,37.9229272 2.84660487,39.7780157 C5.00600587,42.2190268 7.85265856,42.1213254 9.1286552,42.4143343 C13.6438012,42.9023653 28.4656183,42.9999715 28.4656183,42.9999715 C28.4656183,42.9999715 40.4407827,42.9999715 48.3915176,42.3165378 C49.4711703,42.2189316 51.9251351,42.1212303 54.0846317,39.7779206 C55.7533163,37.9228321 56.3421569,33.7243387 56.3421569,33.7243387 C56.3421569,33.7243387 56.9311888,28.7447104 56.9311888,23.8626883 L56.9311888,19.273675 C56.9311888,14.2941418 56.3421569,9.3145135 56.3421569,9.3145135" id="Fill-1" fill="#D8362A" mask="url(#mask-2)"></path>
                </g>
                <polygon id="Fill-4" fill="#FFFFFF" points="22 11 22 32 41 21.7419954"></polygon>
            </g>
        </g>
    </g>
</svg>