<?xml version="1.0" encoding="UTF-8"?>
<svg width="62px" height="62px" viewBox="0 0 62 62" version="1.1" xmlns="http://www.w3.org/2000/svg" xmlns:xlink="http://www.w3.org/1999/xlink">
    <!-- Generator: Sketch 46.2 (44496) - http://www.bohemiancoding.com/sketch -->
    <title>Chat</title>
    <desc>Created with Sketch.</desc>
    <defs>
        <path d="M53.6135434,27.1932792 C53.6135434,41.9984491 41.6112792,53.9996943 26.8071283,53.9996943 C12.0019585,53.9996943 -0.000305660377,41.9984491 -0.000305660377,27.1932792 C-0.000305660377,12.3881094 12.0019585,0.386864151 26.8071283,0.386864151 C41.6112792,0.386864151 53.6135434,12.3881094 53.6135434,27.1932792" id="path-1"></path>
        <filter x="-14.0%" y="-8.4%" width="128.0%" height="128.0%" filterUnits="objectBoundingBox" id="filter-2">
            <feOffset dx="0" dy="3" in="SourceAlpha" result="shadowOffsetOuter1"></feOffset>
            <feGaussianBlur stdDeviation="2" in="shadowOffsetOuter1" result="shadowBlurOuter1"></feGaussianBlur>
            <feColorMatrix values="0 0 0 0 0   0 0 0 0 0   0 0 0 0 0  0 0 0 0.208163496 0" type="matrix" in="shadowBlurOuter1"></feColorMatrix>
        </filter>
    </defs>
    <g id="Styled-Websites" stroke="none" stroke-width="1" fill="none" fill-rule="evenodd">
        <g id="Pricing-page" transform="translate(-1163.000000, -1604.000000)">
            <g id="Chat" transform="translate(1167.000000, 1605.000000)">
                <g id="Group-3">
                    <g id="Fill-1">
                        <use fill="black" fill-opacity="1" filter="url(#filter-2)" xlink:href="#path-1"></use>
                        <use fill="#199AB1" fill-rule="evenodd" xlink:href="#path-1"></use>
                    </g>
                </g>
                <path d="M33.4777747,27.2566065 C32.7146769,27.2566065 32.1016794,26.6602166 32.1016794,25.925343 C32.1016794,25.1914801 32.7146769,24.5950903 33.4777747,24.5950903 C34.2408726,24.5950903 34.8601679,25.1914801 34.8601679,25.925343 C34.8601679,26.6602166 34.2408726,27.2566065 33.4777747,27.2566065 M27.5,27.2566065 C26.7369022,27.2566065 26.1176068,26.6602166 26.1176068,25.925343 C26.1176068,25.1914801 26.7369022,24.5950903 27.5,24.5950903 C28.2620482,24.5950903 28.8813436,25.1914801 28.8813436,25.925343 C28.8813436,26.6602166 28.2620482,27.2566065 27.5,27.2566065 M21.5211756,27.2566065 C20.7591274,27.2566065 20.1398321,26.6602166 20.1398321,25.925343 C20.1398321,25.1914801 20.7591274,24.5950903 21.5211756,24.5950903 C22.2842735,24.5950903 22.9035688,25.1914801 22.9035688,25.925343 C22.9035688,26.6602166 22.2842735,27.2566065 21.5211756,27.2566065 M27.5,16 C21.1495984,16 16,20.4446209 16,25.925343 C16,27.9470036 16.7043173,29.8241155 17.9030212,31.393935 C17.7466229,33.2023105 17.2910734,35.7566787 16,37 C16,37 19.9435469,36.4662816 22.6170135,34.9156679 C24.0970245,35.5120578 25.7523275,35.8516968 27.5,35.8516968 C33.849352,35.8516968 39,31.406065 39,25.925343 C39,20.4446209 33.849352,16 27.5,16" id="Fill-4" fill="#FFFFFF"></path>
            </g>
        </g>
    </g>
</svg>