<?xml version="1.0" encoding="UTF-8"?>
<svg width="397px" height="220px" viewBox="0 0 397 220" version="1.1" xmlns="http://www.w3.org/2000/svg" xmlns:xlink="http://www.w3.org/1999/xlink">
    <!-- Generator: Sketch 46.2 (44496) - http://www.bohemiancoding.com/sketch -->
    <title>Flow icon</title>
    <desc>Created with Sketch.</desc>
    <defs>
        <polygon id="path-1" points="0 221 397 221 397 0 0 0"></polygon>
    </defs>
    <g id="Styled-Websites" stroke="none" stroke-width="1" fill="none" fill-rule="evenodd">
        <g id="Home-page" transform="translate(-443.000000, -958.000000)">
            <g id="Flow-icon" transform="translate(443.000000, 957.000000)">
                <path d="M100.407505,47 L290.592495,47 C329.485047,47 361,78.5724138 361,117.510345 C361,156.448276 329.485047,188 290.592495,188 L100.407505,188 C61.5149529,188 30,156.448276 30,117.510345 C30,78.5724138 61.5149529,47 100.407505,47 Z" id="Stroke-1" stroke="#333133" stroke-width="0.5" stroke-linecap="round" stroke-linejoin="round" stroke-dasharray="1.99,1.99"></path>
                <path d="M11,210.602974 C11,213.584287 13.4064664,216 16.371761,216 L58.626177,216 C61.5935336,216 64,213.584287 64,210.602974 L64,120.397026 C64,117.415713 61.5935336,115 58.626177,115 L16.371761,115 C13.4064664,115 11,117.415713 11,120.397026 L11,210.602974 Z" id="Fill-3" fill="#FFFFFF"></path>
                <path d="M11,210.602974 C11,213.584287 13.4064664,216 16.371761,216 L58.626177,216 C61.5935336,216 64,213.584287 64,210.602974 L64,120.397026 C64,117.415713 61.5935336,115 58.626177,115 L16.371761,115 C13.4064664,115 11,117.415713 11,120.397026 L11,210.602974 Z" id="Stroke-5" stroke="#333133" stroke-width="0.5"></path>
                <mask id="mask-2" fill="white">
                    <use xlink:href="#path-1"></use>
                </mask>
                <g id="Clip-8"></g>
                <polygon id="Fill-7" fill="#FFFFFF" mask="url(#mask-2)" points="16 167 58 167 58 121 16 121"></polygon>
                <polygon id="Stroke-9" stroke="#262526" stroke-width="0.5" mask="url(#mask-2)" points="16 167 58 167 58 121 16 121"></polygon>
                <path d="M16,176 C16,177.657495 17.2713869,179 18.8410766,179 L25.1568661,179 C26.7265558,179 28,177.657495 28,176 C28,174.342505 26.7265558,173 25.1568661,173 L18.8410766,173 C17.2713869,173 16,174.342505 16,176 C16,176 16,174.342505 16,176 Z" id="Stroke-10" stroke="#000000" stroke-width="0.5" mask="url(#mask-2)"></path>
                <path d="M16,186 C16,187.657495 17.2713869,189 18.8410766,189 L25.1568661,189 C26.7265558,189 28,187.657495 28,186 C28,184.342505 26.7265558,183 25.1568661,183 L18.8410766,183 C17.2713869,183 16,184.342505 16,186 C16,186 16,184.342505 16,186 Z" id="Stroke-11" stroke="#000000" stroke-width="0.5" mask="url(#mask-2)"></path>
                <path d="M16,196 C16,197.657495 17.2713869,199 18.8410766,199 L25.1568661,199 C26.7265558,199 28,197.657495 28,196 C28,194.342505 26.7265558,193 25.1568661,193 L18.8410766,193 C17.2713869,193 16,194.342505 16,196 C16,196 16,194.342505 16,196 Z" id="Stroke-12" stroke="#000000" stroke-width="0.5" mask="url(#mask-2)"></path>
                <path d="M16,206 C16,207.657495 17.2713869,209 18.8410766,209 L25.1568661,209 C26.7265558,209 28,207.657495 28,206 C28,204.342505 26.7265558,203 25.1568661,203 L18.8410766,203 C17.2713869,203 16,204.342505 16,206 C16,206 16,204.342505 16,206 Z" id="Stroke-13" stroke="#000000" stroke-width="0.5" mask="url(#mask-2)"></path>
                <path d="M32,176 C32,177.657495 33.2713869,179 34.8410766,179 L41.1568661,179 C42.7265558,179 44,177.657495 44,176 C44,174.342505 42.7265558,173 41.1568661,173 L34.8410766,173 C33.2713869,173 32,174.342505 32,176 C32,176 32,174.342505 32,176 Z" id="Stroke-14" stroke="#000000" stroke-width="0.5" mask="url(#mask-2)"></path>
                <path d="M32,186 C32,187.657495 33.2713869,189 34.8410766,189 L41.1568661,189 C42.7265558,189 44,187.657495 44,186 C44,184.342505 42.7265558,183 41.1568661,183 L34.8410766,183 C33.2713869,183 32,184.342505 32,186 C32,186 32,184.342505 32,186 Z" id="Stroke-15" stroke="#000000" stroke-width="0.5" mask="url(#mask-2)"></path>
                <path d="M32,196 C32,197.657495 33.2713869,199 34.8410766,199 L41.1568661,199 C42.7265558,199 44,197.657495 44,196 C44,194.342505 42.7265558,193 41.1568661,193 L34.8410766,193 C33.2713869,193 32,194.342505 32,196 C32,196 32,194.342505 32,196 Z" id="Stroke-16" stroke="#000000" stroke-width="0.5" mask="url(#mask-2)"></path>
                <path d="M32,206 C32,207.657495 33.2713869,209 34.8410766,209 L41.1568661,209 C42.7265558,209 44,207.657495 44,206 C44,204.342505 42.7265558,203 41.1568661,203 L34.8410766,203 C33.2713869,203 32,204.342505 32,206 C32,206 32,204.342505 32,206 Z" id="Stroke-17" stroke="#000000" stroke-width="0.5" mask="url(#mask-2)"></path>
                <path d="M47,176 C47,177.657495 48.2713869,179 49.8410766,179 L56.1568661,179 C57.7265558,179 59,177.657495 59,176 C59,174.342505 57.7265558,173 56.1568661,173 L49.8410766,173 C48.2713869,173 47,174.342505 47,176 C47,176 47,174.342505 47,176 Z" id="Stroke-18" stroke="#000000" stroke-width="0.5" mask="url(#mask-2)"></path>
                <path d="M47,186 C47,187.657495 48.2713869,189 49.8410766,189 L56.1568661,189 C57.7265558,189 59,187.657495 59,186 C59,184.342505 57.7265558,183 56.1568661,183 L49.8410766,183 C48.2713869,183 47,184.342505 47,186 C47,186 47,184.342505 47,186 Z" id="Stroke-19" stroke="#000000" stroke-width="0.5" mask="url(#mask-2)"></path>
                <path d="M47,196 C47,197.657495 48.2713869,199 49.8410766,199 L56.1568661,199 C57.7265558,199 59,197.657495 59,196 C59,194.342505 57.7265558,193 56.1568661,193 L49.8410766,193 C48.2713869,193 47,194.342505 47,196 C47,196 47,194.342505 47,196 Z" id="Stroke-20" stroke="#000000" stroke-width="0.5" mask="url(#mask-2)"></path>
                <path d="M47,206 C47,207.657495 48.2713869,209 49.8410766,209 L56.1568661,209 C57.7265558,209 59,207.657495 59,206 C59,204.342505 57.7265558,203 56.1568661,203 L49.8410766,203 C48.2713869,203 47,204.342505 47,206 C47,206 47,204.342505 47,206 Z" id="Stroke-21" stroke="#000000" stroke-width="0.5" mask="url(#mask-2)"></path>
                <path d="M31,118.356 C31,118.552 31.1643631,118.712 31.3657079,118.712 L41.6342921,118.712 C41.8376914,118.712 42,118.552 42,118.356 C42,118.16 41.8376914,118 41.6342921,118 L31.3657079,118 C31.1643631,118 31,118.16 31,118.356 C31,118.356 31,118.16 31,118.356" id="Fill-22" fill="#000000" mask="url(#mask-2)"></path>
                <path d="M45.918,118.46 C45.918,118.714 45.712,118.92 45.458,118.92 C45.206,118.92 45,118.714 45,118.46 C45,118.206 45.206,118 45.458,118 C45.712,118 45.918,118.206 45.918,118.46" id="Fill-23" fill="#000000" mask="url(#mask-2)"></path>
                <path d="M317,214.031932 C317,217.880431 320.149207,221 324.034268,221 L377.965732,221 C381.850793,221 385,217.880431 385,214.031932 L385,95.968068 C385,92.1195695 381.850793,89 377.965732,89 L324.034268,89 C320.149207,89 317,92.1195695 317,95.968068 L317,214.031932 Z" id="Fill-24" fill="#FFFFFF" mask="url(#mask-2)"></path>
                <path d="M317,214.031932 C317,217.880431 320.149207,221 324.034268,221 L377.965732,221 C381.850793,221 385,217.880431 385,214.031932 L385,95.968068 C385,92.1195695 381.850793,89 377.965732,89 L324.034268,89 C320.149207,89 317,92.1195695 317,95.968068 L317,214.031932 Z" id="Stroke-25" stroke="#333133" stroke-width="0.5" mask="url(#mask-2)"></path>
                <polygon id="Fill-26" fill="#FDFDFF" mask="url(#mask-2)" points="320 209 381 209 381 103 320 103"></polygon>
                <polygon id="Stroke-27" stroke="#262526" stroke-width="0.5" mask="url(#mask-2)" points="320 209 381 209 381 103 320 103"></polygon>
                <path d="M341,214.65 C341,215.01 341.294563,215.3 341.655705,215.3 L360.344295,215.3 C360.705437,215.3 361,215.01 361,214.65 C361,214.29 360.705437,214 360.344295,214 L341.655705,214 C341.294563,214 341,214.29 341,214.65 C341,214.65 341,214.29 341,214.65" id="Fill-28" fill="#000000" mask="url(#mask-2)"></path>
                <path d="M338,96 C338,96.551167 337.552962,97 337,97 C336.448833,97 336,96.551167 336,96 C336,95.448833 336.448833,95 337,95 C337.552962,95 338,95.448833 338,96" id="Fill-29" fill="#000000" mask="url(#mask-2)"></path>
                <path d="M346,95.78 C346,96.21 346.367935,96.56 346.824683,96.56 L367.177432,96.56 C367.632065,96.56 368,96.21 368,95.78 C368,95.35 367.632065,95 367.177432,95 L346.824683,95 C346.367935,95 346,95.35 346,95.78 C346,95.78 346,95.35 346,95.78" id="Fill-30" fill="#000000" mask="url(#mask-2)"></path>
                <path d="M331,161 C331,164.31322 333.751128,167 337.1437,167 L390.8563,167 C394.250955,167 397,164.31322 397,161 C397,157.68678 394.250955,155 390.8563,155 L337.1437,155 C333.751128,155 331,157.68678 331,161 C331,161 331,157.68678 331,161" id="Fill-31" stroke="#E26888" fill="#F77395" mask="url(#mask-2)"></path>
                <path d="M303,179 C303,182.31322 305.751128,185 309.1437,185 L362.8563,185 C366.248872,185 369,182.31322 369,179 C369,175.68678 366.248872,173 362.8563,173 L309.1437,173 C305.751128,173 303,175.68678 303,179 C303,179 303,175.68678 303,179" id="Fill-32" stroke="#2CC192" fill="#28D09B" mask="url(#mask-2)"></path>
                <path d="M346.000889,127.070681 C346.000889,126.932681 345.998889,127.032681 346.000889,127.070681" id="Fill-34" fill="#333133" mask="url(#mask-2)"></path>
                <path d="M359,128.125358 C359.002,128.087358 359,127.863358 359,128.125358" id="Fill-35" fill="#333133" mask="url(#mask-2)"></path>
                <g id="Group" mask="url(#mask-2)" fill="#333133">
                    <g transform="translate(335.000000, 111.000000)">
                        <path d="M6.5,8 C8.4326809,8 10,6.20854701 10,4.0009768 C10,1.79145299 9.485172,0 6.5,0 C3.514828,0 3,1.79145299 3,4.0009768 C3,6.20854701 4.5673191,8 6.5,8" id="Fill-33"></path>
                        <path d="M12.9918342,14.3043689 C12.928549,10.0009709 12.4038945,8.77548544 8.38426508,8 C8.38426508,8 7.81878141,8.7711165 6.5,8.7711165 C5.18121859,8.7711165 4.61573492,8 4.61573492,8 C0.641017588,8.76674757 0.0836997487,9.97475728 0.0102072864,14.1645631 C0.00408291457,14.5075243 0.00204145729,14.525 0,14.4856796 C0,14.5599515 0.00204145729,14.6975728 0.00204145729,14.9378641 C0.00204145729,14.9378641 0.957443467,17 6.5,17 C12.0425565,17 12.9979585,14.9378641 12.9979585,14.9378641 C12.9979585,14.782767 12.9979585,14.6757282 13,14.6036408 C12.9979585,14.6276699 12.9959171,14.5796117 12.9918342,14.3043689" id="Fill-36"></path>
                    </g>
                </g>
                <g id="Group-Copy" mask="url(#mask-2)" fill="#333133">
                    <g transform="translate(348.000000, 118.000000)">
                        <path d="M4.5,6 C5.88048636,6 7,4.65641026 7,3.0007326 C7,1.34358974 6.63226572,0 4.5,0 C2.36773428,0 2,1.34358974 2,3.0007326 C2,4.65641026 3.11951364,6 4.5,6" id="Fill-33"></path>
                        <path d="M8.99434673,10.2029126 C8.95053392,7.33398058 8.58731156,6.51699029 5.80449121,6 C5.80449121,6 5.41300251,6.51407767 4.5,6.51407767 C3.58699749,6.51407767 3.19550879,6 3.19550879,6 C0.443781407,6.51116505 0.0579459799,7.31650485 0.00706658291,10.1097087 C0.00282663317,10.3383495 0.00141331658,10.35 0,10.3237864 C0,10.373301 0.00141331658,10.4650485 0.00141331658,10.6252427 C0.00141331658,10.6252427 0.662845477,12 4.5,12 C8.33715452,12 8.99858668,10.6252427 8.99858668,10.6252427 C8.99858668,10.5218447 8.99858668,10.4504854 9,10.4024272 C8.99858668,10.4184466 8.99717337,10.3864078 8.99434673,10.2029126" id="Fill-36"></path>
                    </g>
                </g>
                <g id="Group-Copy-2" mask="url(#mask-2)" fill="#333133">
                    <g transform="translate(357.000000, 115.000000)">
                        <path d="M5,7 C6.65658363,7 8,5.43247863 8,3.5008547 C8,1.56752137 7.55871886,0 5,0 C2.44128114,0 2,1.56752137 2,3.5008547 C2,5.43247863 3.34341637,7 5,7" id="Fill-33"></path>
                        <path d="M9.99371859,11.9033981 C9.94503769,8.55631068 9.54145729,7.60315534 6.44943467,7 C6.44943467,7 6.01444724,7.59975728 5,7.59975728 C3.98555276,7.59975728 3.55056533,7 3.55056533,7 C0.493090452,7.59635922 0.0643844221,8.53592233 0.00785175879,11.7946602 C0.00314070352,12.0614078 0.00157035176,12.075 0,12.0444175 C0,12.1021845 0.00157035176,12.2092233 0.00157035176,12.3961165 C0.00157035176,12.3961165 0.736494975,14 5,14 C9.26350503,14 9.99842965,12.3961165 9.99842965,12.3961165 C9.99842965,12.2754854 9.99842965,12.192233 10,12.136165 C9.99842965,12.1548544 9.9968593,12.1174757 9.99371859,11.9033981" id="Fill-36"></path>
                    </g>
                </g>
                <path d="M0,138.5 C0,142.090129 2.79329045,145 6.23958465,145 L42.7604154,145 C46.2067095,145 49,142.090129 49,138.5 C49,134.909871 46.2067095,132 42.7604154,132 L6.23958465,132 C2.79329045,132 0,134.909871 0,138.5 C0,138.5 0,134.909871 0,138.5" id="Fill-37" stroke="#5FBC97" stroke-width="0.5" fill="#69CBA4" mask="url(#mask-2)"></path>
                <path d="M6,135.914 C6,136.42 6.41826692,136.828 6.93242919,136.828 L39.0675708,136.828 C39.5817331,136.828 40,136.42 40,135.914 C40,135.408 39.5817331,135 39.0675708,135 L6.93242919,135 C6.41826692,135 6,135.408 6,135.914 C6,135.914 6,135.408 6,135.914" id="Fill-38" fill="#FFFFFF" mask="url(#mask-2)"></path>
                <path d="M7,139.914 C7,140.42 7.41320844,140.828 7.92115248,140.828 L23.0768319,140.828 C23.5867916,140.828 24,140.42 24,139.914 C24,139.408 23.5867916,139 23.0768319,139 L7.92115248,139 C7.41320844,139 7,139.408 7,139.914 C7,139.914 7,139.408 7,139.914" id="Fill-39" fill="#FFFFFF" mask="url(#mask-2)"></path>
                <path d="M337,158.89 C337,159.382 337.410584,159.78 337.918141,159.78 L376.081859,159.78 C376.589416,159.78 377,159.382 377,158.89 C377,158.398 376.589416,158 376.081859,158 L337.918141,158 C337.410584,158 337,158.398 337,158.89 C337,158.89 337,158.398 337,158.89" id="Fill-40" fill="#FFFFFF" mask="url(#mask-2)"></path>
                <path d="M342,161.89 C342,162.382 342.411808,162.78 342.920876,162.78 L358.077054,162.78 C358.586123,162.78 359,162.382 359,161.89 C359,161.398 358.586123,161 358.077054,161 L342.920876,161 C342.411808,161 342,161.398 342,161.89 C342,161.89 342,161.398 342,161.89" id="Fill-41" fill="#FFFFFF" mask="url(#mask-2)"></path>
                <path d="M308,177.89 C308,178.382 308.407426,178.78 308.911079,178.78 L351.088921,178.78 C351.592574,178.78 352,178.382 352,177.89 C352,177.398 351.592574,177 351.088921,177 L308.911079,177 C308.407426,177 308,177.398 308,177.89 C308,177.89 308,177.398 308,177.89" id="Fill-42" fill="#FFFFFF" mask="url(#mask-2)"></path>
                <path d="M312,180.89 C312,181.382 312.406417,181.78 312.908821,181.78 L342.091179,181.78 C342.593583,181.78 343,181.382 343,180.89 C343,180.398 342.593583,180 342.091179,180 L312.908821,180 C312.406417,180 312,180.398 312,180.89 C312,180.89 312,180.398 312,180.89" id="Fill-43" fill="#FFFFFF" mask="url(#mask-2)"></path>
                <path d="M307,145 C307,148.31322 309.751128,151 313.1437,151 L366.8563,151 C370.248872,151 373,148.31322 373,145 C373,141.68678 370.248872,139 366.8563,139 L313.1437,139 C309.751128,139 307,141.68678 307,145 C307,145 307,141.68678 307,145" id="Fill-44" fill="#FFFFFF" mask="url(#mask-2)"></path>
                <path d="M307,145 C307,148.31322 309.751128,151 313.1437,151 L366.8563,151 C370.248872,151 373,148.31322 373,145 C373,141.68678 370.248872,139 366.8563,139 L313.1437,139 C309.751128,139 307,141.68678 307,145 C307,145 307,141.68678 307,145 Z" id="Stroke-45" stroke="#DDA769" stroke-width="0.5" fill="#F5BC7B" mask="url(#mask-2)"></path>
                <path d="M313,143.89 C313,144.382 313.416857,144.78 313.932167,144.78 L346.067833,144.78 C346.583143,144.78 347,144.382 347,143.89 C347,143.398 346.583143,143 346.067833,143 L313.932167,143 C313.416857,143 313,143.398 313,143.89 C313,143.89 313,143.398 313,143.89" id="Fill-46" fill="#FFFFFF" mask="url(#mask-2)"></path>
                <path d="M311,146.89 C311,147.382 311.411808,147.78 311.920876,147.78 L327.077054,147.78 C327.586123,147.78 328,147.382 328,146.89 C328,146.398 327.586123,146 327.077054,146 L311.920876,146 C311.411808,146 311,146.398 311,146.89 C311,146.89 311,146.398 311,146.89" id="Fill-47" fill="#FFFFFF" mask="url(#mask-2)"></path>
                <path d="M26,154.5 C26,158.090129 28.8111356,161 32.2794466,161 L68.7205534,161 C72.1888644,161 75,158.090129 75,154.5 C75,150.909871 72.1888644,148 68.7205534,148 L32.2794466,148 C28.8111356,148 26,150.909871 26,154.5 C26,154.5 26,150.909871 26,154.5" id="Fill-48" fill="#FFFFFF" mask="url(#mask-2)"></path>
                <path d="M26,154.5 C26,158.090129 28.8111356,161 32.2794466,161 L68.7205534,161 C72.1888644,161 75,158.090129 75,154.5 C75,150.909871 72.1888644,148 68.7205534,148 L32.2794466,148 C28.8111356,148 26,150.909871 26,154.5 C26,154.5 26,150.909871 26,154.5 Z" id="Stroke-49" stroke="#74C3E2" stroke-width="0.5" fill="#96E1FF" mask="url(#mask-2)"></path>
                <path d="M32,152.914 C32,153.42 32.4182669,153.828 32.9324292,153.828 L65.0675708,153.828 C65.5817331,153.828 66,153.42 66,152.914 C66,152.408 65.5817331,152 65.0675708,152 L32.9324292,152 C32.4182669,152 32,152.408 32,152.914 C32,152.914 32,152.408 32,152.914" id="Fill-50" fill="#FFFFFF" mask="url(#mask-2)"></path>
                <path d="M32,155.914 C32,156.42 32.4132084,156.828 32.9211525,156.828 L48.0768319,156.828 C48.5867916,156.828 49,156.42 49,155.914 C49,155.408 48.5867916,155 48.0768319,155 L32.9211525,155 C32.4132084,155 32,155.408 32,155.914 C32,155.914 32,155.408 32,155.914" id="Fill-51" fill="#FFFFFF" mask="url(#mask-2)"></path>
                <path d="M286.656345,2 L100.343655,2 C93.5205292,2 88,7.52369497 88,14.3507337 L88,130.410392 C88,137.216743 93.5205292,142.740438 100.343655,142.740438 L180.691132,142.740438 C180.835865,149.505413 180.691132,161.938898 177.899853,167.090209 C177.899853,167.090209 169.629397,171.72432 168.967761,174 L218.011563,174 C217.370603,171.72432 209.100147,167.090209 209.100147,167.090209 C206.308868,161.938898 206.164135,149.505413 206.308868,142.740438 L286.656345,142.740438 C293.479471,142.740438 299,137.216743 299,130.410392 L299,14.3507337 C299,7.52369497 293.479471,2 286.656345,2" id="Fill-52" fill="#FFFFFF" mask="url(#mask-2)"></path>
                <path d="M286.656345,2 L100.343655,2 C93.5205292,2 88,7.52369497 88,14.3507337 L88,130.410392 C88,137.216743 93.5205292,142.740438 100.343655,142.740438 L180.691132,142.740438 C180.835865,149.505413 180.691132,161.938898 177.899853,167.090209 C177.899853,167.090209 169.629397,171.72432 168.967761,174 L218.011563,174 C217.370603,171.72432 209.100147,167.090209 209.100147,167.090209 C206.308868,161.938898 206.164135,149.505413 206.308868,142.740438 L286.656345,142.740438 C293.479471,142.740438 299,137.216743 299,130.410392 L299,14.3507337 C299,7.52369497 293.479471,2 286.656345,2 Z" id="Stroke-53" stroke="#3F3F3F" stroke-width="0.5" mask="url(#mask-2)"></path>
                <path d="M291,102.644045 C291,109.464698 285.484401,115 278.688027,115 L107.332631,115 C100.515599,115 95,109.464698 95,102.644045 L95,21.3559554 C95,14.5353022 100.515599,9 107.332631,9 L278.688027,9 C285.484401,9 291,14.5353022 291,21.3559554 L291,102.644045 Z" id="Fill-54" fill="#F4F4FC" mask="url(#mask-2)"></path>
                <path d="M291,102.644045 C291,109.464698 285.484401,115 278.688027,115 L107.332631,115 C100.515599,115 95,109.464698 95,102.644045 L95,21.3559554 C95,14.5353022 100.515599,9 107.332631,9 L278.688027,9 C285.484401,9 291,14.5353022 291,21.3559554 L291,102.644045 Z" id="Stroke-55" stroke="#3F3F3F" stroke-width="0.5" mask="url(#mask-2)"></path>
                <path d="M252,69.3629911 C252,70.8197425 253.192836,72 254.665113,72 L283.334887,72 C284.807164,72 286,70.8197425 286,69.3629911 L286,24.6390723 C286,23.1802575 284.807164,22 283.334887,22 L254.665113,22 C253.192836,22 252,23.1802575 252,24.6390723 L252,69.3629911 Z" id="Stroke-56" stroke="#262526" stroke-width="0.5" opacity="0.110224185" mask="url(#mask-2)"></path>
                <path d="M254,25.674 C254,26.046 254.307786,26.348 254.686914,26.348 L278.313086,26.348 C278.692214,26.348 279,26.046 279,25.674 C279,25.302 278.692214,25 278.313086,25 L254.686914,25 C254.307786,25 254,25.302 254,25.674 C254,25.674 254,25.302 254,25.674" id="Fill-57" fill="#3F3F3F" mask="url(#mask-2)"></path>
                <path d="M254,28.674 C254,29.046 254.316256,29.348 254.705816,29.348 L266.296278,29.348 C266.685839,29.348 267,29.046 267,28.674 C267,28.302 266.685839,28 266.296278,28 L254.705816,28 C254.316256,28 254,28.302 254,28.674 C254,28.674 254,28.302 254,28.674" id="Fill-58" fill="#3F3F3F" mask="url(#mask-2)"></path>
                <path d="M254,31.674 C254,32.046 254.307786,32.348 254.686914,32.348 L278.313086,32.348 C278.692214,32.348 279,32.046 279,31.674 C279,31.302 278.692214,31 278.313086,31 L254.686914,31 C254.307786,31 254,31.302 254,31.674 C254,31.674 254,31.302 254,31.674" id="Fill-59" fill="#3F3F3F" mask="url(#mask-2)"></path>
                <path d="M254,34.674 C254,35.046 254.308038,35.348 254.687475,35.348 L273.312525,35.348 C273.691962,35.348 274,35.046 274,34.674 C274,34.302 273.691962,34 273.312525,34 L254.687475,34 C254.308038,34 254,34.302 254,34.674 C254,34.674 254,34.302 254,34.674" id="Fill-60" fill="#3F3F3F" mask="url(#mask-2)"></path>
                <path d="M254,37.674 C254,38.046 254.323456,38.348 254.721885,38.348 L265.278115,38.348 C265.676544,38.348 266,38.046 266,37.674 C266,37.302 265.676544,37 265.278115,37 L254.721885,37 C254.323456,37 254,37.302 254,37.674 C254,37.674 254,37.302 254,37.674" id="Fill-61" fill="#3F3F3F" mask="url(#mask-2)"></path>
                <path d="M280,53.5 C280,60.4039276 274.403928,66 267.5,66 C260.596072,66 255,60.4039276 255,53.5 C255,46.5960724 260.596072,41 267.5,41 C274.403928,41 280,46.5960724 280,53.5" id="Fill-62" fill="#F93C88" mask="url(#mask-2)"></path>
                <path d="M101,100.367527 C101,101.821772 102.183385,103 103.643998,103 L137.356002,103 C138.816615,103 140,101.821772 140,100.367527 L140,25.6324734 C140,24.1782275 138.816615,23 137.356002,23 L103.643998,23 C102.183385,23 101,24.1782275 101,25.6324734 L101,100.367527 Z" id="Stroke-63" stroke="#D5D5D5" stroke-width="0.5" mask="url(#mask-2)"></path>
                <path d="M105,28.674 C105,29.046 105.307786,29.348 105.686914,29.348 L129.313086,29.348 C129.692214,29.348 130,29.046 130,28.674 C130,28.302 129.692214,28 129.313086,28 L105.686914,28 C105.307786,28 105,28.302 105,28.674 C105,28.674 105,28.302 105,28.674" id="Fill-64" fill="#B2B2B2" mask="url(#mask-2)"></path>
                <path d="M105,31.674 C105,32.046 105.316256,32.348 105.705816,32.348 L117.296278,32.348 C117.685839,32.348 118,32.046 118,31.674 C118,31.302 117.685839,31 117.296278,31 L105.705816,31 C105.316256,31 105,31.302 105,31.674 C105,31.674 105,31.302 105,31.674" id="Fill-65" fill="#B2B2B2" mask="url(#mask-2)"></path>
                <path d="M105,60.674 C105,61.046 105.307786,61.348 105.686914,61.348 L129.313086,61.348 C129.692214,61.348 130,61.046 130,60.674 C130,60.302 129.692214,60 129.313086,60 L105.686914,60 C105.307786,60 105,60.302 105,60.674 C105,60.674 105,60.302 105,60.674" id="Fill-66" fill="#E8E8E8" mask="url(#mask-2)"></path>
                <path d="M105,63.674 C105,64.046 105.308038,64.348 105.687475,64.348 L124.312525,64.348 C124.691962,64.348 125,64.046 125,63.674 C125,63.302 124.691962,63 124.312525,63 L105.687475,63 C105.308038,63 105,63.302 105,63.674 C105,63.674 105,63.302 105,63.674" id="Fill-67" fill="#E8E8E8" mask="url(#mask-2)"></path>
                <path d="M106,66.674 C106,67.046 106.323456,67.348 106.721885,67.348 L117.278115,67.348 C117.676544,67.348 118,67.046 118,66.674 C118,66.302 117.676544,66 117.278115,66 L106.721885,66 C106.323456,66 106,66.302 106,66.674 C106,66.674 106,66.302 106,66.674" id="Fill-68" fill="#E8E8E8" mask="url(#mask-2)"></path>
                <path d="M107,72.5879207 C107,73.9204152 108.181644,75 109.640106,75 L118.359894,75 C119.818356,75 121,73.9204152 121,72.5879207 L121,71.4120793 C121,70.0795848 119.818356,69 118.359894,69 L109.640106,69 C108.181644,69 107,70.0795848 107,71.4120793 L107,72.5879207 Z" id="Fill-69" fill="#88C1AA" mask="url(#mask-2)"></path>
                <path d="M106,54.4115886 C106,55.8414935 107.186722,57 108.651452,57 L112.346473,57 C113.811203,57 115,55.8414935 115,54.4115886 L115,36.5904368 C115,35.1585065 113.811203,34 112.346473,34 L108.651452,34 C107.186722,34 106,35.1585065 106,36.5904368 L106,54.4115886 Z" id="Fill-70" fill="#45D560" mask="url(#mask-2)"></path>
                <path d="M116,54.3901723 C116,55.8319081 117.186722,57 118.651452,57 L122.346473,57 C123.811203,57 125,55.8319081 125,54.3901723 L125,43.6098277 C125,42.1680919 123.811203,41 122.346473,41 L118.651452,41 C117.186722,41 116,42.1680919 116,43.6098277 L116,54.3901723 Z" id="Fill-71" fill="#9DADEB" mask="url(#mask-2)"></path>
                <path d="M127,55.2938062 C127,56.7887771 128.186722,58 129.651452,58 L133.346473,58 C134.811203,58 136,56.7887771 136,55.2938062 L136,40.7083113 C136,39.2133404 134.811203,38 133.346473,38 L129.651452,38 C128.186722,38 127,39.2133404 127,40.7083113 L127,55.2938062 Z" id="Fill-72" fill="#FFC76A" mask="url(#mask-2)"></path>
                <path d="M144,98.127766 C144,101.371476 146.622578,104 149.858951,104 L242.143115,104 C245.377422,104 248,101.371476 248,98.127766 L248,27.872234 C248,24.6285238 245.377422,22 242.143115,22 L149.858951,22 C146.622578,22 144,24.6285238 144,27.872234 L144,98.127766 Z" id="Stroke-73" stroke="#B9B8B8" stroke-width="0.5" mask="url(#mask-2)"></path>
                <path d="M153,32.894 C153,33.388 153.412275,33.788 153.921435,33.788 L223.078565,33.788 C223.587725,33.788 224,33.388 224,32.894 C224,32.4 223.587725,32 223.078565,32 L153.921435,32 C153.412275,32 153,32.4 153,32.894 C153,32.894 153,32.4 153,32.894" id="Fill-74" fill="#E1E1E1" mask="url(#mask-2)"></path>
                <path d="M153,37.894 C153,38.388 153.410324,38.788 153.917075,38.788 L183.082925,38.788 C183.589676,38.788 184,38.388 184,37.894 C184,37.4 183.589676,37 183.082925,37 L153.917075,37 C153.410324,37 153,37.4 153,37.894 C153,37.894 153,37.4 153,37.894" id="Fill-75" fill="#E1E1E1" mask="url(#mask-2)"></path>
                <path d="M153,42.894 C153,43.388 153.416624,43.788 153.931155,43.788 L193.068845,43.788 C193.583376,43.788 194,43.388 194,42.894 C194,42.4 193.583376,42 193.068845,42 L153.931155,42 C153.416624,42 153,42.4 153,42.894 C153,42.894 153,42.4 153,42.894" id="Fill-76" fill="#E1E1E1" mask="url(#mask-2)"></path>
                <path d="M153,46.894 C153,47.388 153.41517,47.788 153.927904,47.788 L204.07002,47.788 C204.582754,47.788 205,47.388 205,46.894 C205,46.4 204.582754,46 204.07002,46 L153.927904,46 C153.41517,46 153,46.4 153,46.894 C153,46.894 153,46.4 153,46.894" id="Fill-77" fill="#E1E1E1" mask="url(#mask-2)"></path>
                <path d="M153,51.894 C153,52.388 153.41517,52.788 153.927904,52.788 L204.07002,52.788 C204.582754,52.788 205,52.388 205,51.894 C205,51.4 204.582754,51 204.07002,51 L153.927904,51 C153.41517,51 153,51.4 153,51.894 C153,51.894 153,51.4 153,51.894" id="Fill-78" fill="#E1E1E1" mask="url(#mask-2)"></path>
            </g>
        </g>
    </g>
</svg>