<?xml version="1.0" encoding="UTF-8"?>
<svg width="327px" height="271px" viewBox="0 0 327 271" version="1.1" xmlns="http://www.w3.org/2000/svg" xmlns:xlink="http://www.w3.org/1999/xlink">
    <!-- Generator: Sketch 46.2 (44496) - http://www.bohemiancoding.com/sketch -->
    <title>Monitor sketch</title>
    <desc>Created with Sketch.</desc>
    <defs>
        <path d="M304.104263,0 L18.8957374,0 C8.45085742,0 0,8.44611499 0,18.8851335 L0,196.348448 C0,206.755834 8.45085742,215.201949 18.8957374,215.201949 L141.892112,215.201949 C142.11367,225.546067 141.892112,244.557734 137.619206,252.434448 C137.619206,252.434448 124.958746,259.520327 123.945909,263 L199.02244,263 C198.041254,259.520327 185.380794,252.434448 185.380794,252.434448 C181.107888,244.557734 180.88633,225.546067 181.107888,215.201949 L304.104263,215.201949 C314.549143,215.201949 323,206.755834 323,196.348448 L323,18.8851335 C323,8.44611499 314.549143,0 304.104263,0 Z" id="path-1"></path>
        <filter x="-1.0%" y="-1.2%" width="102.6%" height="104.8%" filterUnits="objectBoundingBox" id="filter-2">
            <feMorphology radius="0.25" operator="dilate" in="SourceAlpha" result="shadowSpreadOuter1"></feMorphology>
            <feOffset dx="2" dy="6" in="shadowSpreadOuter1" result="shadowOffsetOuter1"></feOffset>
            <feComposite in="shadowOffsetOuter1" in2="SourceAlpha" operator="out" result="shadowOffsetOuter1"></feComposite>
            <feColorMatrix values="0 0 0 0 0   0 0 0 0 0   0 0 0 0 0  0 0 0 0.135586504 0" type="matrix" in="shadowOffsetOuter1"></feColorMatrix>
        </filter>
    </defs>
    <g id="Styled-Websites" stroke="none" stroke-width="1" fill="none" fill-rule="evenodd">
        <g id="Home-page" transform="translate(-784.000000, -1672.000000)">
            <g id="Monitor-sketch" transform="translate(785.000000, 1673.000000)">
                <g id="Web">
                    <path d="M304.104263,0 L18.8957374,0 C8.45085742,0 0,8.44611499 0,18.8851335 L0,196.348448 C0,206.755834 8.45085742,215.201949 18.8957374,215.201949 L141.892112,215.201949 C142.11367,225.546067 141.892112,244.557734 137.619206,252.434448 C137.619206,252.434448 124.958746,259.520327 123.945909,263 L199.02244,263 C198.041254,259.520327 185.380794,252.434448 185.380794,252.434448 C181.107888,244.557734 180.88633,225.546067 181.107888,215.201949 L304.104263,215.201949 C314.549143,215.201949 323,206.755834 323,196.348448 L323,18.8851335 C323,8.44611499 314.549143,0 304.104263,0" id="Fill-52" fill="#FFFFFF"></path>
                    <g id="Stroke-53">
                        <use fill="black" fill-opacity="1" filter="url(#filter-2)" xlink:href="#path-1"></use>
                        <use stroke="#333133" stroke-width="0.5" fill="#FFFFFF" fill-rule="evenodd" xlink:href="#path-1"></use>
                    </g>
                    <path d="M311,154.11637 C311,164.540387 302.557757,173 292.155143,173 L29.8764755,173 C19.4422428,173 11,164.540387 11,154.11637 L11,29.88363 C11,19.4596128 19.4422428,11 29.8764755,11 L292.155143,11 C302.557757,11 311,19.4596128 311,29.88363 L311,154.11637 Z" id="Fill-54" fill="#199AB1" opacity="0.0895606884"></path>
                    <path d="M311,154.11637 C311,164.540387 302.557757,173 292.155143,173 L29.8764755,173 C19.4422428,173 11,164.540387 11,154.11637 L11,29.88363 C11,19.4596128 19.4422428,11 29.8764755,11 L292.155143,11 C302.557757,11 311,19.4596128 311,29.88363 L311,154.11637 Z" id="Stroke-55" stroke="#3F3F3F" stroke-width="0.5"></path>
                    <g id="Group-8" opacity="0.0527060688" transform="translate(251.000000, 31.000000)">
                        <path d="M0,71.9917465 C0,74.2060086 1.82433759,76 4.07605496,76 L47.923945,76 C50.1756624,76 52,74.2060086 52,71.9917465 L52,4.0113899 C52,1.79399142 50.1756624,0 47.923945,0 L4.07605496,0 C1.82433759,0 0,1.79399142 0,4.0113899 L0,71.9917465 Z" id="Stroke-56" stroke="#262526" stroke-width="0.5" opacity="0.110224185"></path>
                        <path d="M3,5 C3,5.55192878 3.4678353,6 4.04410925,6 L39.9558907,6 C40.5321647,6 41,5.55192878 41,5 C41,4.44807122 40.5321647,4 39.9558907,4 L4.04410925,4 C3.4678353,4 3,4.44807122 3,5 C3,5 3,4.44807122 3,5" id="Fill-57" fill="#3F3F3F"></path>
                        <path d="M3,10 C3,10.5519288 3.48654745,11 4.08587079,11 L21.9173514,11 C22.5166747,11 23,10.5519288 23,10 C23,9.44807122 22.5166747,9 21.9173514,9 L4.08587079,9 C3.48654745,9 3,9.44807122 3,10 C3,10 3,9.44807122 3,10" id="Fill-58" fill="#3F3F3F"></path>
                        <path d="M3,14 C3,14.5519288 3.4678353,15 4.04410925,15 L39.9558907,15 C40.5321647,15 41,14.5519288 41,14 C41,13.4480712 40.5321647,13 39.9558907,13 L4.04410925,13 C3.4678353,13 3,13.4480712 3,14 C3,14 3,13.4480712 3,14" id="Fill-59" fill="#3F3F3F"></path>
                        <path d="M3,19 C3,19.5519288 3.47745818,20 4.06558548,20 L32.9344145,20 C33.5225418,20 34,19.5519288 34,19 C34,18.4480712 33.5225418,18 32.9344145,18 L4.06558548,18 C3.47745818,18 3,18.4480712 3,19 C3,19 3,18.4480712 3,19" id="Fill-60" fill="#3F3F3F"></path>
                        <path d="M3,24 C3,24.5519288 3.48518386,25 4.08282756,25 L19.9171724,25 C20.5148161,25 21,24.5519288 21,24 C21,23.4480712 20.5148161,23 19.9171724,23 L4.08282756,23 C3.48518386,23 3,23.4480712 3,24 C3,24 3,23.4480712 3,24" id="Fill-61" fill="#3F3F3F"></path>
                        <path d="M43,48 C43,58.49397 34.49397,67 24,67 C13.50603,67 5,58.49397 5,48 C5,37.50603 13.50603,29 24,29 C34.49397,29 43,37.50603 43,48" id="Fill-62" fill="#D521A8"></path>
                    </g>
                    <g id="Group-4" opacity="0.118036685" transform="translate(20.000000, 32.000000)">
                        <path d="M0,117.985478 C0,120.203203 1.82059307,122 4.06768872,122 L55.9323113,122 C58.1794069,122 60,120.203203 60,117.985478 L60,4.01452186 C60,1.79679695 58.1794069,0 55.9323113,0 L4.06768872,0 C1.82059307,0 0,1.79679695 0,4.01452186 L0,117.985478 Z" id="Stroke-63" stroke="#D5D5D5" stroke-width="0.5"></path>
                        <path d="M6,9 C6,9.55192878 6.4678353,10 7.04410925,10 L42.9558907,10 C43.5321647,10 44,9.55192878 44,9 C44,8.44807122 43.5321647,8 42.9558907,8 L7.04410925,8 C6.4678353,8 6,8.44807122 6,9 C6,9 6,8.44807122 6,9" id="Fill-64" fill="#B2B2B2"></path>
                        <path d="M6,13 C6,13.5519288 6.48654745,14 7.08587079,14 L24.9173514,14 C25.5166747,14 26,13.5519288 26,13 C26,12.4480712 25.5166747,12 24.9173514,12 L7.08587079,12 C6.48654745,12 6,12.4480712 6,13 C6,13 6,12.4480712 6,13" id="Fill-65" fill="#B2B2B2"></path>
                        <path d="M6,58 C6,58.5519288 6.4678353,59 7.04410925,59 L42.9558907,59 C43.5321647,59 44,58.5519288 44,58 C44,57.4480712 43.5321647,57 42.9558907,57 L7.04410925,57 C6.4678353,57 6,57.4480712 6,58 C6,58 6,57.4480712 6,58" id="Fill-66" fill="#E8E8E8"></path>
                        <path d="M6,62 C6,62.5519288 6.47745818,63 7.06558548,63 L35.9344145,63 C36.5225418,63 37,62.5519288 37,62 C37,61.4480712 36.5225418,61 35.9344145,61 L7.06558548,61 C6.47745818,61 6,61.4480712 6,62 C6,62 6,61.4480712 6,62" id="Fill-67" fill="#E8E8E8"></path>
                        <path d="M8,67 C8,67.5519288 8.48518386,68 9.08282756,68 L24.9171724,68 C25.5148161,68 26,67.5519288 26,67 C26,66.4480712 25.5148161,66 24.9171724,66 L9.08282756,66 C8.48518386,66 8,66.4480712 8,67 C8,67 8,66.4480712 8,67" id="Fill-68" fill="#E8E8E8"></path>
                        <path d="M9,75.3818811 C9,77.3806228 10.7724657,79 12.9601594,79 L26.0398406,79 C28.2275343,79 30,77.3806228 30,75.3818811 L30,73.6181189 C30,71.6193772 28.2275343,70 26.0398406,70 L12.9601594,70 C10.7724657,70 9,71.6193772 9,73.6181189 L9,75.3818811 Z" id="Fill-69" fill="#88C1AA"></path>
                        <path d="M8,48.0611131 C8,50.2370553 9.84601199,52 12.1244813,52 L17.8722914,52 C20.1507607,52 22,50.2370553 22,48.0611131 L22,20.941969 C22,18.7629447 20.1507607,17 17.8722914,17 L12.1244813,17 C9.84601199,17 8,18.7629447 8,20.941969 L8,48.0611131 Z" id="Fill-70" fill="#45D560"></path>
                        <path d="M23,48.0852585 C23,50.2478622 24.846012,52 27.1244813,52 L32.8722914,52 C35.1507607,52 37,50.2478622 37,48.0852585 L37,31.9147415 C37,29.7521378 35.1507607,28 32.8722914,28 L27.1244813,28 C24.846012,28 23,29.7521378 23,31.9147415 L23,48.0852585 Z" id="Fill-71" fill="#9DADEB"></path>
                        <path d="M40,49.8053997 C40,52.1226046 41.846012,54 44.1244813,54 L49.8722914,54 C52.1507607,54 54,52.1226046 54,49.8053997 L54,27.1978825 C54,24.8806776 52.1507607,23 49.8722914,23 L44.1244813,23 C41.846012,23 40,24.8806776 40,27.1978825 L40,49.8053997 Z" id="Fill-72" fill="#FFC76A"></path>
                    </g>
                    <path d="M86,147.048424 C86,151.993104 90.0095185,156 94.957435,156 L236.045725,156 C240.990481,156 245,151.993104 245,147.048424 L245,39.9515762 C245,35.006896 240.990481,31 236.045725,31 L94.957435,31 C90.0095185,31 86,35.006896 86,39.9515762 L86,147.048424 Z" id="Stroke-73" stroke-opacity="0.73120471" stroke="#B9B8B8" stroke-width="0.5" fill="#FFFFFF"></path>
                    <g id="Group-7" transform="translate(100.000000, 86.000000)" fill="#E1E1E1">
                        <path d="M0,1.5 C0,2.32885906 0.632929768,3 1.41459803,3 L107.585402,3 C108.36707,3 109,2.32885906 109,1.5 C109,0.67114094 108.36707,0 107.585402,0 L1.41459803,0 C0.632929768,0 0,0.67114094 0,1.5 C0,1.5 0,0.67114094 0,1.5" id="Fill-74"></path>
                        <path d="M0,9.5 C0,10.3288591 0.622104567,11 1.39040371,11 L45.6095963,11 C46.3778954,11 47,10.3288591 47,9.5 C47,8.67114094 46.3778954,8 45.6095963,8 L1.39040371,8 C0.622104567,8 0,8.67114094 0,9.5 C0,9.5 0,8.67114094 0,9.5" id="Fill-75"></path>
                        <path d="M0,16.5 C0,17.3288591 0.640178844,18 1.43079972,18 L61.5692003,18 C62.3598212,18 63,17.3288591 63,16.5 C63,15.6711409 62.3598212,15 61.5692003,15 L1.43079972,15 C0.640178844,15 0,15.6711409 0,16.5 C0,16.5 0,15.6711409 0,16.5" id="Fill-76"></path>
                        <path d="M0,22.5 C0,23.3288591 0.638722555,24 1.42754491,24 L78.5692615,24 C79.3580838,24 80,23.3288591 80,22.5 C80,21.6711409 79.3580838,21 78.5692615,21 L1.42754491,21 C0.638722555,21 0,21.6711409 0,22.5 C0,22.5 0,21.6711409 0,22.5" id="Fill-77"></path>
                        <path d="M0,30.5 C0,31.3288591 0.638722555,32 1.42754491,32 L78.5692615,32 C79.3580838,32 80,31.3288591 80,30.5 C80,29.6711409 79.3580838,29 78.5692615,29 L1.42754491,29 C0.638722555,29 0,29.6711409 0,30.5 C0,30.5 0,29.6711409 0,30.5" id="Fill-78"></path>
                    </g>
                    <path d="M100,132.381881 C100,134.380623 101.772466,136 103.960159,136 L117.039841,136 C119.227534,136 121,134.380623 121,132.381881 L121,130.618119 C121,128.619377 119.227534,127 117.039841,127 L103.960159,127 C101.772466,127 100,128.619377 100,130.618119 L100,132.381881 Z" id="Fill-69-Copy" fill="#F7AA73"></path>
                </g>
                <g id="Page-1" opacity="0.385756341" transform="translate(101.000000, 42.000000)">
                    <g id="Group-3" transform="translate(6.000000, 1.000000)" fill="#231F20">
                        <path d="M0.656708889,1.26133333 C0.828553333,10.5034167 0.282597778,19.7363333 0.266153333,28.9771667 C0.264508889,29.803 1.13072,30.22675 1.81275333,29.8763333 C11.6243311,24.8388333 25.3883311,24.86925 35.34832,29.4805 C36.5446533,30.03425 37.5901089,28.23925 36.3859644,27.68175 C25.7114644,22.7396667 11.3007867,22.6734167 0.775108889,28.0775833 C1.29064222,28.3775833 1.80617556,28.6771667 2.32170889,28.9771667 C2.33815333,19.7363333 2.88410889,10.5034167 2.71226444,1.26133333 C2.68718667,-0.0803333333 0.631631111,-0.0828333333 0.656708889,1.26133333" id="Fill-1"></path>
                    </g>
                    <g id="Group-6" fill="#231F20">
                        <path d="M0.991676978,2.57006986 C18.8519504,2.56412466 36.7126338,2.18023425 54.571677,2.57006986 C54.2419791,2.31017945 53.9126914,2.05028904 53.5829935,1.79082329 C54.9624755,10.8173438 55.1465978,20.2579055 53.5829935,29.2716863 C53.3508928,30.6102068 55.3266194,31.1822205 55.5599504,29.8360562 C57.1940871,20.4163027 57.0017633,10.6589466 55.5599504,1.22602877 C55.4890079,0.760179452 54.9895403,0.4557 54.571677,0.446782192 C36.7126338,0.0569465753 18.8519504,0.440836986 0.991676978,0.446782192 C-0.330394964,0.447206849 -0.330394964,2.57049452 0.991676978,2.57006986" id="Fill-4"></path>
                    </g>
                    <path d="M18.969686,12.9919317 C25.6336396,12.16423 32.3276183,12.3239375 39.0187568,12.3322701 C40.3272839,12.3336589 40.3268782,10.0190567 39.0187568,10.017668 C32.3276183,10.0093354 25.6336396,9.84962785 18.969686,10.6773296 C17.6834748,10.8370371 17.6700852,13.153491 18.969686,12.9919317" id="Fill-7" fill="#D06C80"></path>
                    <path d="M26.0245632,15 L48.975119,15 C50.341627,15 50.341627,13 48.975119,13 L26.0245632,13 C24.6584789,13 24.6584789,15 26.0245632,15" id="Fill-9" fill="#4585F2"></path>
                    <path d="M32.9591003,19.739998 C35.9820385,19.995621 39.0097535,19.9994526 42.0374685,20 C43.3208438,20 43.3208438,17.2631366 42.0374685,17.2631366 C39.0097535,17.2625892 35.9820385,17.2587576 32.9591003,17.0031346 C31.676521,16.8947548 31.6840844,19.6321656 32.9591003,19.739998" id="Fill-11" fill="#231F20"></path>
                </g>
            </g>
        </g>
    </g>
</svg>