<?xml version="1.0" encoding="UTF-8"?>
<svg width="255px" height="343px" viewBox="0 0 255 343" version="1.1" xmlns="http://www.w3.org/2000/svg" xmlns:xlink="http://www.w3.org/1999/xlink">
    <!-- Generator: Sketch 46.2 (44496) - http://www.bohemiancoding.com/sketch -->
    <title>Feature phone</title>
    <desc>Created with Sketch.</desc>
    <defs>
        <path d="M44,247.053231 C44,254.757415 50.2204887,261 57.8854953,261 L167.109174,261 C174.779511,261 181,254.757415 181,247.053231 L181,13.9467692 C181,6.24258462 174.779511,0 167.109174,0 L57.8854953,0 C50.2204887,0 44,6.24258462 44,13.9467692 L44,247.053231 Z" id="path-1"></path>
        <filter x="-1.6%" y="-0.9%" width="104.7%" height="103.3%" filterUnits="objectBoundingBox" id="filter-2">
            <feMorphology radius="0.25" operator="dilate" in="SourceAlpha" result="shadowSpreadOuter1"></feMorphology>
            <feOffset dx="2" dy="4" in="shadowSpreadOuter1" result="shadowOffsetOuter1"></feOffset>
            <feComposite in="shadowOffsetOuter1" in2="SourceAlpha" operator="out" result="shadowOffsetOuter1"></feComposite>
            <feColorMatrix values="0 0 0 0 0   0 0 0 0 0   0 0 0 0 0  0 0 0 0.135586504 0" type="matrix" in="shadowOffsetOuter1"></feColorMatrix>
        </filter>
    </defs>
    <g id="Styled-Pages" stroke="none" stroke-width="1" fill="none" fill-rule="evenodd">
        <g id="Home-page" transform="translate(-784.000000, -2241.000000)">
            <g id="Feature-phone" transform="translate(748.000000, 2242.000000)">
                <g id="USSD" transform="translate(118.500000, 192.500000) rotate(13.000000) translate(-118.500000, -192.500000) translate(28.000000, 62.000000)">
                    <path d="M44,247.053231 C44,254.757415 50.2204887,261 57.8854953,261 L167.109174,261 C174.779511,261 181,254.757415 181,247.053231 L181,13.9467692 C181,6.24258462 174.779511,0 167.109174,0 L57.8854953,0 C50.2204887,0 44,6.24258462 44,13.9467692 L44,247.053231 Z" id="Fill-3" fill="#FFFFFF"></path>
                    <g id="Stroke-5">
                        <use fill="black" fill-opacity="1" filter="url(#filter-2)" xlink:href="#path-1"></use>
                        <use stroke="#333133" stroke-width="0.5" fill="#FFFFFF" fill-rule="evenodd" xlink:href="#path-1"></use>
                    </g>
                    <polygon id="Fill-7" fill="#FFFFFF" points="57 135 166 135 166 16 57 16"></polygon>
                    <polygon id="Stroke-9" stroke="#262526" stroke-width="0.5" points="57 135 166 135 166 16 57 16"></polygon>
                    <path d="M57,158 C57,162.419986 60.2844163,166 64.339448,166 L80.6552374,166 C84.7102692,166 88,162.419986 88,158 C88,153.580014 84.7102692,150 80.6552374,150 L64.339448,150 C60.2844163,150 57,153.580014 57,158 C57,158 57,153.580014 57,158 Z" id="Stroke-10" stroke="#000000" stroke-width="0.5"></path>
                    <path d="M57,184 C57,188.419986 60.2844163,192 64.339448,192 L80.6552374,192 C84.7102692,192 88,188.419986 88,184 C88,179.580014 84.7102692,176 80.6552374,176 L64.339448,176 C60.2844163,176 57,179.580014 57,184 C57,184 57,179.580014 57,184 Z" id="Stroke-11" stroke="#000000" stroke-width="0.5"></path>
                    <path d="M57,210 C57,214.419986 60.2844163,218 64.339448,218 L80.6552374,218 C84.7102692,218 88,214.419986 88,210 C88,205.580014 84.7102692,202 80.6552374,202 L64.339448,202 C60.2844163,202 57,205.580014 57,210 C57,210 57,205.580014 57,210 Z" id="Stroke-12" stroke="#000000" stroke-width="0.5"></path>
                    <path d="M57,235 C57,239.419986 60.2844163,243 64.339448,243 L80.6552374,243 C84.7102692,243 88,239.419986 88,235 C88,230.580014 84.7102692,227 80.6552374,227 L64.339448,227 C60.2844163,227 57,230.580014 57,235 C57,235 57,230.580014 57,235 Z" id="Stroke-13" stroke="#000000" stroke-width="0.5"></path>
                    <path d="M99,158 C99,162.419986 102.284416,166 106.339448,166 L122.655237,166 C126.710269,166 130,162.419986 130,158 C130,153.580014 126.710269,150 122.655237,150 L106.339448,150 C102.284416,150 99,153.580014 99,158 C99,158 99,153.580014 99,158 Z" id="Stroke-14" stroke="#000000" stroke-width="0.5"></path>
                    <path d="M99,184 C99,188.419986 102.284416,192 106.339448,192 L122.655237,192 C126.710269,192 130,188.419986 130,184 C130,179.580014 126.710269,176 122.655237,176 L106.339448,176 C102.284416,176 99,179.580014 99,184 C99,184 99,179.580014 99,184 Z" id="Stroke-15" stroke="#000000" stroke-width="0.5"></path>
                    <path d="M99,210 C99,214.419986 102.284416,218 106.339448,218 L122.655237,218 C126.710269,218 130,214.419986 130,210 C130,205.580014 126.710269,202 122.655237,202 L106.339448,202 C102.284416,202 99,205.580014 99,210 C99,210 99,205.580014 99,210 Z" id="Stroke-16" stroke="#000000" stroke-width="0.5"></path>
                    <path d="M99,235 C99,239.419986 102.284416,243 106.339448,243 L122.655237,243 C126.710269,243 130,239.419986 130,235 C130,230.580014 126.710269,227 122.655237,227 L106.339448,227 C102.284416,227 99,230.580014 99,235 C99,235 99,230.580014 99,235 Z" id="Stroke-17" stroke="#000000" stroke-width="0.5"></path>
                    <path d="M138,158 C138,162.419986 141.284416,166 145.339448,166 L161.655237,166 C165.710269,166 169,162.419986 169,158 C169,153.580014 165.710269,150 161.655237,150 L145.339448,150 C141.284416,150 138,153.580014 138,158 C138,158 138,153.580014 138,158 Z" id="Stroke-18" stroke="#000000" stroke-width="0.5"></path>
                    <path d="M138,184 C138,188.419986 141.284416,192 145.339448,192 L161.655237,192 C165.710269,192 169,188.419986 169,184 C169,179.580014 165.710269,176 161.655237,176 L145.339448,176 C141.284416,176 138,179.580014 138,184 C138,184 138,179.580014 138,184 Z" id="Stroke-19" stroke="#000000" stroke-width="0.5"></path>
                    <path d="M138,210 C138,214.419986 141.284416,218 145.339448,218 L161.655237,218 C165.710269,218 169,214.419986 169,210 C169,205.580014 165.710269,202 161.655237,202 L145.339448,202 C141.284416,202 138,205.580014 138,210 C138,210 138,205.580014 138,210 Z" id="Stroke-20" stroke="#000000" stroke-width="0.5"></path>
                    <path d="M138,235 C138,239.419986 141.284416,243 145.339448,243 L161.655237,243 C165.710269,243 169,239.419986 169,235 C169,230.580014 165.710269,227 161.655237,227 L145.339448,227 C141.284416,227 138,230.580014 138,235 C138,235 138,230.580014 138,235 Z" id="Stroke-21" stroke="#000000" stroke-width="0.5"></path>
                    <path d="M96,9.068 C96,9.656 96.4183788,10.136 96.9308928,10.136 L123.069107,10.136 C123.586851,10.136 124,9.656 124,9.068 C124,8.48 123.586851,8 123.069107,8 L96.9308928,8 C96.4183788,8 96,8.48 96,9.068 C96,9.068 96,8.48 96,9.068" id="Fill-22" fill="#000000"></path>
                    <path d="M134.754,9.38 C134.754,10.142 134.136,10.76 133.374,10.76 C132.618,10.76 132,10.142 132,9.38 C132,8.618 132.618,8 133.374,8 C134.136,8 134.754,8.618 134.754,9.38" id="Fill-23" fill="#000000"></path>
                    <g id="Group-12" transform="translate(0.090467, 82.686473)">
                        <path d="M0,17 C0,26.3895675 7.23975281,34 16.1719847,34 L110.828015,34 C119.760247,34 127,26.3895675 127,17 C127,7.61043249 119.760247,-4.54747351e-13 110.828015,-4.54747351e-13 L16.1719847,-4.54747351e-13 C7.23975281,-4.54747351e-13 0,7.61043249 0,17 C0,17 0,7.61043249 0,17" id="Fill-37" fill="#69CBA4"></path>
                        <path d="M16,10.5 C16,11.8840263 17.0825732,13 18.4133461,13 L101.586654,13 C102.917427,13 104,11.8840263 104,10.5 C104,9.11597374 102.917427,8 101.586654,8 L18.4133461,8 C17.0825732,8 16,9.11597374 16,10.5 C16,10.5 16,9.11597374 16,10.5" id="Fill-38" fill="#FFFFFF"></path>
                        <path d="M18,20.5 C18,21.8840263 19.0694807,23 20.3841594,23 L59.6106237,23 C60.9305193,23 62,21.8840263 62,20.5 C62,19.1159737 60.9305193,18 59.6106237,18 L20.3841594,18 C19.0694807,18 18,19.1159737 18,20.5 C18,20.5 18,19.1159737 18,20.5" id="Fill-39" fill="#FFFFFF"></path>
                    </g>
                </g>
                <circle id="Oval-4-Copy-11" fill="#9AE934" cx="284" cy="122" r="7"></circle>
                <circle id="Oval-4-Copy-9" fill="#FF9E02" opacity="0.691123188" cx="243" cy="170" r="3"></circle>
                <circle id="Oval-4-Copy-10" stroke="#FF00CD" stroke-width="2" cx="94" cy="4" r="4"></circle>
                <path d="M112.478027,119.910156 L111.940918,119.189941 C111.460772,118.717934 111.220703,118.144209 111.220703,117.46875 C111.220703,116.793291 111.458738,116.217532 111.934814,115.741455 C112.410891,115.265378 112.98665,115.027344 113.662109,115.027344 C114.337568,115.027344 114.915362,115.263344 115.395508,115.735352 L117.324219,118.506348 L119.265137,115.735352 C119.737144,115.263344 120.310869,115.027344 120.986328,115.027344 C121.661787,115.027344 122.237546,115.265378 122.713623,115.741455 C123.1897,116.217532 123.427734,116.793291 123.427734,117.46875 C123.427734,118.144209 123.191734,118.717934 122.719727,119.189941 L122.182617,119.910156 L122.207031,119.910156 C122.88249,119.910156 123.45825,120.148191 123.934326,120.624268 C124.410403,121.100344 124.648438,121.676103 124.648438,122.351562 C124.648438,123.027022 124.410403,123.602781 123.934326,124.078857 C123.45825,124.554934 122.88249,124.792969 122.207031,124.792969 L122.194824,124.792969 L122.719727,125.500977 C123.191734,125.981122 123.427734,126.558916 123.427734,127.234375 C123.427734,127.909834 123.1897,128.485593 122.713623,128.96167 C122.237546,129.437747 121.661787,129.675781 120.986328,129.675781 C120.310869,129.675781 119.737144,129.435712 119.265137,128.955566 L117.324219,126.196777 L115.395508,128.955566 C114.915362,129.435712 114.337568,129.675781 113.662109,129.675781 C112.98665,129.675781 112.410891,129.437747 111.934814,128.96167 C111.458738,128.485593 111.220703,127.909834 111.220703,127.234375 C111.220703,126.558916 111.460772,125.981122 111.940918,125.500977 L112.46582,124.792969 L112.441406,124.792969 C111.765947,124.792969 111.190188,124.554934 110.714111,124.078857 C110.238035,123.602781 110,123.027022 110,122.351562 C110,121.676103 110.238035,121.100344 110.714111,120.624268 C111.190188,120.148191 111.765947,119.910156 112.441406,119.910156 L112.478027,119.910156 Z M139.296875,117.46875 C139.972334,117.46875 140.548093,117.706785 141.02417,118.182861 C141.500247,118.658938 141.738281,119.234697 141.738281,119.910156 C141.738281,120.585615 141.636557,121.094237 141.433105,121.436035 L131.66748,135.779297 L131.655273,135.779297 C131.549479,135.958334 131.419272,136.125162 131.264648,136.279785 C130.784503,136.759931 130.206709,137 129.53125,137 C128.855791,137 128.280032,136.761965 127.803955,136.285889 C127.327878,135.809812 127.089844,135.234053 127.089844,134.558594 C127.089844,134.111 127.195637,133.704103 127.407227,133.337891 L127.39502,133.337891 L134.719238,122.351562 L129.53125,122.351562 C128.855791,122.351562 128.280032,122.113528 127.803955,121.637451 C127.327878,121.161375 127.089844,120.585615 127.089844,119.910156 C127.089844,119.234697 127.327878,118.658938 127.803955,118.182861 C128.280032,117.706785 128.855791,117.46875 129.53125,117.46875 L139.296875,117.46875 Z M156.386719,117.46875 C157.062178,117.46875 157.637937,117.706785 158.114014,118.182861 C158.59009,118.658938 158.828125,119.234697 158.828125,119.910156 C158.828125,120.585615 158.726401,121.094237 158.522949,121.436035 L148.757324,135.779297 L148.745117,135.779297 C148.639322,135.958334 148.509115,136.125162 148.354492,136.279785 C147.874347,136.759931 147.296553,137 146.621094,137 C145.945635,137 145.369875,136.761965 144.893799,136.285889 C144.417722,135.809812 144.179688,135.234053 144.179688,134.558594 C144.179688,134.111 144.285481,133.704103 144.49707,133.337891 L144.484863,133.337891 L151.809082,122.351562 L146.621094,122.351562 C145.945635,122.351562 145.369875,122.113528 144.893799,121.637451 C144.417722,121.161375 144.179688,120.585615 144.179688,119.910156 C144.179688,119.234697 144.417722,118.658938 144.893799,118.182861 C145.369875,117.706785 145.945635,117.46875 146.621094,117.46875 L156.386719,117.46875 Z M173.476562,117.46875 C174.152022,117.46875 174.727781,117.706785 175.203857,118.182861 C175.679934,118.658938 175.917969,119.234697 175.917969,119.910156 C175.917969,120.585615 175.816245,121.094237 175.612793,121.436035 L165.847168,135.779297 L165.834961,135.779297 C165.729166,135.958334 165.598959,136.125162 165.444336,136.279785 C164.96419,136.759931 164.386397,137 163.710938,137 C163.035478,137 162.459719,136.761965 161.983643,136.285889 C161.507566,135.809812 161.269531,135.234053 161.269531,134.558594 C161.269531,134.111 161.375324,133.704103 161.586914,133.337891 L161.574707,133.337891 L168.898926,122.351562 L163.710938,122.351562 C163.035478,122.351562 162.459719,122.113528 161.983643,121.637451 C161.507566,121.161375 161.269531,120.585615 161.269531,119.910156 C161.269531,119.234697 161.507566,118.658938 161.983643,118.182861 C162.459719,117.706785 163.035478,117.46875 163.710938,117.46875 L173.476562,117.46875 Z M186.904297,126.013672 L186.904297,128.455078 L189.345703,128.455078 L189.345703,126.013672 L186.904297,126.013672 Z M186.904297,133.337891 L186.904297,134.558594 C186.904297,135.234053 186.666262,135.809812 186.190186,136.285889 C185.714109,136.761965 185.13835,137 184.462891,137 C183.787432,137 183.211672,136.761965 182.735596,136.285889 C182.259519,135.809812 182.021484,135.234053 182.021484,134.558594 L182.021484,133.337891 L180.800781,133.337891 C180.125322,133.337891 179.549563,133.099856 179.073486,132.623779 C178.59741,132.147703 178.359375,131.571943 178.359375,130.896484 C178.359375,130.221025 178.59741,129.645266 179.073486,129.169189 C179.549563,128.693113 180.125322,128.455078 180.800781,128.455078 L182.021484,128.455078 L182.021484,126.013672 L180.800781,126.013672 C180.125322,126.013672 179.549563,125.775637 179.073486,125.299561 C178.59741,124.823484 178.359375,124.247725 178.359375,123.572266 C178.359375,122.896807 178.59741,122.321047 179.073486,121.844971 C179.549563,121.368894 180.125322,121.130859 180.800781,121.130859 L182.021484,121.130859 L182.021484,119.910156 C182.021484,119.234697 182.259519,118.658938 182.735596,118.182861 C183.211672,117.706785 183.787432,117.46875 184.462891,117.46875 C185.13835,117.46875 185.714109,117.706785 186.190186,118.182861 C186.666262,118.658938 186.904297,119.234697 186.904297,119.910156 L186.904297,121.130859 L189.345703,121.130859 L189.345703,119.910156 C189.345703,119.234697 189.583738,118.658938 190.059814,118.182861 C190.535891,117.706785 191.11165,117.46875 191.787109,117.46875 C192.462568,117.46875 193.038328,117.706785 193.514404,118.182861 C193.990481,118.658938 194.228516,119.234697 194.228516,119.910156 L194.228516,121.130859 L195.449219,121.130859 C196.124678,121.130859 196.700437,121.368894 197.176514,121.844971 C197.65259,122.321047 197.890625,122.896807 197.890625,123.572266 C197.890625,124.247725 197.65259,124.823484 197.176514,125.299561 C196.700437,125.775637 196.124678,126.013672 195.449219,126.013672 L194.228516,126.013672 L194.228516,128.455078 L195.449219,128.455078 C196.124678,128.455078 196.700437,128.693113 197.176514,129.169189 C197.65259,129.645266 197.890625,130.221025 197.890625,130.896484 C197.890625,131.571943 197.65259,132.147703 197.176514,132.623779 C196.700437,133.099856 196.124678,133.337891 195.449219,133.337891 L194.228516,133.337891 L194.228516,134.558594 C194.228516,135.234053 193.990481,135.809812 193.514404,136.285889 C193.038328,136.761965 192.462568,137 191.787109,137 C191.11165,137 190.535891,136.761965 190.059814,136.285889 C189.583738,135.809812 189.345703,135.234053 189.345703,134.558594 L189.345703,133.337891 L186.904297,133.337891 Z" id="*777#" fill="#199AB1" opacity="0.292289402" transform="translate(153.945312, 126.013672) rotate(13.000000) translate(-153.945312, -126.013672) "></path>
                <path d="M157,8 L155,37" id="Path-2" stroke="#FF3838" stroke-width="3" stroke-linecap="round" stroke-linejoin="round"></path>
                <path d="M242.613303,37.7974751 L229,51.4107783" id="Path-2-Copy" stroke="#FFD338" stroke-width="3" stroke-linecap="round" stroke-linejoin="round"></path>
                <path d="M68,48 L77,65" id="Path-2-Copy-2" stroke="#38FF61" stroke-width="3" stroke-linecap="round" stroke-linejoin="round"></path>
            </g>
        </g>
    </g>
</svg>