<?xml version="1.0" encoding="UTF-8"?>
<svg width="255px" height="343px" viewBox="0 30 255 343" version="1.1" xmlns="http://www.w3.org/2000/svg" xmlns:xlink="http://www.w3.org/1999/xlink">
    <title>Feature phone</title>
    <desc>Created with Sketch.</desc>
    <defs>
        <path d="M44,247.053231 C44,254.757415 50.2204887,261 57.8854953,261 L167.109174,261 C174.779511,261 181,254.757415 181,247.053231 L181,13.9467692 C181,6.24258462 174.779511,0 167.109174,0 L57.8854953,0 C50.2204887,0 44,6.24258462 44,13.9467692 L44,247.053231 Z" id="path-1"></path>
        <filter x="-1.6%" y="-0.9%" width="104.7%" height="103.3%" filterUnits="objectBoundingBox" id="filter-2">
            <feMorphology radius="0.25" operator="dilate" in="SourceAlpha" result="shadowSpreadOuter1"></feMorphology>
            <feOffset dx="2" dy="4" in="shadowSpreadOuter1" result="shadowOffsetOuter1"></feOffset>
            <feComposite in="shadowOffsetOuter1" in2="SourceAlpha" operator="out" result="shadowOffsetOuter1"></feComposite>
            <feColorMatrix values="0 0 0 0 0   0 0 0 0 0   0 0 0 0 0  0 0 0 0.135586504 0" type="matrix" in="shadowOffsetOuter1"></feColorMatrix>
        </filter>
    </defs>
    <g id="Styled-Websites" stroke="none" stroke-width="1" fill="none" fill-rule="evenodd">
        <g id="Home-page" transform="translate(-784.000000, -2241.000000)">
            <g id="Feature-phone" transform="translate(748.000000, 2242.000000)">
                <g id="USSD" transform="translate(118.500000, 192.500000) rotate(13.000000) translate(-118.500000, -192.500000) translate(28.000000, 62.000000)">
                    <path d="M44,247.053231 C44,254.757415 50.2204887,261 57.8854953,261 L167.109174,261 C174.779511,261 181,254.757415 181,247.053231 L181,13.9467692 C181,6.24258462 174.779511,0 167.109174,0 L57.8854953,0 C50.2204887,0 44,6.24258462 44,13.9467692 L44,247.053231 Z" id="Fill-3" fill="#FFFFFF"></path>
                    <g id="Stroke-5">
                        <use fill="black" fill-opacity="1" filter="url(#filter-2)" xlink:href="#path-1"></use>
                        <use stroke="#333133" stroke-width="0.5" fill="#FFFFFF" fill-rule="evenodd" xlink:href="#path-1"></use>
                    </g>
                    <polygon id="Fill-7" fill="#FFFFFF" points="57 135 166 135 166 16 57 16"></polygon>
                    <polygon id="Stroke-9" stroke="#262526" stroke-width="0.5" points="57 135 166 135 166 16 57 16"></polygon>
                    <path d="M57,158 C57,162.419986 60.2844163,166 64.339448,166 L80.6552374,166 C84.7102692,166 88,162.419986 88,158 C88,153.580014 84.7102692,150 80.6552374,150 L64.339448,150 C60.2844163,150 57,153.580014 57,158 C57,158 57,153.580014 57,158 Z" id="Stroke-10" stroke="#000000" stroke-width="0.5"></path>
                    <path d="M57,184 C57,188.419986 60.2844163,192 64.339448,192 L80.6552374,192 C84.7102692,192 88,188.419986 88,184 C88,179.580014 84.7102692,176 80.6552374,176 L64.339448,176 C60.2844163,176 57,179.580014 57,184 C57,184 57,179.580014 57,184 Z" id="Stroke-11" stroke="#000000" stroke-width="0.5"></path>
                    <path d="M57,210 C57,214.419986 60.2844163,218 64.339448,218 L80.6552374,218 C84.7102692,218 88,214.419986 88,210 C88,205.580014 84.7102692,202 80.6552374,202 L64.339448,202 C60.2844163,202 57,205.580014 57,210 C57,210 57,205.580014 57,210 Z" id="Stroke-12" stroke="#000000" stroke-width="0.5"></path>
                    <path d="M57,235 C57,239.419986 60.2844163,243 64.339448,243 L80.6552374,243 C84.7102692,243 88,239.419986 88,235 C88,230.580014 84.7102692,227 80.6552374,227 L64.339448,227 C60.2844163,227 57,230.580014 57,235 C57,235 57,230.580014 57,235 Z" id="Stroke-13" stroke="#000000" stroke-width="0.5"></path>
                    <path d="M99,158 C99,162.419986 102.284416,166 106.339448,166 L122.655237,166 C126.710269,166 130,162.419986 130,158 C130,153.580014 126.710269,150 122.655237,150 L106.339448,150 C102.284416,150 99,153.580014 99,158 C99,158 99,153.580014 99,158 Z" id="Stroke-14" stroke="#000000" stroke-width="0.5"></path>
                    <path d="M99,184 C99,188.419986 102.284416,192 106.339448,192 L122.655237,192 C126.710269,192 130,188.419986 130,184 C130,179.580014 126.710269,176 122.655237,176 L106.339448,176 C102.284416,176 99,179.580014 99,184 C99,184 99,179.580014 99,184 Z" id="Stroke-15" stroke="#000000" stroke-width="0.5"></path>
                    <path d="M99,210 C99,214.419986 102.284416,218 106.339448,218 L122.655237,218 C126.710269,218 130,214.419986 130,210 C130,205.580014 126.710269,202 122.655237,202 L106.339448,202 C102.284416,202 99,205.580014 99,210 C99,210 99,205.580014 99,210 Z" id="Stroke-16" stroke="#000000" stroke-width="0.5"></path>
                    <path d="M99,235 C99,239.419986 102.284416,243 106.339448,243 L122.655237,243 C126.710269,243 130,239.419986 130,235 C130,230.580014 126.710269,227 122.655237,227 L106.339448,227 C102.284416,227 99,230.580014 99,235 C99,235 99,230.580014 99,235 Z" id="Stroke-17" stroke="#000000" stroke-width="0.5"></path>
                    <path d="M138,158 C138,162.419986 141.284416,166 145.339448,166 L161.655237,166 C165.710269,166 169,162.419986 169,158 C169,153.580014 165.710269,150 161.655237,150 L145.339448,150 C141.284416,150 138,153.580014 138,158 C138,158 138,153.580014 138,158 Z" id="Stroke-18" stroke="#000000" stroke-width="0.5"></path>
                    <path d="M138,184 C138,188.419986 141.284416,192 145.339448,192 L161.655237,192 C165.710269,192 169,188.419986 169,184 C169,179.580014 165.710269,176 161.655237,176 L145.339448,176 C141.284416,176 138,179.580014 138,184 C138,184 138,179.580014 138,184 Z" id="Stroke-19" stroke="#000000" stroke-width="0.5"></path>
                    <path d="M138,210 C138,214.419986 141.284416,218 145.339448,218 L161.655237,218 C165.710269,218 169,214.419986 169,210 C169,205.580014 165.710269,202 161.655237,202 L145.339448,202 C141.284416,202 138,205.580014 138,210 C138,210 138,205.580014 138,210 Z" id="Stroke-20" stroke="#000000" stroke-width="0.5"></path>
                    <path d="M138,235 C138,239.419986 141.284416,243 145.339448,243 L161.655237,243 C165.710269,243 169,239.419986 169,235 C169,230.580014 165.710269,227 161.655237,227 L145.339448,227 C141.284416,227 138,230.580014 138,235 C138,235 138,230.580014 138,235 Z" id="Stroke-21" stroke="#000000" stroke-width="0.5"></path>
                    <path d="M96,9.068 C96,9.656 96.4183788,10.136 96.9308928,10.136 L123.069107,10.136 C123.586851,10.136 124,9.656 124,9.068 C124,8.48 123.586851,8 123.069107,8 L96.9308928,8 C96.4183788,8 96,8.48 96,9.068 C96,9.068 96,8.48 96,9.068" id="Fill-22" fill="#000000"></path>
                    <path d="M134.754,9.38 C134.754,10.142 134.136,10.76 133.374,10.76 C132.618,10.76 132,10.142 132,9.38 C132,8.618 132.618,8 133.374,8 C134.136,8 134.754,8.618 134.754,9.38" id="Fill-23" fill="#000000"></path>
                    <g id="Group-12" transform="translate(0.090467, 82.686473)">
                        <path d="M0,17 C0,26.3895675 7.23975281,34 16.1719847,34 L110.828015,34 C119.760247,34 127,26.3895675 127,17 C127,7.61043249 119.760247,-4.54747351e-13 110.828015,-4.54747351e-13 L16.1719847,-4.54747351e-13 C7.23975281,-4.54747351e-13 0,7.61043249 0,17 C0,17 0,7.61043249 0,17" id="Fill-37" fill="#69CBA4"></path>
                        <path d="M16,10.5 C16,11.8840263 17.0825732,13 18.4133461,13 L101.586654,13 C102.917427,13 104,11.8840263 104,10.5 C104,9.11597374 102.917427,8 101.586654,8 L18.4133461,8 C17.0825732,8 16,9.11597374 16,10.5 C16,10.5 16,9.11597374 16,10.5" id="Fill-38" fill="#FFFFFF"></path>
                        <path d="M18,20.5 C18,21.8840263 19.0694807,23 20.3841594,23 L59.6106237,23 C60.9305193,23 62,21.8840263 62,20.5 C62,19.1159737 60.9305193,18 59.6106237,18 L20.3841594,18 C19.0694807,18 18,19.1159737 18,20.5 C18,20.5 18,19.1159737 18,20.5" id="Fill-39" fill="#FFFFFF"></path>
                    </g>
                </g>
                <circle id="Oval-4-Copy-11" fill="#9AE934" cx="284" cy="122" r="7"></circle>
                <circle id="Oval-4-Copy-9" fill="#FF9E02" opacity="0.691123188" cx="243" cy="170" r="3"></circle>
                <circle id="Oval-4-Copy-10" stroke="#FF00CD" stroke-width="2" cx="94" cy="4" r="4"></circle>
                <text id="*777#" opacity="0.292289402" transform="translate(155.500000, 125.000000) rotate(13.000000) translate(-155.500000, -125.000000) " font-family="DunkinSans, Dunkin Sans" font-size="25" font-weight="normal" fill="#199AB1">
                    <tspan x="110" y="137">*777#</tspan>
                </text>
                <path d="M157,8 L155,37" id="Path-2" stroke="#FF3838" stroke-width="3" stroke-linecap="round" stroke-linejoin="round"></path>
                <path d="M242.613303,37.7974751 L229,51.4107783" id="Path-2-Copy" stroke="#FFD338" stroke-width="3" stroke-linecap="round" stroke-linejoin="round"></path>
                <path d="M68,48 L77,65" id="Path-2-Copy-2" stroke="#38FF61" stroke-width="3" stroke-linecap="round" stroke-linejoin="round"></path>
            </g>
        </g>
    </g>
</svg>