<?xml version="1.0" encoding="UTF-8"?>
<svg width="141px" height="140px" viewBox="0 0 141 140" version="1.1" xmlns="http://www.w3.org/2000/svg" xmlns:xlink="http://www.w3.org/1999/xlink">
    <!-- Generator: Sketch 46.2 (44496) - http://www.bohemiancoding.com/sketch -->
    <title>Terms</title>
    <desc>Created with Sketch.</desc>
    <defs>
        <polygon id="path-1" points="90.5605 13 0.9485 13 0.9485 0.8053 90.5605 0.8053 90.5605 13"></polygon>
    </defs>
    <g id="Styled-Pages" stroke="none" stroke-width="1" fill="none" fill-rule="evenodd">
        <g id="Terms-of-use" transform="translate(-1051.000000, -118.000000)">
            <g id="Terms" transform="translate(1051.000000, 117.000000)">
                <path d="M76.6046,64.5012 C76.5586,64.5322 76.5096,64.5592 76.4596,64.5832 C76.4936,64.5652 76.5216,64.5462 76.5536,64.5252 C76.5736,64.5162 76.5906,64.5112 76.6046,64.5012 Z" id="Fill-1" fill="#FCBF60"></path>
                <path d="M76.3847,64.6171 C76.4617,64.5861 76.5337,64.5481 76.6047,64.5011 C76.5587,64.5321 76.5097,64.5591 76.4587,64.5831 C76.4357,64.5931 76.4087,64.6061 76.3847,64.6171" id="Fill-3" fill="#FCBF60"></path>
                <path d="M76.7548,64.3806 C76.7038,64.4196 76.6578,64.4656 76.6048,64.5016 C76.6578,64.4656 76.7088,64.4266 76.7548,64.3806" id="Fill-5" fill="#FCBF60"></path>
                <path d="M76.1529,64.6999 C76.2239,64.6829 76.2899,64.6599 76.3579,64.6299 C76.2839,64.6589 76.2049,64.6859 76.1299,64.7049 C76.1399,64.7039 76.1439,64.7009 76.1529,64.6999" id="Fill-7" fill="#FCBF60"></path>
                <path d="M102.3884,28.66 C102.3664,28.711 102.3414,28.758 102.3124,28.808 C102.3434,28.762 102.3664,28.711 102.3884,28.66" id="Fill-9" fill="#FCBF60"></path>
                <path d="M102.5043,28.3417 C102.4803,28.4297 102.4513,28.5157 102.4153,28.6007 C102.4593,28.5047 102.4913,28.4067 102.5153,28.3037 C102.5123,28.3157 102.5103,28.3277 102.5043,28.3417" id="Fill-11" fill="#FCBF60"></path>
                <path d="M102.5741,27.9775 C102.5691,28.0165 102.5671,28.0595 102.5591,28.1005 C102.5671,28.0595 102.5721,28.0205 102.5741,27.9775" id="Fill-13" fill="#FCBF60"></path>
                <path d="M102.5752,27.5256 C102.5762,27.5196 102.5742,27.5166 102.5752,27.5106 C102.5742,27.4856 102.5692,27.4626 102.5642,27.4406 C102.5682,27.4686 102.5712,27.4976 102.5752,27.5256" id="Fill-15" fill="#FCBF60"></path>
                <path d="M102.5184,27.1945 C102.5294,27.2485 102.5414,27.2975 102.5494,27.3485 C102.5414,27.2975 102.5304,27.2425 102.5184,27.1945" id="Fill-17" fill="#FCBF60"></path>
                <path d="M102.4451,26.9461 C102.4341,26.9071 102.4181,26.8671 102.3981,26.8291 C102.4141,26.8691 102.4311,26.9091 102.4451,26.9461" id="Fill-19" fill="#FCBF60"></path>
                <path d="M91.6348,25.9222 C91.7888,25.7072 91.7658,25.4042 91.5758,25.2182 L80.2278,13.8102 C79.9868,13.5712 79.5928,13.6032 79.3968,13.8772 L75.5828,19.1572 C75.4248,19.3752 75.4478,19.6782 75.6378,19.8632 L86.9988,31.2832 C87.2368,31.5252 87.6358,31.4942 87.8358,31.2172 L91.6348,25.9222 Z M102.4448,26.9462 C102.4748,27.0292 102.5018,27.1082 102.5188,27.1942 C102.5288,27.2492 102.5408,27.2972 102.5488,27.3482 C102.5588,27.3782 102.5618,27.4062 102.5648,27.4402 C102.5678,27.4692 102.5718,27.4972 102.5748,27.5252 C102.5878,27.6762 102.5918,27.8272 102.5738,27.9772 C102.5698,28.0162 102.5668,28.0592 102.5588,28.1002 C102.5518,28.1662 102.5378,28.2372 102.5148,28.3042 C102.5128,28.3162 102.5098,28.3272 102.5038,28.3412 C102.4808,28.4292 102.4508,28.5152 102.4158,28.6012 C102.4088,28.6212 102.4018,28.6412 102.3888,28.6602 C102.3658,28.7112 102.3408,28.7582 102.3128,28.8072 C102.2838,28.8572 102.2538,28.9032 102.2228,28.9492 L77.0138,64.1002 C76.9368,64.2082 76.8468,64.3032 76.7548,64.3802 C76.7038,64.4192 76.6578,64.4662 76.6048,64.5012 C76.5908,64.5102 76.5738,64.5162 76.5538,64.5252 C76.5218,64.5462 76.4938,64.5652 76.4588,64.5832 C76.4358,64.5932 76.4088,64.6062 76.3848,64.6172 C76.3778,64.6222 76.3708,64.6262 76.3578,64.6302 C76.2838,64.6582 76.2048,64.6862 76.1308,64.7042 C75.6348,64.8142 75.0788,64.6572 74.6448,64.2142 L51.2408,40.3572 C50.5138,39.6122 50.3878,38.3542 50.9668,37.5472 L76.1738,2.3932 C76.4078,2.0682 76.7218,1.8632 77.0628,1.7902 C77.1238,1.7752 77.1868,1.7692 77.2498,1.7632 C77.3128,1.7572 77.3738,1.7572 77.4358,1.7572 C77.4388,1.7542 77.4408,1.7582 77.4408,1.7582 C77.5048,1.7622 77.5718,1.7692 77.6368,1.7822 C77.8998,1.8312 78.1588,1.9512 78.3908,2.1452 C78.4438,2.1862 78.4958,2.2332 78.5448,2.2832 L90.2458,14.2142 L101.9488,26.1392 C102.0558,26.2472 102.1458,26.3662 102.2218,26.4952 C102.2338,26.5132 102.2418,26.5332 102.2538,26.5512 C102.2698,26.5762 102.2808,26.5992 102.2968,26.6242 C102.3398,26.6882 102.3718,26.7592 102.3978,26.8292 C102.4148,26.8692 102.4308,26.9092 102.4448,26.9462 L102.4448,26.9462 Z" id="Fill-21" fill="#569FC3"></path>
                <path d="M102.2973,26.6245 C102.2763,26.5775 102.2533,26.5355 102.2213,26.4955 C102.2333,26.5135 102.2413,26.5335 102.2533,26.5515 C102.2703,26.5755 102.2803,26.5995 102.2973,26.6245" id="Fill-23" fill="#FCBF60"></path>
                <path d="M86.9987,31.2837 C87.2367,31.5247 87.6357,31.4937 87.8357,31.2177 L91.6347,25.9227 C91.7887,25.7067 91.7657,25.4037 91.5757,25.2187 L80.2277,13.8097 C79.9867,13.5717 79.5927,13.6027 79.3967,13.8777 L75.5827,19.1577 C75.4247,19.3747 75.4477,19.6777 75.6377,19.8637 L86.9987,31.2837 Z" id="Fill-25" fill="#F2F9FB"></path>
                <path d="M103.1784,26.9236 C103.1534,26.8476 103.1284,26.7726 103.0964,26.7016 C103.0884,26.6806 103.0824,26.6646 103.0764,26.6476 C103.0744,26.6446 103.0724,26.6406 103.0694,26.6376 C103.0384,26.5606 103.0014,26.4886 102.9594,26.4186 C102.9354,26.3826 102.9154,26.3456 102.8924,26.3096 C102.8164,26.1966 102.7334,26.0876 102.6364,25.9876 L90.9344,14.0626 L79.2334,2.1316 C78.7974,1.6946 78.2464,1.5286 77.7514,1.6386 L77.1074,1.7806 C77.1524,1.7716 77.2034,1.7626 77.2494,1.7626 C77.3104,1.7536 77.3714,1.7536 77.4354,1.7566 C77.4384,1.7546 77.4414,1.7586 77.4414,1.7586 C77.5054,1.7616 77.5714,1.7686 77.6364,1.7816 C77.9004,1.8316 78.1594,1.9506 78.3914,2.1446 C78.4444,2.1866 78.4964,2.2336 78.5444,2.2836 L101.9484,26.1396 C102.0564,26.2476 102.1454,26.3666 102.2214,26.4956 C102.2534,26.5356 102.2764,26.5766 102.2974,26.6246 C102.3394,26.6886 102.3714,26.7596 102.3974,26.8286 C102.4174,26.8666 102.4344,26.9066 102.4454,26.9456 C102.4744,27.0286 102.5014,27.1086 102.5184,27.1946 C102.5304,27.2426 102.5414,27.2976 102.5494,27.3486 C102.5584,27.3776 102.5624,27.4066 102.5644,27.4406 C102.5694,27.4626 102.5744,27.4856 102.5754,27.5106 C102.5744,27.5166 102.5764,27.5196 102.5754,27.5256 C102.5884,27.6756 102.5914,27.8276 102.5744,27.9776 C102.5714,28.0196 102.5674,28.0586 102.5584,28.1006 C102.5514,28.1666 102.5374,28.2376 102.5154,28.3036 C102.4914,28.4066 102.4594,28.5046 102.4154,28.6006 C102.4084,28.6206 102.4014,28.6406 102.3884,28.6596 C102.3664,28.7106 102.3434,28.7616 102.3124,28.8076 C102.2844,28.8576 102.2534,28.9036 102.2224,28.9496 L77.0134,64.1006 C76.9374,64.2076 76.8474,64.3036 76.7544,64.3806 C76.7084,64.4266 76.6574,64.4656 76.6044,64.5016 C76.5334,64.5486 76.4614,64.5866 76.3844,64.6176 C76.3774,64.6216 76.3704,64.6266 76.3574,64.6306 C76.2904,64.6596 76.2234,64.6836 76.1534,64.6996 L77.4174,64.4206 L90.3074,46.3706 L102.9084,28.7946 C102.9724,28.7056 103.0284,28.6126 103.0754,28.5146 C103.0824,28.4946 103.0924,28.4776 103.1024,28.4556 C103.1084,28.4406 103.1144,28.4266 103.1204,28.4126 C103.1504,28.3416 103.1724,28.2756 103.1924,28.2056 C103.1984,28.1756 103.2064,28.1496 103.2114,28.1266 C103.2124,28.1206 103.2164,28.1186 103.2174,28.1126 C103.2364,28.0326 103.2504,27.9466 103.2614,27.8626 C103.2624,27.8416 103.2634,27.8196 103.2674,27.8026 C103.2664,27.7776 103.2704,27.7536 103.2724,27.7326 C103.2734,27.6956 103.2734,27.6656 103.2764,27.6316 C103.2764,27.5556 103.2734,27.4806 103.2674,27.4026 C103.2674,27.4026 103.2644,27.3996 103.2684,27.3966 C103.2664,27.3936 103.2674,27.3876 103.2644,27.3836 C103.2574,27.3116 103.2504,27.2396 103.2344,27.1686 C103.2314,27.1336 103.2234,27.0986 103.2154,27.0636 C103.2084,27.0376 103.2004,27.0116 103.1934,26.9846 C103.1894,26.9626 103.1804,26.9426 103.1784,26.9236" id="Fill-27" fill="#DFE0E0"></path>
                <polygon id="Fill-29" fill="#FCBF60" points="90.246 14.2144 101.948 26.1394 78.545 2.2834"></polygon>
                <g id="Group-33" transform="translate(79.000000, 0.705000)" fill="#DFE0E0">
                    <path d="M26.6313,24.9778 C26.5603,24.8718 26.4783,24.7718 26.3903,24.6778 L14.6873,12.7518 L2.9863,0.8208 C2.5543,0.3808 2.0003,0.2178 1.5043,0.3278 L0.8163,0.4798 C1.3113,0.3698 1.8623,0.5348 2.2983,0.9728 L13.9993,12.9038 L25.7013,24.8288 C25.7903,24.9238 25.8743,25.0268 25.9453,25.1328 C25.9693,25.1678 25.9893,25.2058 26.0093,25.2438 C26.0503,25.3138 26.0923,25.3838 26.1263,25.4578 C26.1283,25.4618 26.1313,25.4648 26.1333,25.4688 C26.1393,25.4848 26.1453,25.5018 26.1533,25.5218 C26.1823,25.5948 26.2143,25.6658 26.2353,25.7438 C26.2433,25.7648 26.2453,25.7828 26.2503,25.8058 C26.2573,25.8318 26.2643,25.8578 26.2723,25.8838 C26.2803,25.9188 26.2883,25.9548 26.2963,25.9898 C26.3093,26.0638 26.3203,26.1338 26.3273,26.2058 C26.3293,26.2088 26.3283,26.2148 26.3313,26.2188 C26.3273,26.2208 26.3293,26.2248 26.3293,26.2248 C26.3393,26.2998 26.3393,26.3768 26.3393,26.4538 C26.3413,26.4878 26.3383,26.5218 26.3343,26.5548 C26.3353,26.5788 26.3343,26.6008 26.3323,26.6278 C26.3283,26.6458 26.3293,26.6708 26.3263,26.6878 C26.3183,26.7758 26.3013,26.8588 26.2853,26.9408 C26.2833,26.9468 26.2803,26.9498 26.2793,26.9558 C26.2743,26.9788 26.2663,27.0048 26.2573,27.0308 C26.2363,27.1068 26.2163,27.1768 26.1903,27.2448 C26.1813,27.2618 26.1753,27.2758 26.1693,27.2898 C26.1623,27.3098 26.1493,27.3288 26.1413,27.3488 C26.0943,27.4478 26.0413,27.5448 25.9733,27.6358 L13.3723,45.2118 L0.3023,63.2998 L0.5623,63.2438 C0.5663,63.2418 0.5723,63.2428 0.5753,63.2398 C0.6503,63.2208 0.7183,63.2008 0.7923,63.1728 C0.7953,63.1708 0.7993,63.1678 0.8023,63.1658 C0.8663,63.1388 0.9313,63.1058 0.9953,63.0628 C1.0093,63.0538 1.0283,63.0508 1.0463,63.0388 C1.0963,63.0058 1.1423,62.9598 1.1893,62.9228 C1.2153,62.9008 1.2403,62.8838 1.2643,62.8578 C1.3323,62.7918 1.3963,62.7188 1.4593,62.6358 L14.0603,45.0598 L26.6623,27.4838 C26.7293,27.3928 26.7823,27.2958 26.8273,27.1938 C26.8403,27.1758 26.8503,27.1588 26.8573,27.1388 C26.8633,27.1248 26.8723,27.1078 26.8783,27.0938 C26.9083,27.0228 26.9263,26.9498 26.9463,26.8798 C26.9523,26.8498 26.9623,26.8278 26.9683,26.7978 C26.9723,26.7958 26.9733,26.7898 26.9743,26.7838 C26.9933,26.7048 27.0073,26.6178 27.0153,26.5308 C27.0193,26.5128 27.0183,26.4878 27.0193,26.4668 C27.0203,26.4458 27.0213,26.4238 27.0243,26.3968 C27.0243,26.3668 27.0313,26.3308 27.0283,26.2968 C27.0283,26.2198 27.0253,26.1448 27.0193,26.0668 L27.0173,26.0638 C27.0183,26.0578 27.0153,26.0538 27.0173,26.0478 C27.0093,25.9758 26.9993,25.9058 26.9863,25.8328 C26.9783,25.7978 26.9663,25.7638 26.9573,25.7288 C26.9503,25.7028 26.9473,25.6748 26.9403,25.6488 C26.9313,25.6288 26.9273,25.6058 26.9223,25.5838 C26.9003,25.5108 26.8693,25.4348 26.8373,25.3638 C26.8313,25.3468 26.8253,25.3298 26.8173,25.3098 C26.8143,25.3068 26.8123,25.3028 26.8133,25.2968 C26.7813,25.2258 26.7343,25.1548 26.6933,25.0858 C26.6693,25.0498 26.6553,25.0128 26.6313,24.9778" id="Fill-31"></path>
                </g>
                <path d="M104.3256,26.1075 C104.3666,26.1775 104.4086,26.2475 104.4426,26.3215 C104.4446,26.3255 104.4446,26.3255 104.4476,26.3285 C104.4556,26.3485 104.4616,26.3655 104.4676,26.3815 C104.4986,26.4585 104.5266,26.5325 104.5496,26.6045 C104.5536,26.6265 104.5586,26.6495 104.5666,26.6695 C104.5736,26.6955 104.5806,26.7215 104.5846,26.7495 C104.5926,26.7855 104.6046,26.8185 104.6096,26.8565 C104.6236,26.9235 104.6306,26.9955 104.6376,27.0675 C104.6406,27.0715 104.6426,27.0745 104.6416,27.0805 C104.6436,27.0845 104.6436,27.0845 104.6406,27.0865 C104.6496,27.1625 104.6516,27.2425 104.6496,27.3165 C104.6516,27.3505 104.6486,27.3835 104.6446,27.4165 C104.6466,27.4415 104.6446,27.4625 104.6426,27.4905 C104.6386,27.5075 104.6376,27.5295 104.6366,27.5505 C104.6286,27.6375 104.6156,27.7185 104.5956,27.8035 C104.5946,27.8095 104.5946,27.8095 104.5926,27.8155 C104.5846,27.8415 104.5766,27.8675 104.5676,27.8935 C104.5476,27.9635 104.5306,28.0365 104.4986,28.1035 C104.4946,28.1215 104.4886,28.1355 104.4796,28.1525 C104.4696,28.1685 104.4626,28.1895 104.4536,28.2055 C104.4086,28.3075 104.3526,28.4005 104.2856,28.4915 L91.6836,46.0675 L78.6776,64.1435 L79.3026,64.0045 L92.3726,45.9165 L104.9736,28.3405 C105.0416,28.2495 105.0946,28.1525 105.1416,28.0545 C105.1486,28.0345 105.1616,28.0155 105.1686,27.9955 C105.1746,27.9805 105.1806,27.9665 105.1906,27.9505 C105.2166,27.8815 105.2366,27.8115 105.2576,27.7365 C105.2656,27.7105 105.2746,27.6845 105.2786,27.6605 C105.2806,27.6545 105.2836,27.6525 105.2846,27.6465 C105.3016,27.5635 105.3176,27.4805 105.3266,27.3935 C105.3296,27.3755 105.3286,27.3505 105.3326,27.3325 C105.3346,27.3055 105.3356,27.2845 105.3346,27.2595 C105.3376,27.2265 105.3416,27.1935 105.3396,27.1585 C105.3396,27.0815 105.3396,27.0055 105.3296,26.9295 C105.3296,26.9295 105.3276,26.9255 105.3306,26.9235 C105.3286,26.9195 105.3296,26.9145 105.3276,26.9105 C105.3206,26.8385 105.3096,26.7685 105.2966,26.6955 C105.2886,26.6595 105.2796,26.6245 105.2716,26.5885 C105.2646,26.5625 105.2576,26.5365 105.2506,26.5105 C105.2456,26.4885 105.2436,26.4695 105.2356,26.4495 C105.2136,26.3715 105.1816,26.3005 105.1536,26.2265 C105.1456,26.2065 105.1396,26.1905 105.1336,26.1735 C105.1306,26.1705 105.1286,26.1665 105.1266,26.1625 C105.0916,26.0885 105.0506,26.0185 105.0096,25.9485 C104.9896,25.9115 104.9686,25.8735 104.9456,25.8375 C104.8746,25.7315 104.7906,25.6285 104.7016,25.5335 L92.9996,13.6085 L81.2976,1.6775 C80.8626,1.2395 80.3116,1.0745 79.8156,1.1845 L79.1276,1.3355 C79.6236,1.2255 80.1746,1.3915 80.6096,1.8295 L92.3106,13.7605 L104.0136,25.6855 C104.1046,25.7835 104.1886,25.8865 104.2616,25.9965 C104.2856,26.0315 104.3056,26.0695 104.3256,26.1075" id="Fill-34" fill="#F2F9FB"></path>
                <path d="M103.7603,26.4896 C103.7663,26.5066 103.7743,26.5266 103.7843,26.5406 C103.8123,26.6136 103.8403,26.6876 103.8623,26.7656 C103.8703,26.7856 103.8753,26.8076 103.8773,26.8266 C103.8843,26.8526 103.8913,26.8786 103.8983,26.9046 C103.9073,26.9406 103.9153,26.9756 103.9233,27.0116 C103.9363,27.0846 103.9473,27.1546 103.9543,27.2266 C103.9533,27.2326 103.9553,27.2356 103.9543,27.2416 L103.9563,27.2456 C103.9603,27.3196 103.9663,27.3976 103.9633,27.4716 C103.9623,27.5076 103.9593,27.5406 103.9613,27.5756 C103.9563,27.5986 103.9553,27.6206 103.9563,27.6456 C103.9533,27.6626 103.9523,27.6836 103.9503,27.7056 C103.9403,27.7896 103.9263,27.8756 103.9033,27.9576 C103.9053,27.9606 103.9043,27.9666 103.9013,27.9696 C103.8953,27.9986 103.8903,28.0226 103.8823,28.0486 C103.8623,28.1186 103.8383,28.1906 103.8123,28.2586 C103.8063,28.2736 103.7973,28.2896 103.7913,28.3036 C103.7843,28.3236 103.7743,28.3406 103.7673,28.3606 C103.7203,28.4586 103.6643,28.5526 103.5973,28.6436 L90.9953,46.2196 L78.0123,64.2906 L78.6743,64.1466 L78.6783,64.1436 L91.6843,46.0676 L104.2853,28.4916 C104.3533,28.4006 104.4083,28.3076 104.4533,28.2056 C104.4633,28.1896 104.4703,28.1686 104.4793,28.1526 C104.4893,28.1356 104.4953,28.1216 104.4983,28.1036 C104.5303,28.0366 104.5483,27.9636 104.5683,27.8936 C104.5763,27.8676 104.5843,27.8416 104.5933,27.8156 C104.5943,27.8096 104.5943,27.8096 104.5953,27.8036 C104.6153,27.7186 104.6283,27.6376 104.6363,27.5506 C104.6383,27.5286 104.6393,27.5076 104.6423,27.4906 C104.6453,27.4626 104.6463,27.4416 104.6453,27.4166 C104.6483,27.3836 104.6523,27.3506 104.6493,27.3166 C104.6523,27.2426 104.6493,27.1626 104.6403,27.0866 C104.6433,27.0846 104.6433,27.0846 104.6413,27.0806 C104.6423,27.0746 104.6403,27.0716 104.6383,27.0676 C104.6313,26.9956 104.6233,26.9236 104.6093,26.8566 C104.6043,26.8186 104.5933,26.7856 104.5843,26.7496 C104.5813,26.7216 104.5743,26.6956 104.5673,26.6696 C104.5583,26.6496 104.5543,26.6266 104.5493,26.6046 C104.5263,26.5326 104.4983,26.4586 104.4673,26.3816 C104.4613,26.3656 104.4553,26.3486 104.4473,26.3286 C104.4453,26.3256 104.4453,26.3256 104.4433,26.3216 C104.4083,26.2466 104.3673,26.1776 104.3253,26.1076 C104.3053,26.0696 104.2853,26.0316 104.2613,25.9966 C104.1883,25.8866 104.1043,25.7836 104.0133,25.6856 L92.3113,13.7606 L80.6103,1.8286 C80.1743,1.3916 79.6233,1.2256 79.1283,1.3356 L78.4393,1.4876 C78.9353,1.3776 79.4863,1.5426 79.9213,1.9806 L91.6223,13.9116 L103.3253,25.8366 C103.4183,25.9386 103.5023,26.0416 103.5783,26.1546 C103.6023,26.1906 103.6193,26.2246 103.6433,26.2596 C103.6813,26.3326 103.7223,26.4016 103.7563,26.4766 C103.7593,26.4796 103.7583,26.4856 103.7603,26.4896" id="Fill-36" fill="#DFE0E0"></path>
                <path d="M103.784,26.5404 C103.775,26.5264 103.766,26.5064 103.76,26.4894 C103.758,26.4864 103.759,26.4804 103.757,26.4764 C103.722,26.4024 103.681,26.3324 103.643,26.2604 C103.62,26.2244 103.602,26.1904 103.578,26.1544 C103.503,26.0414 103.419,25.9384 103.325,25.8364 L91.623,13.9114 L79.922,1.9804 C79.486,1.5424 78.935,1.3774 78.439,1.4874 L77.751,1.6384 C78.247,1.5284 78.798,1.6944 79.233,2.1314 L90.934,14.0634 L102.637,25.9884 C102.734,26.0874 102.817,26.1964 102.892,26.3094 C102.916,26.3454 102.936,26.3834 102.96,26.4184 C103.001,26.4884 103.039,26.5604 103.07,26.6374 C103.072,26.6414 103.074,26.6444 103.077,26.6484 C103.083,26.6644 103.089,26.6814 103.097,26.7014 C103.129,26.7724 103.154,26.8474 103.178,26.9234 C103.181,26.9424 103.189,26.9624 103.194,26.9854 C103.201,27.0114 103.208,27.0374 103.215,27.0634 C103.223,27.0984 103.232,27.1344 103.234,27.1684 C103.251,27.2394 103.258,27.3114 103.265,27.3834 C103.267,27.3874 103.266,27.3934 103.268,27.3964 C103.265,27.3994 103.267,27.4024 103.267,27.4024 C103.273,27.4804 103.277,27.5554 103.277,27.6324 C103.273,27.6654 103.273,27.6964 103.272,27.7324 C103.271,27.7544 103.266,27.7774 103.267,27.8024 C103.264,27.8204 103.262,27.8414 103.261,27.8624 C103.251,27.9464 103.236,28.0334 103.217,28.1124 C103.216,28.1184 103.213,28.1204 103.212,28.1264 C103.207,28.1504 103.199,28.1764 103.193,28.2054 C103.173,28.2754 103.15,28.3414 103.121,28.4124 C103.115,28.4264 103.109,28.4414 103.103,28.4554 C103.092,28.4774 103.083,28.4944 103.076,28.5144 C103.028,28.6124 102.973,28.7064 102.909,28.7944 L90.307,46.3704 L77.417,64.4204 L78.012,64.2904 L90.996,46.2194 L103.597,28.6434 C103.665,28.5524 103.72,28.4584 103.767,28.3604 C103.775,28.3404 103.784,28.3244 103.791,28.3034 C103.797,28.2894 103.807,28.2734 103.812,28.2594 C103.838,28.1904 103.862,28.1184 103.882,28.0484 C103.89,28.0224 103.895,27.9984 103.901,27.9694 C103.905,27.9664 103.906,27.9604 103.903,27.9574 C103.926,27.8754 103.94,27.7894 103.951,27.7054 C103.952,27.6844 103.953,27.6624 103.957,27.6454 C103.955,27.6204 103.957,27.5994 103.961,27.5754 C103.959,27.5414 103.963,27.5084 103.964,27.4714 C103.966,27.3974 103.96,27.3194 103.957,27.2454 L103.954,27.2414 C103.955,27.2354 103.953,27.2324 103.954,27.2264 C103.947,27.1544 103.937,27.0844 103.924,27.0114 C103.915,26.9754 103.907,26.9404 103.899,26.9044 C103.892,26.8784 103.885,26.8524 103.877,26.8264 C103.875,26.8074 103.87,26.7854 103.862,26.7654 C103.841,26.6874 103.812,26.6134 103.784,26.5404" id="Fill-38" fill="#F2F9FB"></path>
                <path d="M78.3909,2.1449 C78.4439,2.1859 78.4959,2.2339 78.5449,2.2829 C78.4959,2.2339 78.4439,2.1859 78.3909,2.1449" id="Fill-40" fill="#FCBF60"></path>
                <path d="M77.4413,1.7582 C77.5053,1.7622 77.5713,1.7692 77.6363,1.7822 C77.5713,1.7692 77.5053,1.7622 77.4413,1.7582" id="Fill-42" fill="#FCBF60"></path>
                <path d="M77.2497,1.7629 C77.3127,1.7569 77.3737,1.7569 77.4357,1.7569 C77.3717,1.7539 77.3097,1.7539 77.2497,1.7629" id="Fill-44" fill="#FCBF60"></path>
                <path d="M77.0628,1.7901 C77.1238,1.7751 77.1868,1.7691 77.2498,1.7631 C77.2038,1.7631 77.1528,1.7711 77.1078,1.7811 C77.0928,1.7811 77.0758,1.7871 77.0628,1.7901" id="Fill-46" fill="#FCBF60"></path>
                <path d="M130.6375,121.5369 L130.6375,119.4349 C130.6375,118.3149 130.1895,117.3049 129.4495,116.5649 C128.7135,115.8339 127.7085,115.3769 126.5795,115.3769 L63.6785,115.3769 C63.8755,115.5739 64.0485,115.7979 64.2045,116.0209 C64.7795,116.8849 65.1175,117.9269 65.1275,119.0649 L65.1275,121.9069 C65.1175,123.3329 64.5835,124.6079 63.6875,125.5899 L126.5795,125.5899 C127.7085,125.5899 128.7135,125.1469 129.4495,124.4069 C130.1895,123.6659 130.6375,122.6659 130.6375,121.5369" id="Fill-48" fill="#E9E5D9"></path>
                <path d="M133.553,121.5369 L133.553,119.4349 C133.553,115.5829 130.432,112.4619 126.58,112.4619 L68.088,112.4619 L67.394,112.4619 L60.791,112.4619 L60.791,115.3769 L63.678,115.3769 L126.58,115.3769 C127.708,115.3769 128.714,115.8339 129.449,116.5649 C130.19,117.3049 130.638,118.3149 130.638,119.4349 L130.638,121.5369 C130.638,122.6659 130.19,123.6659 129.449,124.4069 C128.714,125.1469 127.708,125.5899 126.58,125.5899 L63.688,125.5899 L60.443,125.5899 L60.443,128.5099 L62.605,128.5099 L126.58,128.5099 C130.432,128.5099 133.553,125.3889 133.553,121.5369" id="Fill-50" fill="#199AB1"></path>
                <path d="M130.2794,121.1459 L65.7144,121.1459 C65.6334,121.1459 65.5664,121.0799 65.5664,120.9989 C65.5664,120.9169 65.6334,120.8509 65.7144,120.8509 L130.2794,120.8509 C130.3604,120.8509 130.4264,120.9169 130.4264,120.9989 C130.4264,121.0799 130.3604,121.1459 130.2794,121.1459" id="Fill-52" fill="#C2C2A9"></path>
                <path d="M129.518,117.3737 L65.372,117.3737 C65.29,117.3737 65.224,117.3077 65.224,117.2267 C65.224,117.1447 65.29,117.0787 65.372,117.0787 L129.518,117.0787 C129.599,117.0787 129.665,117.1447 129.665,117.2267 C129.665,117.3077 129.599,117.3737 129.518,117.3737" id="Fill-54" fill="#C2C2A9"></path>
                <path d="M130.3174,119.7252 L65.6004,119.7252 C65.5194,119.7252 65.4524,119.6592 65.4524,119.5782 C65.4524,119.4962 65.5194,119.4302 65.6004,119.4302 L130.3174,119.4302 C130.3984,119.4302 130.4644,119.4962 130.4644,119.5782 C130.4644,119.6592 130.3984,119.7252 130.3174,119.7252" id="Fill-56" fill="#C2C2A9"></path>
                <path d="M130.3174,121.9298 L65.6574,121.9298 C65.5764,121.9298 65.5094,121.8638 65.5094,121.7828 C65.5094,121.7008 65.5764,121.6348 65.6574,121.6348 L130.3174,121.6348 C130.3984,121.6348 130.4644,121.7008 130.4644,121.7828 C130.4644,121.8638 130.3984,121.9298 130.3174,121.9298" id="Fill-58" fill="#C2C2A9"></path>
                <path d="M128.604,124.8037 L65.2,124.8037 C65.119,124.8037 65.052,124.7377 65.052,124.6567 C65.052,124.5747 65.119,124.5087 65.2,124.5087 L128.604,124.5087 C128.685,124.5087 128.751,124.5747 128.751,124.6567 C128.751,124.7377 128.685,124.8037 128.604,124.8037" id="Fill-60" fill="#C2C2A9"></path>
                <path d="M130.0133,123.5793 L65.4853,123.5793 C65.3223,123.5793 65.1903,123.4473 65.1903,123.2843 C65.1903,123.1213 65.3223,122.9893 65.4853,122.9893 L130.0133,122.9893 C130.1763,122.9893 130.3083,123.1213 130.3083,123.2843 C130.3083,123.4473 130.1763,123.5793 130.0133,123.5793" id="Fill-62" fill="#C2C2A9"></path>
                <path d="M128.0707,116.4597 L64.8007,116.4597 C64.6377,116.4597 64.5057,116.3277 64.5057,116.1647 C64.5057,116.0017 64.6377,115.8697 64.8007,115.8697 L128.0707,115.8697 C128.2337,115.8697 128.3657,116.0017 128.3657,116.1647 C128.3657,116.3277 128.2337,116.4597 128.0707,116.4597" id="Fill-64" fill="#C2C2A9"></path>
                <path d="M138.3452,135.4063 L138.3452,133.8093 C138.3452,132.9583 138.0052,132.1913 137.4422,131.6283 C136.8832,131.0733 136.1192,130.7253 135.2622,130.7253 L53.4072,130.7253 C53.5562,130.8753 53.6882,131.0453 53.8062,131.2153 C54.2432,131.8713 54.5002,132.6633 54.5072,133.5273 L54.5072,135.6873 C54.5002,136.7713 54.0942,137.7393 53.4142,138.4863 L135.2622,138.4863 C136.1192,138.4863 136.8832,138.1493 137.4422,137.5873 C138.0052,137.0243 138.3452,136.2643 138.3452,135.4063" id="Fill-66" fill="#E9E5D9"></path>
                <g id="Group-70" transform="translate(50.000000, 127.705000)">
                    <mask id="mask-2" fill="white">
                        <use xlink:href="#path-1"></use>
                    </mask>
                    <g id="Clip-69"></g>
                    <path d="M90.5605,7.7013 L90.5605,6.1043 C90.5605,3.1763 88.1885,0.8053 85.2615,0.8053 L6.7575,0.8053 L6.2295,0.8053 L1.2125,0.8053 L1.2125,3.0203 L3.4065,3.0203 L85.2615,3.0203 C86.1195,3.0203 86.8835,3.3683 87.4425,3.9233 C88.0045,4.4863 88.3455,5.2533 88.3455,6.1043 L88.3455,7.7013 C88.3455,8.5593 88.0045,9.3193 87.4425,9.8823 C86.8835,10.4443 86.1195,10.7813 85.2615,10.7813 L3.4135,10.7813 L0.9485,10.7813 L0.9485,13.0003 L2.5905,13.0003 L85.2615,13.0003 C88.1885,13.0003 90.5605,10.6283 90.5605,7.7013" id="Fill-68" fill="#995DB5" mask="url(#mask-2)"></path>
                </g>
                <path d="M138.0734,135.1445 L54.9534,135.1445 C54.8724,135.1445 54.8064,135.0785 54.8064,134.9975 C54.8064,134.9155 54.8724,134.8495 54.9534,134.8495 L138.0734,134.8495 C138.1544,134.8495 138.2204,134.9155 138.2204,134.9975 C138.2204,135.0785 138.1544,135.1445 138.0734,135.1445" id="Fill-71" fill="#C2C2A9"></path>
                <path d="M137.4946,132.2781 L54.6936,132.2781 C54.6116,132.2781 54.5456,132.2121 54.5456,132.1311 C54.5456,132.0491 54.6116,131.9831 54.6936,131.9831 L137.4946,131.9831 C137.5756,131.9831 137.6416,132.0491 137.6416,132.1311 C137.6416,132.2121 137.5756,132.2781 137.4946,132.2781" id="Fill-73" fill="#C2C2A9"></path>
                <path d="M138.1022,134.0646 L54.8662,134.0646 C54.7852,134.0646 54.7192,133.9986 54.7192,133.9176 C54.7192,133.8356 54.7852,133.7696 54.8662,133.7696 L138.1022,133.7696 C138.1832,133.7696 138.2492,133.8356 138.2492,133.9176 C138.2492,133.9986 138.1832,134.0646 138.1022,134.0646" id="Fill-75" fill="#C2C2A9"></path>
                <path d="M138.1022,135.74 L54.9102,135.74 C54.8292,135.74 54.7632,135.674 54.7632,135.593 C54.7632,135.511 54.8292,135.445 54.9102,135.445 L138.1022,135.445 C138.1832,135.445 138.2492,135.511 138.2492,135.593 C138.2492,135.674 138.1832,135.74 138.1022,135.74" id="Fill-77" fill="#C2C2A9"></path>
                <path d="M136.8001,137.924 L54.5631,137.924 C54.4821,137.924 54.4161,137.858 54.4161,137.777 C54.4161,137.695 54.4821,137.629 54.5631,137.629 L136.8001,137.629 C136.8811,137.629 136.9471,137.695 136.9471,137.777 C136.9471,137.858 136.8811,137.924 136.8001,137.924" id="Fill-79" fill="#C2C2A9"></path>
                <path d="M137.8707,137.029 L54.7807,137.029 C54.6177,137.029 54.4857,136.897 54.4857,136.734 C54.4857,136.571 54.6177,136.439 54.7807,136.439 L137.8707,136.439 C138.0337,136.439 138.1657,136.571 138.1657,136.734 C138.1657,136.897 138.0337,137.029 137.8707,137.029" id="Fill-81" fill="#C2C2A9"></path>
                <path d="M136.3946,131.6187 L54.2586,131.6187 C54.0956,131.6187 53.9646,131.4867 53.9646,131.3237 C53.9646,131.1607 54.0956,131.0287 54.2586,131.0287 L136.3946,131.0287 C136.5576,131.0287 136.6896,131.1607 136.6896,131.3237 C136.6896,131.4867 136.5576,131.6187 136.3946,131.6187" id="Fill-83" fill="#C2C2A9"></path>
                <polygon id="Fill-85" fill="#C79B7B" points="31.284 110.118 115.063 110.118 115.063 98.646 31.284 98.646"></polygon>
                <path d="M31.284,110.117 L115.063,110.117 L115.063,98.645 L31.284,98.645 L31.284,110.117 Z M27.825,112.256 L118.516,112.256 L118.516,96.508 L27.825,96.508 L27.825,112.256 Z" id="Fill-87" fill="#BD8864"></path>
                <polygon id="Fill-88" fill="#EF374A" points="84.343 125.683 87.588 125.683 87.588 114.969 84.343 114.969"></polygon>
                <polygon id="Fill-89" fill="#EF374A" points="5.791 125.683 73.693 125.683 73.693 114.969 5.791 114.969"></polygon>
                <path d="M84.343,125.683 L87.588,125.683 L87.588,114.969 L84.343,114.969 L84.343,125.683 Z M5.791,125.682 L73.693,125.682 L73.693,114.968 L5.791,114.968 L5.791,125.682 Z M82.917,112.448 L0,112.448 L0,127.879 L0,128.202 L85.916,128.202 L90.691,128.202 L90.691,112.448 L82.917,112.448 Z" id="Fill-90" fill="#FC6460"></path>
                <path d="M29.6224,87.4324 L29.6224,89.5344 C29.6224,90.6544 30.0704,91.6634 30.8104,92.4044 C31.5464,93.1354 32.5514,93.5924 33.6804,93.5924 L96.5814,93.5924 C96.3844,93.3954 96.2114,93.1714 96.0554,92.9484 C95.4804,92.0844 95.1424,91.0424 95.1324,89.9044 L95.1324,87.0624 C95.1424,85.6364 95.6764,84.3614 96.5724,83.3794 L33.6804,83.3794 C32.5514,83.3794 31.5464,83.8224 30.8104,84.5624 C30.0704,85.3034 29.6224,86.3034 29.6224,87.4324" id="Fill-91" fill="#E9E5D9"></path>
                <path d="M26.7069,87.4324 L26.7069,89.5344 C26.7069,93.3864 29.8279,96.5074 33.6799,96.5074 L92.1719,96.5074 L92.8659,96.5074 L99.4689,96.5074 L99.4689,93.5924 L96.5819,93.5924 L33.6799,93.5924 C32.5519,93.5924 31.5459,93.1354 30.8109,92.4044 C30.0699,91.6634 29.6219,90.6544 29.6219,89.5344 L29.6219,87.4324 C29.6219,86.3034 30.0699,85.3034 30.8109,84.5624 C31.5459,83.8224 32.5519,83.3794 33.6799,83.3794 L96.5719,83.3794 L99.8169,83.3794 L99.8169,80.4594 L97.6549,80.4594 L33.6799,80.4594 C29.8279,80.4594 26.7069,83.5804 26.7069,87.4324" id="Fill-92" fill="#19B172"></path>
                <path d="M94.5455,88.1181 L29.9805,88.1181 C29.8995,88.1181 29.8325,88.0521 29.8325,87.9711 C29.8325,87.8891 29.8995,87.8231 29.9805,87.8231 L94.5455,87.8231 C94.6265,87.8231 94.6925,87.8891 94.6925,87.9711 C94.6925,88.0521 94.6265,88.1181 94.5455,88.1181" id="Fill-93" fill="#C2C2A9"></path>
                <path d="M94.8882,91.8905 L30.7422,91.8905 C30.6602,91.8905 30.5942,91.8245 30.5942,91.7435 C30.5942,91.6615 30.6602,91.5955 30.7422,91.5955 L94.8882,91.5955 C94.9692,91.5955 95.0352,91.6615 95.0352,91.7435 C95.0352,91.8245 94.9692,91.8905 94.8882,91.8905" id="Fill-94" fill="#C2C2A9"></path>
                <path d="M94.6596,89.539 L29.9426,89.539 C29.8616,89.539 29.7946,89.473 29.7946,89.392 C29.7946,89.31 29.8616,89.244 29.9426,89.244 L94.6596,89.244 C94.7406,89.244 94.8066,89.31 94.8066,89.392 C94.8066,89.473 94.7406,89.539 94.6596,89.539" id="Fill-95" fill="#C2C2A9"></path>
                <path d="M94.6026,87.3343 L29.9426,87.3343 C29.8616,87.3343 29.7946,87.2683 29.7946,87.1873 C29.7946,87.1053 29.8616,87.0393 29.9426,87.0393 L94.6026,87.0393 C94.6836,87.0393 94.7496,87.1053 94.7496,87.1873 C94.7496,87.2683 94.6836,87.3343 94.6026,87.3343" id="Fill-96" fill="#C2C2A9"></path>
                <path d="M95.0599,84.4604 L31.6559,84.4604 C31.5749,84.4604 31.5079,84.3944 31.5079,84.3134 C31.5079,84.2314 31.5749,84.1654 31.6559,84.1654 L95.0599,84.1654 C95.1409,84.1654 95.2069,84.2314 95.2069,84.3134 C95.2069,84.3944 95.1409,84.4604 95.0599,84.4604" id="Fill-97" fill="#C2C2A9"></path>
                <path d="M94.7742,85.9797 L30.2472,85.9797 C30.0842,85.9797 29.9522,85.8477 29.9522,85.6847 C29.9522,85.5217 30.0842,85.3897 30.2472,85.3897 L94.7742,85.3897 C94.9372,85.3897 95.0692,85.5217 95.0692,85.6847 C95.0692,85.8477 94.9372,85.9797 94.7742,85.9797" id="Fill-98" fill="#C2C2A9"></path>
                <path d="M95.4595,93.0999 L32.1895,93.0999 C32.0265,93.0999 31.8945,92.9679 31.8945,92.8049 C31.8945,92.6419 32.0265,92.5099 32.1895,92.5099 L95.4595,92.5099 C95.6225,92.5099 95.7545,92.6419 95.7545,92.8049 C95.7545,92.9679 95.6225,93.0999 95.4595,93.0999" id="Fill-99" fill="#C2C2A9"></path>
                <path d="M21.9148,73.5631 L21.9148,75.1601 C21.9148,76.0111 22.2548,76.7781 22.8178,77.3411 C23.3768,77.8961 24.1408,78.2441 24.9978,78.2441 L106.8528,78.2441 C106.7038,78.0941 106.5718,77.9241 106.4538,77.7541 C106.0168,77.0981 105.7598,76.3061 105.7528,75.4421 L105.7528,73.2821 C105.7598,72.1981 106.1658,71.2301 106.8468,70.4831 L24.9978,70.4831 C24.1408,70.4831 23.3768,70.8201 22.8178,71.3821 C22.2548,71.9451 21.9148,72.7051 21.9148,73.5631" id="Fill-100" fill="#E6F1F1"></path>
                <path d="M19.6994,73.5631 L19.6994,75.1601 C19.6994,78.0871 22.0714,80.4591 24.9984,80.4591 L103.5024,80.4591 L104.0304,80.4591 L109.0474,80.4591 L109.0474,78.2441 L106.8534,78.2441 L24.9984,78.2441 C24.1404,78.2441 23.3764,77.8961 22.8174,77.3411 C22.2554,76.7781 21.9144,76.0111 21.9144,75.1601 L21.9144,73.5631 C21.9144,72.7051 22.2554,71.9451 22.8174,71.3821 C23.3764,70.8201 24.1404,70.4831 24.9984,70.4831 L106.8464,70.4831 L109.3114,70.4831 L109.3114,68.2641 L107.6694,68.2641 L24.9984,68.2641 C22.0714,68.2641 19.6994,70.6361 19.6994,73.5631" id="Fill-101" fill="#F99A22"></path>
                <path d="M105.3062,74.1196 L22.1872,74.1196 C22.1062,74.1196 22.0392,74.0536 22.0392,73.9726 C22.0392,73.8906 22.1062,73.8246 22.1872,73.8246 L105.3062,73.8246 C105.3872,73.8246 105.4532,73.8906 105.4532,73.9726 C105.4532,74.0536 105.3872,74.1196 105.3062,74.1196" id="Fill-102" fill="#DFE0E0"></path>
                <path d="M105.5665,76.986 L22.7655,76.986 C22.6845,76.986 22.6185,76.92 22.6185,76.839 C22.6185,76.757 22.6845,76.691 22.7655,76.691 L105.5665,76.691 C105.6475,76.691 105.7135,76.757 105.7135,76.839 C105.7135,76.92 105.6475,76.986 105.5665,76.986" id="Fill-103" fill="#DFE0E0"></path>
                <path d="M105.3932,75.1994 L22.1572,75.1994 C22.0762,75.1994 22.0102,75.1334 22.0102,75.0524 C22.0102,74.9704 22.0762,74.9044 22.1572,74.9044 L105.3932,74.9044 C105.4742,74.9044 105.5402,74.9704 105.5402,75.0524 C105.5402,75.1334 105.4742,75.1994 105.3932,75.1994" id="Fill-104" fill="#DFE0E0"></path>
                <path d="M105.3494,73.5241 L22.1574,73.5241 C22.0764,73.5241 22.0104,73.4581 22.0104,73.3771 C22.0104,73.2951 22.0764,73.2291 22.1574,73.2291 L105.3494,73.2291 C105.4304,73.2291 105.4964,73.2951 105.4964,73.3771 C105.4964,73.4581 105.4304,73.5241 105.3494,73.5241" id="Fill-105" fill="#DFE0E0"></path>
                <path d="M105.6967,71.3402 L23.4597,71.3402 C23.3787,71.3402 23.3127,71.2742 23.3127,71.1932 C23.3127,71.1112 23.3787,71.0452 23.4597,71.0452 L105.6967,71.0452 C105.7777,71.0452 105.8437,71.1112 105.8437,71.1932 C105.8437,71.2742 105.7777,71.3402 105.6967,71.3402" id="Fill-106" fill="#DFE0E0"></path>
                <path d="M105.4801,72.53 L22.3891,72.53 C22.2261,72.53 22.0941,72.398 22.0941,72.235 C22.0941,72.072 22.2261,71.94 22.3891,71.94 L105.4801,71.94 C105.6431,71.94 105.7751,72.072 105.7751,72.235 C105.7751,72.398 105.6431,72.53 105.4801,72.53" id="Fill-107" fill="#DFE0E0"></path>
                <path d="M106.0008,77.9403 L23.8648,77.9403 C23.7018,77.9403 23.5708,77.8083 23.5708,77.6453 C23.5708,77.4823 23.7018,77.3503 23.8648,77.3503 L106.0008,77.3503 C106.1638,77.3503 106.2958,77.4823 106.2958,77.6453 C106.2958,77.8083 106.1638,77.9403 106.0008,77.9403" id="Fill-108" fill="#DFE0E0"></path>
            </g>
        </g>
    </g>
</svg>